{"glyphs":{"0":{"ha":1375,"x_min":14,"x_max":1361,"o":"m 676 -49 q 176 82 338 -49 q 14 468 14 213 q 178 882 14 750 q 683 1014 342 1014 q 1073 956 924 1014 q 1292 785 1222 899 q 1361 501 1361 671 q 1194 84 1361 217 q 676 -49 1026 -49 m 649 407 l 726 407 l 726 558 l 649 558 l 649 407 z "},"1":{"ha":829,"x_min":11,"x_max":819,"o":"m 44 -24 q 26 48 33 4 q 19 140 19 92 q 22 233 18 189 q 35 304 25 276 q 93 349 67 315 q 119 450 119 382 q 108 557 119 524 q 78 601 97 590 q 35 613 60 611 q 17 679 22 636 q 12 773 11 722 q 19 870 13 824 q 40 947 26 917 q 396 976 226 958 q 746 1014 565 993 q 765 933 758 975 q 771 854 771 890 q 758 735 771 789 q 731 628 744 682 q 717 510 717 575 q 744 361 717 407 q 801 304 771 315 q 817 198 814 261 q 813 74 819 135 q 792 -24 807 14 q 691 -15 753 -19 q 556 -6 629 -10 q 407 -3 482 -3 q 272 -6 340 -3 q 143 -15 203 -10 q 44 -24 83 -19 z "},"2":{"ha":1310,"x_min":-8,"x_max":1299,"o":"m 35 -24 q 28 308 -8 190 q 185 346 110 328 q 324 391 260 364 q 438 463 389 418 q 515 582 486 508 l 476 596 q 326 440 433 489 q 40 392 219 390 q 20 572 26 481 q 15 744 14 663 q 22 890 15 826 q 36 986 28 953 q 137 985 76 986 q 267 981 197 983 q 401 978 336 979 q 515 975 467 976 q 481 892 497 933 q 478 811 464 850 q 550 932 496 888 q 687 996 604 976 q 871 1015 769 1015 q 1093 984 999 1015 q 1240 883 1188 953 q 1293 696 1293 814 q 1265 569 1293 617 q 1189 491 1238 522 q 1078 432 1140 460 q 950 364 1017 404 l 975 332 q 1139 410 1061 381 q 1282 426 1217 440 q 1295 322 1292 386 q 1298 190 1299 258 q 1290 64 1297 122 q 1272 -24 1283 6 q 1127 -18 1196 -21 q 987 -11 1058 -15 q 831 -5 915 -7 q 638 -3 747 -3 q 396 -5 496 -3 q 228 -10 296 -7 q 114 -17 160 -14 q 35 -24 68 -21 z "},"3":{"ha":1290,"x_min":8,"x_max":1279,"o":"m 617 -172 q 290 -140 425 -172 q 83 -37 154 -108 q 11 150 11 33 q 87 333 11 271 q 303 396 163 396 q 505 344 442 396 q 586 201 568 293 l 626 207 q 590 310 613 275 q 544 364 567 344 l 544 471 l 597 472 l 597 547 l 524 547 l 524 435 q 281 426 400 429 q 26 428 163 422 q 12 634 15 531 q 14 828 8 738 q 33 986 19 919 q 132 985 74 986 q 256 981 190 983 q 385 978 322 979 q 496 975 447 976 q 459 900 472 946 q 458 811 446 854 q 531 931 476 888 q 669 993 585 975 q 857 1011 753 1011 q 1079 981 985 1011 q 1226 878 1174 950 q 1279 681 1279 806 q 1251 559 1279 617 q 1154 432 1224 501 q 1241 335 1203 393 q 1279 199 1279 278 q 1110 -80 1279 13 q 617 -172 940 -172 z "},"4":{"ha":1283,"x_min":11,"x_max":1272,"o":"m 513 -162 q 499 -112 501 -135 q 494 -42 496 -89 q 576 -2 544 -26 q 632 61 608 22 l 597 81 q 517 8 571 35 q 347 -19 463 -19 q 303 -19 333 -19 q 243 -17 272 -18 q 203 -17 214 -17 q 99 -19 139 -17 q 35 -24 58 -21 q 18 52 24 4 q 12 156 13 100 q 15 262 11 211 q 29 343 19 313 q 185 499 124 424 q 290 641 247 574 q 363 766 332 708 q 427 869 394 824 q 503 944 460 914 q 614 988 547 975 q 709 994 656 996 q 821 987 763 992 q 936 982 879 982 q 1094 983 1026 982 q 1192 990 1161 985 q 1210 914 1204 951 q 1217 831 1217 876 q 1209 747 1217 782 q 1191 677 1201 711 q 1173 599 1181 643 q 1165 489 1165 556 q 1169 433 1165 464 q 1190 376 1174 401 q 1243 342 1207 350 q 1264 274 1257 319 q 1272 175 1271 228 q 1267 75 1272 122 q 1249 3 1261 28 q 1201 -28 1218 1 q 1178 -96 1185 -58 q 1171 -158 1171 -133 q 1051 -149 1128 -157 q 876 -142 974 -142 q 740 -145 810 -142 q 611 -153 671 -149 q 513 -162 551 -158 m 513 389 l 585 389 l 585 518 l 513 518 l 513 389 z "},"5":{"ha":1204,"x_min":10,"x_max":1194,"o":"m 581 -186 q 378 -175 469 -186 q 204 -157 286 -164 q 39 -161 122 -150 q 18 -55 25 -115 q 10 67 11 6 q 15 177 10 128 q 32 250 21 226 q 155 268 83 267 q 308 244 226 269 q 469 150 390 218 l 497 179 q 306 288 417 249 q 35 335 196 328 q 21 503 25 410 q 18 690 17 596 q 28 865 19 785 q 50 993 36 946 q 236 980 143 988 q 422 972 329 972 q 576 963 513 972 q 673 923 639 954 q 708 826 707 892 q 721 898 725 864 q 700 979 717 932 q 963 985 842 982 q 1156 989 1085 989 q 1173 891 1167 956 q 1179 753 1179 826 q 1175 638 1179 694 q 1163 542 1171 582 q 1006 580 1085 551 q 821 668 928 608 l 803 632 q 879 593 839 613 q 958 556 919 574 q 1074 490 1021 528 q 1161 392 1128 453 q 1194 229 1194 331 q 1115 -13 1194 78 q 898 -145 1036 -104 q 581 -186 760 -186 z "},"6":{"ha":1344,"x_min":14,"x_max":1331,"o":"m 689 -47 q 176 89 338 -47 q 14 474 14 225 q 85 768 14 647 q 281 963 156 889 q 568 1069 406 1036 q 913 1103 731 1103 q 1065 1099 979 1103 q 1240 1088 1151 1094 q 1265 1025 1257 1067 q 1273 935 1272 983 q 1269 844 1274 886 q 1256 781 1264 803 q 849 763 1003 792 l 857 724 q 913 731 885 728 q 969 733 940 733 q 1146 701 1064 733 q 1279 597 1228 668 q 1331 408 1331 525 q 1281 190 1331 278 q 1144 51 1232 103 q 939 -24 1056 -1 q 689 -47 822 -47 m 635 404 l 710 404 l 710 513 l 635 513 l 635 404 z "},"7":{"ha":1217,"x_min":10,"x_max":1204,"o":"m 149 -162 q 142 17 131 -60 q 189 154 154 93 q 275 271 224 215 q 389 386 326 326 q 483 502 442 435 q 539 667 524 569 l 499 671 q 432 521 483 583 q 284 428 381 458 q 36 404 188 397 q 16 584 22 493 q 10 757 10 675 q 17 902 11 839 q 32 999 24 965 q 210 985 135 990 q 350 978 286 981 q 479 974 414 975 q 628 972 544 972 q 846 980 739 972 q 1041 997 953 988 q 1182 1014 1129 1007 q 1203 816 1201 915 q 1192 624 1204 717 q 1065 444 1107 533 q 1006 263 1024 354 q 978 51 986 161 q 939 -162 969 -60 q 817 -153 875 -158 q 694 -145 760 -149 q 538 -142 628 -142 q 340 -145 415 -142 q 222 -153 265 -149 q 149 -162 178 -158 z "},"8":{"ha":1338,"x_min":11,"x_max":1326,"o":"m 657 -49 q 283 -6 425 -49 q 76 113 140 36 q 11 293 11 190 q 28 378 11 326 q 92 487 44 429 q 233 594 140 544 q 133 599 183 582 q 49 660 83 617 q 15 764 15 703 q 47 893 15 832 q 154 1002 78 954 q 365 1077 231 1050 q 706 1104 500 1104 q 935 1088 825 1104 q 1133 1034 1046 1072 q 1271 931 1219 996 q 1322 767 1322 865 q 1302 658 1322 714 q 1243 555 1282 603 q 1147 476 1204 507 q 1230 458 1189 475 q 1299 399 1271 440 q 1326 283 1326 357 q 1293 149 1326 210 q 1183 44 1260 89 q 976 -24 1106 0 q 657 -49 847 -49 m 639 606 l 711 606 l 711 710 l 639 710 l 639 606 m 639 367 l 711 367 l 711 471 l 639 471 l 639 367 z "},"9":{"ha":1343,"x_min":13,"x_max":1329,"o":"m 431 -176 q 278 -172 364 -176 q 103 -161 192 -168 q 78 -99 86 -140 q 70 -8 71 -57 q 74 82 69 40 q 88 146 79 124 q 494 164 340 135 l 486 203 q 431 196 460 199 q 374 193 403 193 q 238 212 303 193 q 123 273 174 231 q 42 386 72 315 q 13 560 13 457 q 62 778 13 690 q 199 917 111 865 q 404 992 288 969 q 654 1015 521 1015 q 1167 879 1006 1015 q 1329 494 1329 743 q 1283 231 1329 343 q 1153 40 1236 118 q 957 -85 1069 -37 q 710 -155 844 -133 q 431 -176 576 -176 m 633 456 l 708 456 l 708 564 l 633 564 l 633 456 z "},"A":{"ha":1536,"x_min":11,"x_max":1525,"o":"m 38 -24 q 19 50 26 6 q 12 142 13 94 q 15 235 11 190 q 28 308 18 279 q 97 349 72 318 q 132 426 121 381 q 150 519 143 471 q 161 619 158 571 q 151 700 164 667 q 94 740 138 733 q 76 808 82 765 q 72 901 71 851 q 79 997 72 950 q 100 1076 86 1043 q 240 1066 157 1071 q 463 1061 324 1061 q 667 1069 557 1061 q 894 1083 778 1076 q 1122 1090 1011 1090 q 1272 1051 1217 1090 q 1354 947 1326 1011 q 1390 810 1382 883 q 1398 666 1399 736 q 1397 544 1397 596 q 1413 415 1397 463 q 1453 343 1428 367 q 1508 308 1479 319 q 1522 235 1518 279 q 1524 142 1525 190 q 1517 50 1524 94 q 1499 -24 1510 6 q 1362 -10 1442 -18 q 1169 -1 1282 -1 q 952 -10 1054 -1 q 793 -24 850 -18 q 783 50 788 6 q 778 142 779 94 q 778 235 776 190 q 783 308 779 279 l 822 308 l 822 378 l 701 378 l 701 308 l 740 308 q 748 235 746 279 q 749 142 750 190 q 743 50 747 94 q 731 -24 739 6 q 651 -15 693 -19 q 552 -6 608 -10 q 414 -1 496 -1 q 192 -9 285 -1 q 38 -24 99 -17 m 711 582 l 811 582 l 811 647 l 711 647 l 711 582 z "},"Á":{"ha":1536,"x_min":11,"x_max":1525,"o":"m 38 -24 q 19 50 26 6 q 12 142 13 94 q 15 235 11 190 q 28 308 18 279 q 97 349 72 318 q 132 426 121 381 q 150 519 143 471 q 161 619 158 571 q 151 700 164 667 q 94 740 138 733 q 76 808 82 765 q 72 901 71 851 q 79 997 72 950 q 100 1076 86 1043 q 176 1070 136 1074 q 276 1065 217 1067 q 431 1061 336 1063 q 413 979 418 1025 q 417 888 408 933 q 451 805 425 842 q 528 749 478 768 q 470 869 485 796 q 474 1027 456 943 q 547 1186 493 1111 q 636 1210 588 1203 q 736 1218 685 1218 q 878 1205 808 1218 q 1001 1169 947 1192 q 1078 1115 1054 1146 q 1076 1103 1078 1110 q 1072 1090 1075 1097 l 1122 1090 q 1272 1051 1217 1090 q 1354 947 1326 1011 q 1390 810 1382 883 q 1398 666 1399 736 q 1397 544 1397 596 q 1413 415 1397 463 q 1453 343 1428 367 q 1508 308 1479 319 q 1522 235 1518 279 q 1524 142 1525 190 q 1517 50 1524 94 q 1499 -24 1510 6 q 1362 -10 1442 -18 q 1169 -1 1282 -1 q 952 -10 1054 -1 q 793 -24 850 -18 q 783 50 788 6 q 778 142 779 94 q 778 235 776 190 q 783 308 779 279 l 822 308 l 822 378 l 701 378 l 701 308 l 740 308 q 748 235 746 279 q 749 142 750 190 q 743 50 747 94 q 731 -24 739 6 q 651 -15 693 -19 q 552 -6 608 -10 q 414 -1 496 -1 q 192 -9 285 -1 q 38 -24 99 -17 m 711 582 l 811 582 l 811 647 l 711 647 l 711 582 z "},"Ă":{"ha":1536,"x_min":11,"x_max":1525,"o":"m 38 -24 q 19 50 26 6 q 12 142 13 94 q 15 235 11 190 q 28 308 18 279 q 97 349 72 318 q 132 426 121 381 q 150 519 143 471 q 161 619 158 571 q 151 700 164 667 q 94 740 138 733 q 76 808 82 765 q 72 901 71 851 q 79 997 72 950 q 100 1076 86 1043 q 182 1069 136 1072 q 292 1064 228 1067 q 330 928 299 992 q 415 822 361 865 q 544 768 469 779 q 382 934 435 824 q 350 1176 329 1044 q 422 1197 375 1189 q 517 1210 468 1206 q 597 1215 567 1215 q 765 1153 642 1153 q 933 1215 892 1153 q 1008 1210 963 1215 q 1099 1197 1054 1206 q 1167 1176 1143 1189 q 1172 1131 1171 1154 q 1174 1086 1174 1108 q 1297 1031 1251 1075 q 1364 925 1342 988 q 1392 793 1386 863 q 1398 658 1399 724 q 1397 544 1397 593 q 1413 415 1397 463 q 1453 343 1428 367 q 1508 308 1479 319 q 1522 235 1518 279 q 1524 142 1525 190 q 1517 50 1524 94 q 1499 -24 1510 6 q 1362 -10 1442 -18 q 1169 -1 1282 -1 q 952 -10 1054 -1 q 793 -24 850 -18 q 783 50 788 6 q 778 142 779 94 q 778 235 776 190 q 783 308 779 279 l 822 308 l 822 378 l 701 378 l 701 308 l 740 308 q 748 235 746 279 q 749 142 750 190 q 743 50 747 94 q 731 -24 739 6 q 651 -15 693 -19 q 552 -6 608 -10 q 414 -1 496 -1 q 192 -9 285 -1 q 38 -24 99 -17 m 711 582 l 811 582 l 811 647 l 711 647 l 711 582 z "},"Ắ":{"ha":1536,"x_min":11,"x_max":1525,"o":"m 38 -24 q 19 50 26 6 q 12 142 13 94 q 15 235 11 190 q 28 308 18 279 q 97 349 72 318 q 132 426 121 381 q 150 519 143 471 q 161 619 158 571 q 151 700 164 667 q 94 740 138 733 q 76 808 82 765 q 72 901 71 851 q 79 997 72 950 q 100 1076 86 1043 q 182 1069 136 1072 q 292 1064 228 1067 q 330 928 299 992 q 415 822 361 865 q 544 768 469 779 q 382 934 435 824 q 350 1176 329 1044 q 433 1199 378 1190 q 539 1213 488 1208 q 530 1087 522 1153 q 589 981 538 1021 q 565 1097 563 1035 q 588 1213 568 1158 q 632 1300 608 1268 q 703 1318 664 1313 q 782 1324 742 1324 q 901 1313 843 1324 q 1006 1283 960 1301 q 1071 1242 1051 1265 q 1067 1223 1069 1232 q 1061 1203 1064 1214 q 1122 1192 1093 1199 q 1167 1176 1150 1185 q 1172 1131 1171 1154 q 1174 1086 1174 1108 q 1297 1031 1251 1075 q 1364 925 1342 988 q 1392 793 1386 863 q 1398 658 1399 724 q 1397 544 1397 593 q 1413 415 1397 463 q 1453 343 1428 367 q 1508 308 1479 319 q 1522 235 1518 279 q 1524 142 1525 190 q 1517 50 1524 94 q 1499 -24 1510 6 q 1362 -10 1442 -18 q 1169 -1 1282 -1 q 952 -10 1054 -1 q 793 -24 850 -18 q 783 50 788 6 q 778 142 779 94 q 778 235 776 190 q 783 308 779 279 l 822 308 l 822 378 l 701 378 l 701 308 l 740 308 q 748 235 746 279 q 749 142 750 190 q 743 50 747 94 q 731 -24 739 6 q 651 -15 693 -19 q 552 -6 608 -10 q 414 -1 496 -1 q 192 -9 285 -1 q 38 -24 99 -17 m 711 582 l 811 582 l 811 647 l 711 647 l 711 582 z "},"Ặ":{"ha":1536,"x_min":11,"x_max":1525,"o":"m 751 -240 q 522 -169 600 -240 q 443 7 443 -99 q 474 120 443 64 q 578 210 506 176 q 479 174 518 207 q 420 93 440 140 q 397 -1 400 46 q 186 -10 275 -3 q 38 -24 97 -17 q 19 50 26 6 q 12 142 13 94 q 15 235 11 190 q 28 308 18 279 q 97 349 72 318 q 132 426 121 381 q 150 519 143 471 q 161 619 158 571 q 151 700 164 667 q 94 740 138 733 q 76 808 82 765 q 72 901 71 851 q 79 997 72 950 q 100 1076 86 1043 q 182 1069 136 1072 q 292 1064 228 1067 q 330 928 299 992 q 415 822 361 865 q 544 768 469 779 q 382 934 435 824 q 350 1176 329 1044 q 422 1197 375 1189 q 517 1210 468 1206 q 597 1215 567 1215 q 765 1153 642 1153 q 933 1215 892 1153 q 1008 1210 963 1215 q 1099 1197 1054 1206 q 1167 1176 1143 1189 q 1172 1131 1171 1154 q 1174 1086 1174 1108 q 1297 1031 1251 1075 q 1364 925 1342 988 q 1392 793 1386 863 q 1398 658 1399 724 q 1397 544 1397 593 q 1413 415 1397 463 q 1453 343 1428 367 q 1508 308 1479 319 q 1522 235 1518 279 q 1524 142 1525 190 q 1517 50 1524 94 q 1499 -24 1510 6 q 1362 -10 1442 -18 q 1169 -1 1282 -1 q 1109 -2 1139 -1 q 1050 -4 1079 -3 l 1050 -6 q 1022 -118 1050 -64 q 928 -206 993 -172 q 751 -240 863 -240 m 711 582 l 811 582 l 811 647 l 711 647 l 711 582 m 700 307 l 822 307 l 822 378 l 700 378 l 700 307 z "},"Ằ":{"ha":1536,"x_min":11,"x_max":1525,"o":"m 38 -24 q 19 50 26 6 q 12 142 13 94 q 15 235 11 190 q 28 308 18 279 q 97 349 72 318 q 132 426 121 381 q 150 519 143 471 q 161 619 158 571 q 151 700 164 667 q 94 740 138 733 q 76 808 82 765 q 72 901 71 851 q 79 997 72 950 q 100 1076 86 1043 q 182 1069 136 1072 q 292 1064 228 1067 q 330 928 299 992 q 415 822 361 865 q 544 768 469 779 q 382 934 435 824 q 350 1176 329 1044 q 402 1193 369 1186 q 471 1206 435 1200 q 540 1071 490 1133 q 667 985 590 1008 q 571 1103 614 1036 q 517 1239 528 1171 q 580 1283 536 1264 q 681 1313 624 1301 q 799 1324 739 1324 q 882 1318 842 1324 q 956 1297 922 1313 q 978 1260 967 1282 q 1000 1211 990 1238 q 1092 1199 1044 1207 q 1167 1176 1140 1190 q 1172 1131 1171 1154 q 1174 1086 1174 1108 q 1297 1031 1251 1075 q 1364 925 1342 988 q 1392 793 1386 863 q 1398 658 1399 724 q 1397 544 1397 593 q 1413 415 1397 463 q 1453 343 1428 367 q 1508 308 1479 319 q 1522 235 1518 279 q 1524 142 1525 190 q 1517 50 1524 94 q 1499 -24 1510 6 q 1362 -10 1442 -18 q 1169 -1 1282 -1 q 952 -10 1054 -1 q 793 -24 850 -18 q 783 50 788 6 q 778 142 779 94 q 778 235 776 190 q 783 308 779 279 l 822 308 l 822 378 l 701 378 l 701 308 l 740 308 q 748 235 746 279 q 749 142 750 190 q 743 50 747 94 q 731 -24 739 6 q 651 -15 693 -19 q 552 -6 608 -10 q 414 -1 496 -1 q 192 -9 285 -1 q 38 -24 99 -17 m 711 582 l 811 582 l 811 647 l 711 647 l 711 582 z "},"Ẳ":{"ha":1536,"x_min":11,"x_max":1525,"o":"m 38 -24 q 19 50 26 6 q 12 142 13 94 q 15 235 11 190 q 28 308 18 279 q 97 349 72 318 q 132 426 121 381 q 150 519 143 471 q 161 619 158 571 q 151 700 164 667 q 94 740 138 733 q 76 808 82 765 q 72 901 71 851 q 79 997 72 950 q 100 1076 86 1043 q 182 1069 136 1072 q 292 1064 228 1067 q 330 928 299 992 q 415 822 361 865 q 544 768 469 779 q 382 934 435 824 q 350 1176 329 1044 q 404 1194 369 1188 q 476 1206 439 1201 q 484 1104 475 1158 q 511 1015 493 1050 q 564 1019 533 1018 q 625 1004 594 1019 q 587 1045 611 1035 q 535 1053 563 1056 q 521 1132 525 1083 q 521 1228 517 1181 q 536 1301 525 1276 q 678 1315 608 1306 q 835 1324 749 1324 q 967 1292 917 1324 q 1032 1207 1017 1261 q 1108 1195 1071 1203 q 1167 1176 1146 1188 q 1172 1131 1171 1154 q 1174 1086 1174 1108 q 1297 1031 1251 1075 q 1364 925 1342 988 q 1392 793 1386 863 q 1398 658 1399 724 q 1397 544 1397 593 q 1413 415 1397 463 q 1453 343 1428 367 q 1508 308 1479 319 q 1522 235 1518 279 q 1524 142 1525 190 q 1517 50 1524 94 q 1499 -24 1510 6 q 1362 -10 1442 -18 q 1169 -1 1282 -1 q 952 -10 1054 -1 q 793 -24 850 -18 q 783 50 788 6 q 778 142 779 94 q 778 235 776 190 q 783 308 779 279 l 822 308 l 822 378 l 701 378 l 701 308 l 740 308 q 748 235 746 279 q 749 142 750 190 q 743 50 747 94 q 731 -24 739 6 q 651 -15 693 -19 q 552 -6 608 -10 q 414 -1 496 -1 q 192 -9 285 -1 q 38 -24 99 -17 m 711 582 l 811 582 l 811 647 l 711 647 l 711 582 z "},"Ẵ":{"ha":1536,"x_min":11,"x_max":1525,"o":"m 38 -24 q 19 50 26 6 q 12 142 13 94 q 15 235 11 190 q 28 308 18 279 q 97 349 72 318 q 132 426 121 381 q 150 519 143 471 q 161 619 158 571 q 151 700 164 667 q 94 740 138 733 q 76 808 82 765 q 72 901 71 851 q 79 997 72 950 q 100 1076 86 1043 q 182 1069 136 1072 q 292 1064 228 1067 q 330 928 299 992 q 415 822 361 865 q 544 768 469 779 q 382 934 435 824 q 350 1176 329 1044 q 447 1201 385 1193 q 444 1119 442 1164 q 465 1038 446 1075 q 515 1252 472 1188 q 640 1317 558 1317 q 742 1299 696 1317 q 826 1282 788 1282 q 903 1322 881 1282 q 959 1318 925 1322 q 1026 1307 993 1314 q 1078 1289 1060 1300 q 1077 1243 1078 1265 q 1075 1201 1076 1221 q 1127 1191 1103 1197 q 1167 1176 1151 1185 q 1172 1131 1171 1154 q 1174 1086 1174 1108 q 1297 1031 1251 1075 q 1364 925 1342 988 q 1392 793 1386 863 q 1398 658 1399 724 q 1397 544 1397 593 q 1413 415 1397 463 q 1453 343 1428 367 q 1508 308 1479 319 q 1522 235 1518 279 q 1524 142 1525 190 q 1517 50 1524 94 q 1499 -24 1510 6 q 1362 -10 1442 -18 q 1169 -1 1282 -1 q 952 -10 1054 -1 q 793 -24 850 -18 q 783 50 788 6 q 778 142 779 94 q 778 235 776 190 q 783 308 779 279 l 822 308 l 822 378 l 701 378 l 701 308 l 740 308 q 748 235 746 279 q 749 142 750 190 q 743 50 747 94 q 731 -24 739 6 q 651 -15 693 -19 q 552 -6 608 -10 q 414 -1 496 -1 q 192 -9 285 -1 q 38 -24 99 -17 m 711 582 l 811 582 l 811 647 l 711 647 l 711 582 z "},"Â":{"ha":1536,"x_min":11,"x_max":1525,"o":"m 38 -24 q 19 50 26 6 q 12 142 13 94 q 15 235 11 190 q 28 308 18 279 q 97 349 72 318 q 132 426 121 381 q 150 519 143 471 q 161 619 158 571 q 151 700 164 667 q 94 740 138 733 q 76 808 82 765 q 72 901 71 851 q 79 997 72 950 q 100 1076 86 1043 q 168 1072 125 1075 q 261 1065 211 1068 q 357 1058 311 1061 q 328 964 338 1019 q 322 857 318 908 q 344 776 326 806 q 367 950 339 865 q 444 1101 396 1035 q 544 1204 492 1168 q 642 1213 585 1211 q 758 1215 700 1215 q 878 1213 822 1215 q 964 1204 935 1210 q 1074 1090 1019 1165 l 1122 1090 q 1272 1051 1217 1090 q 1354 947 1326 1011 q 1390 810 1382 883 q 1398 666 1399 736 q 1397 544 1397 596 q 1413 415 1397 463 q 1453 343 1428 367 q 1508 308 1479 319 q 1522 235 1518 279 q 1524 142 1525 190 q 1517 50 1524 94 q 1499 -24 1510 6 q 1362 -10 1442 -18 q 1169 -1 1282 -1 q 952 -10 1054 -1 q 793 -24 850 -18 q 783 50 788 6 q 778 142 779 94 q 778 235 776 190 q 783 308 779 279 l 822 308 l 822 378 l 701 378 l 701 308 l 740 308 q 748 235 746 279 q 749 142 750 190 q 743 50 747 94 q 731 -24 739 6 q 651 -15 693 -19 q 552 -6 608 -10 q 414 -1 496 -1 q 192 -9 285 -1 q 38 -24 99 -17 m 726 582 l 774 582 l 774 750 l 726 750 l 726 582 z "},"Ấ":{"ha":1536,"x_min":11,"x_max":1525,"o":"m 38 -24 q 19 50 26 6 q 12 142 13 94 q 15 235 11 190 q 28 308 18 279 q 97 349 72 318 q 132 426 121 381 q 150 519 143 471 q 161 619 158 571 q 151 700 164 667 q 94 740 138 733 q 76 808 82 765 q 72 901 71 851 q 79 997 72 950 q 100 1076 86 1043 q 168 1072 125 1075 q 261 1065 211 1068 q 357 1058 311 1061 q 328 964 338 1019 q 322 857 318 908 q 344 776 326 806 q 367 950 339 865 q 444 1101 396 1035 q 544 1204 492 1168 q 618 1212 576 1210 q 706 1215 660 1214 q 696 1071 683 1135 q 754 971 708 1007 q 731 1087 728 1025 q 753 1203 733 1149 q 797 1290 774 1258 q 871 1311 831 1306 q 954 1317 911 1317 q 1072 1306 1014 1317 q 1173 1276 1129 1294 q 1236 1232 1217 1257 q 1215 1159 1231 1196 q 1175 1086 1199 1122 q 1297 1031 1251 1074 q 1364 925 1342 988 q 1392 793 1386 863 q 1398 658 1399 724 q 1397 544 1397 593 q 1413 415 1397 463 q 1453 343 1428 367 q 1508 308 1479 319 q 1522 235 1518 279 q 1524 142 1525 190 q 1517 50 1524 94 q 1499 -24 1510 6 q 1362 -10 1442 -18 q 1169 -1 1282 -1 q 952 -10 1054 -1 q 793 -24 850 -18 q 783 50 788 6 q 778 142 779 94 q 778 235 776 190 q 783 308 779 279 l 822 308 l 822 378 l 701 378 l 701 308 l 740 308 q 748 235 746 279 q 749 142 750 190 q 743 50 747 94 q 731 -24 739 6 q 651 -15 693 -19 q 552 -6 608 -10 q 414 -1 496 -1 q 192 -9 285 -1 q 38 -24 99 -17 m 726 582 l 774 582 l 774 750 l 726 750 l 726 582 z "},"Ậ":{"ha":1536,"x_min":11,"x_max":1525,"o":"m 751 -240 q 522 -169 600 -240 q 443 7 443 -99 q 474 120 443 64 q 578 210 506 176 q 479 174 518 207 q 420 93 440 140 q 397 -1 400 46 q 186 -10 275 -3 q 38 -24 97 -17 q 19 50 26 6 q 12 142 13 94 q 15 235 11 190 q 28 308 18 279 q 97 349 72 318 q 132 426 121 381 q 150 519 143 471 q 161 619 158 571 q 151 700 164 667 q 94 740 138 733 q 76 808 82 765 q 72 901 71 851 q 79 997 72 950 q 100 1076 86 1043 q 168 1072 125 1075 q 261 1065 211 1068 q 357 1058 311 1061 q 328 964 338 1019 q 322 857 318 908 q 344 776 326 806 q 367 950 339 865 q 444 1101 396 1035 q 544 1204 492 1168 q 642 1213 585 1211 q 758 1215 700 1215 q 878 1213 822 1215 q 964 1204 935 1210 q 1074 1090 1019 1165 l 1122 1090 q 1272 1051 1217 1090 q 1354 947 1326 1011 q 1390 810 1382 883 q 1398 666 1399 736 q 1397 544 1397 596 q 1413 415 1397 463 q 1453 343 1428 367 q 1508 308 1479 319 q 1522 235 1518 279 q 1524 142 1525 190 q 1517 50 1524 94 q 1499 -24 1510 6 q 1362 -10 1442 -18 q 1169 -1 1282 -1 q 1109 -2 1139 -1 q 1050 -4 1079 -3 l 1050 -6 q 1022 -118 1050 -64 q 928 -206 993 -172 q 751 -240 863 -240 m 726 582 l 774 582 l 774 750 l 726 750 l 726 582 m 700 307 l 822 307 l 822 378 l 700 378 l 700 307 z "},"Ầ":{"ha":1536,"x_min":11,"x_max":1525,"o":"m 38 -24 q 19 50 26 6 q 12 142 13 94 q 15 235 11 190 q 28 308 18 279 q 97 349 72 318 q 132 426 121 381 q 150 519 143 471 q 161 619 158 571 q 151 700 164 667 q 94 740 138 733 q 76 808 82 765 q 72 901 71 851 q 79 997 72 950 q 100 1076 86 1043 q 168 1072 125 1075 q 261 1065 211 1068 q 357 1058 311 1061 q 328 964 338 1019 q 322 857 318 908 q 344 776 326 806 q 367 950 339 865 q 444 1101 396 1035 q 544 1204 492 1168 q 618 1212 576 1210 q 706 1215 660 1214 q 777 1072 728 1135 q 903 985 826 1008 q 807 1103 850 1036 q 753 1239 764 1171 q 816 1283 772 1264 q 917 1313 860 1301 q 1035 1324 975 1324 q 1118 1318 1078 1324 q 1192 1297 1158 1313 q 1242 1194 1219 1261 q 1257 1058 1264 1128 q 1335 983 1307 1031 q 1378 877 1364 935 q 1395 758 1392 819 q 1398 642 1399 697 q 1397 544 1397 586 q 1413 415 1397 463 q 1453 343 1428 367 q 1508 308 1479 319 q 1522 235 1518 279 q 1524 142 1525 190 q 1517 50 1524 94 q 1499 -24 1510 6 q 1362 -10 1442 -18 q 1169 -1 1282 -1 q 952 -10 1054 -1 q 793 -24 850 -18 q 783 50 788 6 q 778 142 779 94 q 778 235 776 190 q 783 308 779 279 l 822 308 l 822 378 l 701 378 l 701 308 l 740 308 q 748 235 746 279 q 749 142 750 190 q 743 50 747 94 q 731 -24 739 6 q 651 -15 693 -19 q 552 -6 608 -10 q 414 -1 496 -1 q 192 -9 285 -1 q 38 -24 99 -17 m 726 582 l 774 582 l 774 750 l 726 750 l 726 582 z "},"Ẩ":{"ha":1536,"x_min":11,"x_max":1525,"o":"m 38 -24 q 19 50 26 6 q 12 142 13 94 q 15 235 11 190 q 28 308 18 279 q 97 349 72 318 q 132 426 121 381 q 150 519 143 471 q 161 619 158 571 q 151 700 164 667 q 94 740 138 733 q 76 808 82 765 q 72 901 71 851 q 79 997 72 950 q 100 1076 86 1043 q 168 1072 125 1075 q 261 1065 211 1068 q 357 1058 311 1061 q 328 964 338 1019 q 322 857 318 908 q 344 776 326 806 q 367 950 339 865 q 444 1101 396 1035 q 544 1204 492 1168 q 701 1215 610 1213 q 707 1103 699 1157 q 733 1015 715 1049 q 786 1019 756 1018 q 847 1004 817 1019 q 809 1045 833 1035 q 757 1053 785 1056 q 743 1132 747 1083 q 743 1228 739 1181 q 758 1301 747 1276 q 901 1315 831 1306 q 1057 1324 971 1324 q 1209 1278 1157 1324 q 1261 1156 1261 1233 q 1258 1113 1261 1136 q 1244 1065 1254 1090 q 1330 992 1299 1039 q 1376 885 1361 944 q 1394 765 1390 826 q 1398 645 1399 703 q 1397 544 1397 588 q 1413 415 1397 463 q 1453 343 1428 367 q 1508 308 1479 319 q 1522 235 1518 279 q 1524 142 1525 190 q 1517 50 1524 94 q 1499 -24 1510 6 q 1362 -10 1442 -18 q 1169 -1 1282 -1 q 952 -10 1054 -1 q 793 -24 850 -18 q 783 50 788 6 q 778 142 779 94 q 778 235 776 190 q 783 308 779 279 l 822 308 l 822 378 l 701 378 l 701 308 l 740 308 q 748 235 746 279 q 749 142 750 190 q 743 50 747 94 q 731 -24 739 6 q 651 -15 693 -19 q 552 -6 608 -10 q 414 -1 496 -1 q 192 -9 285 -1 q 38 -24 99 -17 m 726 582 l 774 582 l 774 750 l 726 750 l 726 582 z "},"Ẫ":{"ha":1536,"x_min":11,"x_max":1525,"o":"m 38 -24 q 19 50 26 6 q 12 142 13 94 q 15 235 11 190 q 28 308 18 279 q 97 349 72 318 q 132 426 121 381 q 150 519 143 471 q 161 619 158 571 q 151 700 164 667 q 94 740 138 733 q 76 808 82 765 q 72 901 71 851 q 79 997 72 950 q 100 1076 86 1043 q 168 1072 125 1075 q 261 1065 211 1068 q 357 1058 311 1061 q 328 964 338 1019 q 322 857 318 908 q 344 776 326 806 q 367 950 339 865 q 444 1101 396 1035 q 544 1204 492 1168 q 610 1211 574 1208 q 688 1215 647 1214 q 680 1119 676 1165 q 701 1038 683 1074 q 751 1252 708 1188 q 876 1317 794 1317 q 976 1299 931 1317 q 1061 1282 1022 1282 q 1138 1322 1115 1282 q 1192 1318 1158 1322 q 1260 1307 1226 1314 q 1311 1289 1293 1300 q 1276 1046 1311 1125 q 1357 943 1331 1007 q 1391 806 1383 879 q 1398 664 1399 733 q 1397 544 1397 594 q 1413 415 1397 463 q 1453 343 1428 367 q 1508 308 1479 319 q 1522 235 1518 279 q 1524 142 1525 190 q 1517 50 1524 94 q 1499 -24 1510 6 q 1362 -10 1442 -18 q 1169 -1 1282 -1 q 952 -10 1054 -1 q 793 -24 850 -18 q 783 50 788 6 q 778 142 779 94 q 778 235 776 190 q 783 308 779 279 l 822 308 l 822 378 l 701 378 l 701 308 l 740 308 q 748 235 746 279 q 749 142 750 190 q 743 50 747 94 q 731 -24 739 6 q 651 -15 693 -19 q 552 -6 608 -10 q 414 -1 496 -1 q 192 -9 285 -1 q 38 -24 99 -17 m 726 582 l 774 582 l 774 750 l 726 750 l 726 582 z "},"Ȁ":{"ha":1536,"x_min":11,"x_max":1525,"o":"m 38 -24 q 19 50 26 6 q 12 142 13 94 q 15 235 11 190 q 28 308 18 279 q 97 349 72 318 q 132 426 121 381 q 150 519 143 471 q 161 619 158 571 q 151 700 164 667 q 94 740 138 733 q 76 808 82 765 q 72 901 71 851 q 79 997 72 950 q 100 1076 86 1043 q 133 1074 115 1075 q 169 1071 151 1072 q 285 870 214 940 q 439 774 357 800 q 342 869 389 814 q 262 989 294 925 q 218 1115 229 1053 q 295 1169 242 1146 q 418 1205 349 1192 q 560 1218 488 1218 q 610 1217 585 1218 q 658 1211 635 1215 q 613 1176 636 1203 q 579 1115 589 1149 q 656 1169 603 1146 q 779 1205 710 1192 q 921 1218 849 1218 q 1021 1210 972 1218 q 1110 1186 1069 1203 q 1161 1089 1138 1150 q 1290 1037 1242 1079 q 1361 931 1338 994 q 1392 797 1385 868 q 1398 660 1399 726 q 1397 544 1397 593 q 1413 415 1397 463 q 1453 343 1428 367 q 1508 308 1479 319 q 1522 235 1518 279 q 1524 142 1525 190 q 1517 50 1524 94 q 1499 -24 1510 6 q 1362 -10 1442 -18 q 1169 -1 1282 -1 q 952 -10 1054 -1 q 793 -24 850 -18 q 783 50 788 6 q 778 142 779 94 q 778 235 776 190 q 783 308 779 279 l 822 308 l 822 378 l 701 378 l 701 308 l 740 308 q 748 235 746 279 q 749 142 750 190 q 743 50 747 94 q 731 -24 739 6 q 651 -15 693 -19 q 552 -6 608 -10 q 414 -1 496 -1 q 192 -9 285 -1 q 38 -24 99 -17 m 726 582 l 796 582 l 796 689 l 726 689 l 726 582 z "},"Ä":{"ha":1536,"x_min":11,"x_max":1525,"o":"m 38 -24 q 19 50 26 6 q 12 142 13 94 q 15 235 11 190 q 28 308 18 279 q 97 349 72 318 q 132 426 121 381 q 150 519 143 471 q 161 619 158 571 q 151 700 164 667 q 94 740 138 733 q 76 808 82 765 q 72 901 71 851 q 79 997 72 950 q 100 1076 86 1043 q 168 1072 128 1074 q 251 1067 208 1069 q 253 910 232 978 q 324 803 274 843 q 442 757 375 764 q 333 846 376 786 q 290 982 290 906 q 319 1091 290 1038 q 415 1181 347 1144 q 596 1217 482 1217 q 660 1213 631 1217 q 715 1203 690 1208 q 655 1132 669 1172 q 649 1056 640 1092 q 740 1169 671 1121 q 943 1217 810 1217 q 1128 1176 1061 1217 q 1222 1075 1196 1136 q 1319 1006 1283 1053 q 1372 899 1356 960 q 1394 774 1389 839 q 1398 649 1399 710 q 1397 544 1397 589 q 1413 415 1397 463 q 1453 343 1428 367 q 1508 308 1479 319 q 1522 235 1518 279 q 1524 142 1525 190 q 1517 50 1524 94 q 1499 -24 1510 6 q 1362 -10 1442 -18 q 1169 -1 1282 -1 q 952 -10 1054 -1 q 793 -24 850 -18 q 783 50 788 6 q 778 142 779 94 q 778 235 776 190 q 783 308 779 279 l 822 308 l 822 378 l 701 378 l 701 308 l 740 308 q 748 235 746 279 q 749 142 750 190 q 743 50 747 94 q 731 -24 739 6 q 651 -15 693 -19 q 552 -6 608 -10 q 414 -1 496 -1 q 192 -9 285 -1 q 38 -24 99 -17 m 711 582 l 811 582 l 811 647 l 711 647 l 711 582 z "},"Ạ":{"ha":1536,"x_min":11,"x_max":1525,"o":"m 751 -240 q 522 -169 600 -240 q 443 7 443 -99 q 474 120 443 64 q 578 210 506 176 q 479 174 518 207 q 420 93 440 140 q 397 -1 400 46 q 186 -10 275 -3 q 38 -24 97 -17 q 19 50 26 6 q 12 142 13 94 q 15 235 11 190 q 28 308 18 279 q 97 349 72 318 q 132 426 121 381 q 150 519 143 471 q 161 619 158 571 q 151 700 164 667 q 94 740 138 733 q 76 808 82 765 q 72 901 71 851 q 79 997 72 950 q 100 1076 86 1043 q 240 1066 157 1071 q 463 1061 324 1061 q 667 1069 557 1061 q 894 1083 778 1076 q 1122 1090 1011 1090 q 1272 1051 1217 1090 q 1354 947 1326 1011 q 1390 810 1382 883 q 1398 666 1399 736 q 1397 544 1397 596 q 1413 415 1397 463 q 1453 343 1428 367 q 1508 308 1479 319 q 1522 235 1518 279 q 1524 142 1525 190 q 1517 50 1524 94 q 1499 -24 1510 6 q 1362 -10 1442 -18 q 1169 -1 1282 -1 q 1109 -2 1139 -1 q 1050 -4 1079 -3 q 1022 -118 1050 -64 q 928 -206 993 -172 q 751 -240 863 -240 m 711 582 l 811 582 l 811 647 l 711 647 l 711 582 m 700 307 l 822 307 l 822 378 l 700 378 l 700 307 z "},"À":{"ha":1536,"x_min":11,"x_max":1525,"o":"m 38 -24 q 19 50 26 6 q 12 142 13 94 q 15 235 11 190 q 28 308 18 279 q 97 349 72 318 q 132 426 121 381 q 150 519 143 471 q 161 619 158 571 q 151 700 164 667 q 94 740 138 733 q 76 808 82 765 q 72 901 71 851 q 79 997 72 950 q 100 1076 86 1043 q 196 1069 142 1072 q 328 1063 250 1065 q 440 870 372 940 q 593 774 508 800 q 496 869 543 814 q 416 989 449 925 q 372 1115 383 1053 q 449 1169 396 1146 q 572 1205 503 1192 q 714 1218 642 1218 q 814 1210 765 1218 q 903 1186 863 1203 q 931 1142 917 1168 q 954 1086 944 1117 q 1122 1090 1040 1090 q 1272 1051 1217 1090 q 1354 947 1326 1011 q 1390 810 1382 883 q 1398 666 1399 736 q 1397 544 1397 596 q 1413 415 1397 463 q 1453 343 1428 367 q 1508 308 1479 319 q 1522 235 1518 279 q 1524 142 1525 190 q 1517 50 1524 94 q 1499 -24 1510 6 q 1362 -10 1442 -18 q 1169 -1 1282 -1 q 952 -10 1054 -1 q 793 -24 850 -18 q 783 50 788 6 q 778 142 779 94 q 778 235 776 190 q 783 308 779 279 l 822 308 l 822 378 l 701 378 l 701 308 l 740 308 q 748 235 746 279 q 749 142 750 190 q 743 50 747 94 q 731 -24 739 6 q 651 -15 693 -19 q 552 -6 608 -10 q 414 -1 496 -1 q 192 -9 285 -1 q 38 -24 99 -17 m 711 582 l 811 582 l 811 647 l 711 647 l 711 582 z "},"Ả":{"ha":1536,"x_min":11,"x_max":1525,"o":"m 38 -24 q 19 50 26 6 q 12 142 13 94 q 15 235 11 190 q 28 308 18 279 q 97 349 72 318 q 132 426 121 381 q 150 519 143 471 q 161 619 158 571 q 151 700 164 667 q 94 740 138 733 q 76 808 82 765 q 72 901 71 851 q 79 997 72 950 q 100 1076 86 1043 q 204 1068 144 1072 q 356 1063 264 1064 q 367 932 354 994 q 397 846 379 869 q 474 843 440 851 q 532 817 507 835 q 485 877 517 861 q 418 888 454 893 q 403 957 408 915 q 399 1044 399 999 q 404 1128 399 1089 q 419 1189 410 1167 q 592 1206 507 1194 q 782 1217 676 1217 q 935 1183 876 1217 q 1015 1089 993 1149 q 1069 1090 1043 1089 q 1122 1090 1096 1090 q 1272 1051 1217 1090 q 1354 947 1326 1011 q 1390 810 1382 883 q 1398 666 1399 736 q 1397 544 1397 596 q 1413 415 1397 463 q 1453 343 1428 367 q 1508 308 1479 319 q 1522 235 1518 279 q 1524 142 1525 190 q 1517 50 1524 94 q 1499 -24 1510 6 q 1362 -10 1442 -18 q 1169 -1 1282 -1 q 952 -10 1054 -1 q 793 -24 850 -18 q 783 50 788 6 q 778 142 779 94 q 778 235 776 190 q 783 308 779 279 l 822 308 l 822 378 l 701 378 l 701 308 l 740 308 q 748 235 746 279 q 749 142 750 190 q 743 50 747 94 q 731 -24 739 6 q 651 -15 693 -19 q 552 -6 608 -10 q 414 -1 496 -1 q 192 -9 285 -1 q 38 -24 99 -17 m 711 582 l 811 582 l 811 647 l 711 647 l 711 582 z "},"Ȃ":{"ha":1536,"x_min":11,"x_max":1525,"o":"m 38 -24 q 19 50 26 6 q 12 142 13 94 q 15 235 11 190 q 28 308 18 279 q 97 349 72 318 q 132 426 121 381 q 150 519 143 471 q 161 619 158 571 q 151 700 164 667 q 94 740 138 733 q 76 808 82 765 q 72 901 71 851 q 79 997 72 950 q 100 1076 86 1043 q 203 1068 144 1072 q 350 1061 263 1064 q 318 914 317 993 q 358 764 319 835 q 380 1001 338 900 q 525 1159 422 1103 q 783 1215 628 1215 q 960 1181 882 1215 q 1089 1090 1038 1147 l 1122 1090 q 1272 1051 1217 1090 q 1354 947 1326 1011 q 1390 810 1382 883 q 1398 666 1399 736 q 1397 544 1397 596 q 1413 415 1397 463 q 1453 343 1428 367 q 1508 308 1479 319 q 1522 235 1518 279 q 1524 142 1525 190 q 1517 50 1524 94 q 1499 -24 1510 6 q 1362 -10 1442 -18 q 1169 -1 1282 -1 q 952 -10 1054 -1 q 793 -24 850 -18 q 783 50 788 6 q 778 142 779 94 q 778 235 776 190 q 783 308 779 279 l 822 308 l 822 378 l 701 378 l 701 308 l 740 308 q 748 235 746 279 q 749 142 750 190 q 743 50 747 94 q 731 -24 739 6 q 651 -15 693 -19 q 552 -6 608 -10 q 414 -1 496 -1 q 192 -9 285 -1 q 38 -24 99 -17 m 724 582 l 799 582 l 799 675 l 724 675 l 724 582 z "},"Ā":{"ha":1536,"x_min":11,"x_max":1525,"o":"m 38 -24 q 19 50 26 6 q 12 142 13 94 q 15 235 11 190 q 28 308 18 279 q 97 349 72 318 q 132 426 121 381 q 150 519 143 471 q 161 619 158 571 q 151 700 164 667 q 94 740 138 733 q 76 808 82 765 q 72 901 71 851 q 79 997 72 950 q 100 1076 86 1043 q 201 1068 147 1072 q 301 1063 256 1064 q 307 973 301 1028 q 326 862 313 918 q 364 767 340 806 q 357 822 360 782 q 353 913 354 861 q 352 1019 351 965 q 356 1118 353 1074 q 364 1186 358 1163 q 529 1178 435 1181 q 726 1176 624 1176 q 925 1178 829 1176 q 1092 1186 1021 1181 q 1099 1146 1096 1172 q 1103 1090 1101 1119 l 1122 1090 q 1272 1051 1217 1090 q 1354 947 1326 1011 q 1390 810 1382 883 q 1398 666 1399 736 q 1397 544 1397 596 q 1413 415 1397 463 q 1453 343 1428 367 q 1508 308 1479 319 q 1522 235 1518 279 q 1524 142 1525 190 q 1517 50 1524 94 q 1499 -24 1510 6 q 1362 -10 1442 -18 q 1169 -1 1282 -1 q 952 -10 1054 -1 q 793 -24 850 -18 q 783 50 788 6 q 778 142 779 94 q 778 235 776 190 q 783 308 779 279 l 822 308 l 822 378 l 701 378 l 701 308 l 740 308 q 748 235 746 279 q 749 142 750 190 q 743 50 747 94 q 731 -24 739 6 q 651 -15 693 -19 q 552 -6 608 -10 q 414 -1 496 -1 q 192 -9 285 -1 q 38 -24 99 -17 m 711 582 l 811 582 l 811 647 l 711 647 l 711 582 z "},"Ą":{"ha":1536,"x_min":11,"x_max":1526,"o":"m 1147 -235 q 958 -195 1017 -235 q 900 -74 900 -156 q 917 4 900 -37 q 843 30 869 6 q 806 119 817 54 q 794 308 794 185 l 794 378 l 731 378 l 731 308 l 758 308 q 766 235 764 279 q 767 142 768 190 q 761 50 765 94 q 749 -24 757 6 q 613 -10 690 -18 q 414 -1 536 -1 q 192 -9 285 -1 q 38 -24 99 -17 q 19 50 26 6 q 12 142 13 94 q 15 235 11 190 q 28 308 18 279 q 97 349 72 318 q 132 426 121 381 q 150 519 143 471 q 161 619 158 571 q 151 700 164 667 q 94 740 138 733 q 76 808 82 765 q 72 901 71 851 q 79 997 72 950 q 100 1076 86 1043 q 240 1066 157 1071 q 463 1061 324 1061 q 667 1069 557 1061 q 894 1083 778 1076 q 1122 1090 1011 1090 q 1272 1051 1217 1090 q 1354 947 1326 1011 q 1390 810 1382 883 q 1398 666 1399 736 q 1397 544 1397 596 q 1413 415 1397 463 q 1453 343 1428 367 q 1508 308 1479 319 q 1522 193 1518 264 q 1525 43 1526 122 q 1517 -106 1524 -36 q 1500 -221 1511 -176 q 1388 -219 1439 -215 q 1281 -229 1336 -224 q 1147 -235 1225 -235 m 711 582 l 811 582 l 811 647 l 711 647 l 711 582 z "},"Å":{"ha":1536,"x_min":11,"x_max":1525,"o":"m 38 -24 q 19 50 26 6 q 12 142 13 94 q 15 235 11 190 q 28 308 18 279 q 97 349 72 318 q 132 426 121 381 q 150 519 143 471 q 161 619 158 571 q 151 700 164 667 q 94 740 138 733 q 76 808 82 765 q 72 901 71 851 q 79 997 72 950 q 100 1076 86 1043 q 219 1067 150 1071 q 399 1061 289 1064 q 419 876 375 947 q 544 785 464 804 q 470 869 499 818 q 442 982 442 919 q 469 1092 442 1039 q 560 1181 496 1146 q 732 1217 624 1217 q 913 1185 843 1217 q 1019 1089 983 1153 q 1072 1090 1046 1089 q 1122 1090 1097 1090 q 1272 1051 1217 1090 q 1354 947 1326 1011 q 1390 810 1382 883 q 1398 666 1399 736 q 1397 544 1397 596 q 1413 415 1397 463 q 1453 343 1428 367 q 1508 308 1479 319 q 1522 235 1518 279 q 1524 142 1525 190 q 1517 50 1524 94 q 1499 -24 1510 6 q 1362 -10 1442 -18 q 1169 -1 1282 -1 q 952 -10 1054 -1 q 793 -24 850 -18 q 783 50 788 6 q 778 142 779 94 q 778 235 776 190 q 783 308 779 279 l 822 308 l 822 378 l 701 378 l 701 308 l 740 308 q 748 235 746 279 q 749 142 750 190 q 743 50 747 94 q 731 -24 739 6 q 651 -15 693 -19 q 552 -6 608 -10 q 414 -1 496 -1 q 192 -9 285 -1 q 38 -24 99 -17 m 729 928 l 774 928 l 774 1033 l 729 1033 l 729 928 m 711 582 l 811 582 l 811 647 l 711 647 l 711 582 z "},"Ǻ":{"ha":1536,"x_min":11,"x_max":1525,"o":"m 38 -24 q 19 50 26 6 q 12 142 13 94 q 15 235 11 190 q 28 308 18 279 q 97 349 72 318 q 132 426 121 381 q 150 519 143 471 q 161 619 158 571 q 151 700 164 667 q 94 740 138 733 q 76 808 82 765 q 72 901 71 851 q 79 997 72 950 q 100 1076 86 1043 q 219 1067 150 1071 q 399 1061 289 1064 q 419 876 375 947 q 544 785 464 804 q 470 869 499 818 q 442 982 442 919 q 472 1092 442 1039 q 565 1181 501 1146 q 725 1217 628 1217 q 712 1160 719 1196 q 726 1074 704 1125 q 757 1177 736 1129 q 800 1256 778 1225 q 889 1280 840 1272 q 989 1288 938 1288 q 1131 1274 1061 1288 q 1253 1238 1200 1261 q 1331 1185 1307 1215 q 1312 1115 1325 1150 q 1279 1044 1299 1079 q 1358 942 1332 1006 q 1391 806 1383 878 q 1398 664 1399 733 q 1397 544 1397 594 q 1413 415 1397 463 q 1453 343 1428 367 q 1508 308 1479 319 q 1522 235 1518 279 q 1524 142 1525 190 q 1517 50 1524 94 q 1499 -24 1510 6 q 1362 -10 1442 -18 q 1169 -1 1282 -1 q 952 -10 1054 -1 q 793 -24 850 -18 q 783 50 788 6 q 778 142 779 94 q 778 235 776 190 q 783 308 779 279 l 822 308 l 822 378 l 701 378 l 701 308 l 740 308 q 748 235 746 279 q 749 142 750 190 q 743 50 747 94 q 731 -24 739 6 q 651 -15 693 -19 q 552 -6 608 -10 q 414 -1 496 -1 q 192 -9 285 -1 q 38 -24 99 -17 m 675 928 l 719 928 l 719 1033 l 675 1033 l 675 928 m 711 582 l 811 582 l 811 647 l 711 647 l 711 582 z "},"Ã":{"ha":1536,"x_min":11,"x_max":1525,"o":"m 38 -24 q 19 50 26 6 q 12 142 13 94 q 15 235 11 190 q 28 308 18 279 q 97 349 72 318 q 132 426 121 381 q 150 519 143 471 q 161 619 158 571 q 151 700 164 667 q 94 740 138 733 q 76 808 82 765 q 72 901 71 851 q 79 997 72 950 q 100 1076 86 1043 q 179 1071 136 1074 q 282 1065 222 1068 q 269 910 263 985 q 297 800 275 835 q 360 1094 301 1007 q 532 1182 418 1182 q 624 1172 582 1182 q 706 1151 667 1161 q 779 1140 744 1140 q 842 1153 817 1140 q 881 1188 867 1165 q 956 1183 910 1188 q 1046 1169 1001 1178 q 1114 1149 1090 1161 q 1114 1119 1114 1133 q 1113 1090 1114 1104 l 1122 1090 q 1272 1051 1217 1090 q 1354 947 1326 1011 q 1390 810 1382 883 q 1398 666 1399 736 q 1397 544 1397 596 q 1413 415 1397 463 q 1453 343 1428 367 q 1508 308 1479 319 q 1522 235 1518 279 q 1524 142 1525 190 q 1517 50 1524 94 q 1499 -24 1510 6 q 1362 -10 1442 -18 q 1169 -1 1282 -1 q 952 -10 1054 -1 q 793 -24 850 -18 q 783 50 788 6 q 778 142 779 94 q 778 235 776 190 q 783 308 779 279 l 822 308 l 822 378 l 701 378 l 701 308 l 740 308 q 748 235 746 279 q 749 142 750 190 q 743 50 747 94 q 731 -24 739 6 q 651 -15 693 -19 q 552 -6 608 -10 q 414 -1 496 -1 q 192 -9 285 -1 q 38 -24 99 -17 m 711 582 l 811 582 l 811 647 l 711 647 l 711 582 z "},"Æ":{"ha":2054,"x_min":11,"x_max":2043,"o":"m 793 -25 q 783 49 788 4 q 778 142 779 93 q 778 235 776 190 q 783 308 779 279 l 822 308 l 822 378 l 701 378 l 701 308 l 740 308 q 748 235 746 279 q 749 142 750 190 q 743 50 747 94 q 731 -24 739 6 q 651 -15 693 -19 q 552 -6 608 -10 q 414 -1 496 -1 q 192 -9 285 -1 q 38 -24 99 -17 q 19 50 26 6 q 12 142 13 94 q 15 235 11 190 q 28 308 18 279 q 97 349 72 318 q 132 426 121 381 q 150 519 143 471 q 161 619 158 571 q 151 700 164 667 q 94 740 138 733 q 76 808 82 765 q 72 901 71 851 q 79 997 72 950 q 100 1076 86 1043 q 456 1062 267 1064 q 869 1060 646 1060 q 1210 1063 1043 1060 q 1529 1069 1378 1065 q 1806 1075 1681 1072 q 2018 1078 1931 1078 q 2031 1001 2025 1051 q 2039 890 2036 951 q 2042 767 2042 829 q 2038 652 2042 704 q 2025 571 2033 600 q 1881 560 1960 563 q 1720 560 1801 557 q 1567 571 1639 563 q 1567 700 1550 636 l 1406 700 l 1406 642 l 1535 642 l 1535 449 l 1404 449 l 1404 389 l 1567 389 q 1567 519 1550 454 q 1806 526 1683 526 q 2033 519 1928 526 q 2040 440 2038 494 q 2043 316 2043 385 q 2041 178 2043 247 q 2035 54 2039 108 q 2024 -24 2031 0 q 1707 -12 1878 -21 q 1372 -3 1536 -3 q 1213 -5 1300 -3 q 1040 -10 1125 -7 q 890 -18 956 -14 q 793 -25 824 -22 m 711 582 l 811 582 l 811 647 l 711 647 l 711 582 z "},"Ǽ":{"ha":2054,"x_min":11,"x_max":2043,"o":"m 793 -25 q 783 49 788 4 q 778 142 779 93 q 778 235 776 190 q 783 308 779 279 l 822 308 l 822 378 l 701 378 l 701 308 l 740 308 q 748 235 746 279 q 749 142 750 190 q 743 50 747 94 q 731 -24 739 6 q 651 -15 693 -19 q 552 -6 608 -10 q 414 -1 496 -1 q 192 -9 285 -1 q 38 -24 99 -17 q 19 50 26 6 q 12 142 13 94 q 15 235 11 190 q 28 308 18 279 q 97 349 72 318 q 132 426 121 381 q 150 519 143 471 q 161 619 158 571 q 151 700 164 667 q 94 740 138 733 q 76 808 82 765 q 72 901 71 851 q 79 997 72 950 q 100 1076 86 1043 q 387 1063 236 1067 q 708 1060 538 1060 q 694 967 697 1019 q 709 867 692 915 q 776 790 726 819 q 743 908 749 842 q 758 1048 738 975 q 825 1186 778 1121 q 914 1210 865 1203 q 1014 1218 963 1218 q 1156 1205 1086 1218 q 1278 1169 1225 1192 q 1356 1115 1332 1146 q 1351 1092 1354 1106 q 1343 1064 1347 1079 q 1728 1072 1553 1068 q 2018 1078 1904 1076 q 2031 1001 2025 1051 q 2039 890 2036 951 q 2042 767 2042 829 q 2038 652 2042 704 q 2025 571 2033 600 q 1881 560 1960 563 q 1720 560 1801 557 q 1567 571 1639 563 q 1567 700 1550 636 l 1406 700 l 1406 642 l 1535 642 l 1535 449 l 1404 449 l 1404 389 l 1567 389 q 1567 519 1550 454 q 1806 526 1683 526 q 2033 519 1928 526 q 2040 440 2038 494 q 2043 316 2043 385 q 2041 178 2043 247 q 2035 54 2039 108 q 2024 -24 2031 0 q 1707 -12 1878 -21 q 1372 -3 1536 -3 q 1213 -5 1300 -3 q 1040 -10 1125 -7 q 890 -18 956 -14 q 793 -25 824 -22 m 711 582 l 811 582 l 811 647 l 711 647 l 711 582 z "},"B":{"ha":1457,"x_min":8,"x_max":1446,"o":"m 892 -32 q 670 -28 769 -32 q 476 -19 571 -24 q 278 -14 382 -14 q 43 -22 174 -14 q 26 51 32 7 q 18 143 19 94 q 21 235 17 192 q 35 308 25 279 q 78 337 57 317 q 113 402 99 357 q 126 529 126 447 q 110 663 126 618 q 73 724 94 708 q 35 740 51 740 q 13 844 18 782 q 15 972 8 907 q 40 1081 21 1036 q 259 1074 157 1075 q 458 1076 361 1074 q 653 1082 554 1079 q 865 1085 753 1085 q 1083 1074 985 1085 q 1255 1032 1182 1064 q 1367 938 1328 1000 q 1407 771 1407 875 q 1379 653 1407 708 q 1304 550 1351 597 q 1416 441 1386 501 q 1446 311 1446 381 q 1421 169 1446 232 q 1334 60 1396 106 q 1165 -8 1272 15 q 892 -32 1057 -32 m 699 625 l 801 625 l 801 700 l 699 700 l 699 625 m 699 364 l 813 364 l 813 443 l 699 443 l 699 364 z "},"C":{"ha":1401,"x_min":14,"x_max":1389,"o":"m 725 -49 q 314 25 471 -49 q 85 231 157 99 q 14 539 14 364 q 83 844 14 718 q 276 1038 153 971 q 558 1104 399 1104 q 746 1082 668 1104 q 866 1006 824 1060 q 910 856 908 951 q 924 963 929 908 q 914 1074 919 1018 q 1065 1077 981 1075 q 1231 1082 1150 1079 q 1367 1085 1311 1085 q 1382 977 1376 1042 q 1388 839 1388 913 q 1385 694 1389 765 q 1371 568 1381 624 q 1263 557 1328 561 q 1122 552 1197 553 q 972 552 1046 551 q 835 557 897 553 q 732 568 772 561 l 731 625 l 657 625 l 657 446 l 731 446 l 731 511 q 1048 519 892 519 q 1381 511 1204 519 q 1305 197 1374 321 q 1094 12 1236 72 q 725 -49 953 -49 z "},"Ć":{"ha":1401,"x_min":14,"x_max":1389,"o":"m 725 -49 q 314 25 471 -49 q 85 231 157 99 q 14 539 14 364 q 122 902 14 761 q 414 1086 229 1043 q 397 1028 406 1064 q 388 949 389 992 q 397 863 386 906 q 438 787 408 821 q 522 733 468 753 q 451 853 469 776 q 449 1018 432 929 q 524 1186 467 1107 q 613 1210 564 1203 q 713 1218 661 1218 q 854 1205 785 1218 q 977 1169 924 1192 q 1054 1115 1031 1146 q 1050 1097 1053 1107 q 1044 1076 1047 1088 q 1218 1082 1131 1079 q 1367 1085 1306 1085 q 1382 977 1376 1042 q 1388 839 1388 913 q 1385 694 1389 765 q 1371 568 1381 624 q 1263 557 1328 561 q 1122 552 1197 553 q 972 552 1046 551 q 835 557 897 553 q 732 568 772 561 l 731 625 l 657 625 l 657 446 l 731 446 l 731 511 q 1048 519 892 519 q 1381 511 1204 519 q 1305 197 1374 321 q 1094 12 1236 72 q 725 -49 953 -49 z "},"Č":{"ha":1401,"x_min":14,"x_max":1389,"o":"m 725 -49 q 314 25 471 -49 q 85 231 157 99 q 14 539 14 364 q 83 838 14 714 q 285 1031 153 963 q 324 910 292 968 q 403 810 357 851 q 496 754 450 769 q 406 867 449 797 q 342 1019 364 938 q 332 1176 321 1100 q 401 1197 357 1189 q 492 1210 446 1206 q 565 1215 538 1215 q 634 1187 596 1207 q 707 1140 672 1167 q 670 1103 689 1122 q 632 1063 651 1083 l 667 1039 q 785 1153 724 1104 q 901 1215 846 1201 q 982 1210 933 1215 q 1078 1197 1031 1206 q 1149 1176 1125 1189 q 1152 1128 1153 1153 q 1149 1079 1151 1104 q 1267 1083 1210 1082 q 1367 1085 1324 1085 q 1382 977 1376 1042 q 1388 839 1388 913 q 1385 694 1389 765 q 1371 568 1381 624 q 1263 557 1328 561 q 1122 552 1197 553 q 972 552 1046 551 q 835 557 897 553 q 732 568 772 561 l 731 625 l 657 625 l 657 446 l 731 446 l 731 511 q 1048 519 892 519 q 1381 511 1204 519 q 1305 197 1374 321 q 1094 12 1236 72 q 725 -49 953 -49 z "},"Ç":{"ha":1401,"x_min":14,"x_max":1389,"o":"m 632 -239 q 333 -208 438 -239 q 378 -140 353 -181 q 424 -47 404 -99 q 442 66 443 6 q 407 193 442 126 q 378 1 422 76 q 100 207 186 67 q 14 539 14 347 q 83 844 14 718 q 276 1038 153 971 q 558 1104 399 1104 q 746 1082 668 1104 q 866 1006 824 1060 q 910 856 908 951 q 924 963 929 908 q 914 1074 919 1018 q 1065 1077 981 1075 q 1231 1082 1150 1079 q 1367 1085 1311 1085 q 1382 977 1376 1042 q 1388 839 1388 913 q 1385 694 1389 765 q 1371 568 1381 624 q 1263 557 1328 561 q 1122 552 1197 553 q 972 552 1046 551 q 835 557 897 553 q 732 568 772 561 l 731 625 l 657 625 l 657 446 l 731 446 l 731 511 q 1048 519 892 519 q 1381 511 1204 519 q 1283 160 1372 292 q 999 -19 1193 29 q 894 -192 986 -146 q 632 -239 801 -239 z "},"Ĉ":{"ha":1401,"x_min":14,"x_max":1389,"o":"m 725 -49 q 314 25 471 -49 q 85 231 157 99 q 14 539 14 364 q 81 839 14 714 q 265 1032 149 964 q 251 941 257 992 q 250 846 246 890 q 271 776 254 801 q 338 1035 283 921 q 471 1204 392 1150 q 568 1213 511 1211 q 685 1215 625 1215 q 805 1213 749 1215 q 890 1204 861 1210 q 1010 1075 954 1160 q 1138 1080 1072 1078 q 1263 1083 1203 1082 q 1367 1085 1324 1085 q 1382 977 1376 1042 q 1388 839 1388 913 q 1385 694 1389 765 q 1371 568 1381 624 q 1263 557 1328 561 q 1122 552 1197 553 q 972 552 1046 551 q 835 557 897 553 q 732 568 772 561 l 731 625 l 657 625 l 657 446 l 731 446 l 731 511 q 1048 519 892 519 q 1381 511 1204 519 q 1305 197 1374 321 q 1094 12 1236 72 q 725 -49 953 -49 z "},"Ċ":{"ha":1401,"x_min":14,"x_max":1389,"o":"m 725 -49 q 314 25 471 -49 q 85 231 157 99 q 14 539 14 364 q 60 787 14 679 q 188 968 106 894 q 376 1076 269 1042 q 381 902 351 975 q 472 790 410 829 q 608 747 533 750 q 481 834 532 771 q 429 982 429 897 q 458 1092 429 1039 q 552 1181 488 1146 q 719 1217 617 1217 q 903 1181 831 1217 q 1013 1075 975 1144 q 1199 1081 1103 1078 q 1367 1085 1294 1085 q 1382 977 1376 1042 q 1388 839 1388 913 q 1385 694 1389 765 q 1371 568 1381 624 q 1263 557 1328 561 q 1122 552 1197 553 q 972 552 1046 551 q 835 557 897 553 q 732 568 772 561 l 731 625 l 657 625 l 657 446 l 731 446 l 731 511 q 1048 519 892 519 q 1381 511 1204 519 q 1305 197 1374 321 q 1094 12 1236 72 q 725 -49 953 -49 z "},"D":{"ha":1407,"x_min":8,"x_max":1393,"o":"m 729 -33 q 535 -30 618 -33 q 378 -23 451 -26 q 225 -19 304 -19 q 43 -22 146 -18 q 25 51 32 7 q 17 143 18 94 q 20 235 17 192 q 33 308 24 279 q 83 340 63 317 q 115 411 104 363 q 126 543 126 460 q 113 664 126 622 q 79 722 100 706 q 33 743 58 739 q 14 845 19 783 q 15 972 8 907 q 39 1082 21 1036 q 208 1074 128 1074 q 372 1077 288 1074 q 557 1084 457 1081 q 786 1088 657 1088 q 1237 965 1081 1088 q 1393 574 1393 843 q 1377 395 1393 483 q 1320 230 1361 307 q 1204 94 1279 153 q 1013 1 1129 35 q 729 -33 897 -33 m 667 446 l 751 446 l 751 625 l 667 625 l 667 446 z "},"Ǆ":{"ha":2761,"x_min":8,"x_max":2747,"o":"m 729 -33 q 535 -30 618 -33 q 378 -23 451 -26 q 225 -19 304 -19 q 43 -22 146 -18 q 25 51 32 7 q 17 143 18 94 q 20 235 17 192 q 33 308 24 279 q 83 340 63 317 q 115 411 104 363 q 126 543 126 460 q 113 664 126 622 q 79 722 100 706 q 33 743 58 739 q 14 845 19 783 q 15 972 8 907 q 39 1082 21 1036 q 208 1074 128 1074 q 372 1077 288 1074 q 557 1084 457 1081 q 786 1088 657 1088 q 1237 965 1081 1088 q 1393 574 1393 843 q 1377 395 1393 483 q 1320 230 1361 307 q 1204 94 1279 153 q 1013 1 1129 35 q 729 -33 897 -33 m 667 446 l 751 446 l 751 625 l 667 625 l 667 446 m 1447 -24 q 1429 52 1436 6 q 1422 149 1422 99 q 1424 247 1421 200 q 1438 322 1428 293 q 1515 351 1472 335 q 1602 399 1557 368 q 1690 488 1647 431 q 1771 640 1733 546 l 1733 657 q 1630 503 1694 563 q 1446 428 1565 443 q 1426 616 1432 517 q 1420 808 1419 715 q 1427 973 1421 901 q 1442 1078 1433 1044 q 1557 1074 1501 1075 q 1667 1069 1613 1072 q 1693 959 1667 1018 q 1763 850 1719 900 q 1857 778 1806 800 q 1778 892 1814 825 q 1724 1033 1742 958 q 1717 1176 1706 1107 q 1786 1197 1742 1189 q 1876 1210 1831 1206 q 1950 1215 1922 1215 q 2019 1187 1981 1207 q 2092 1140 2057 1167 q 2055 1103 2074 1122 q 2017 1063 2036 1083 l 2051 1039 q 2169 1153 2108 1104 q 2286 1215 2231 1201 q 2367 1210 2318 1215 q 2463 1197 2415 1206 q 2533 1176 2510 1189 q 2537 1123 2538 1150 q 2532 1068 2536 1096 q 2642 1073 2594 1071 q 2715 1076 2690 1075 q 2736 994 2729 1043 q 2744 894 2743 946 q 2739 797 2744 842 q 2721 726 2733 751 q 2522 592 2606 700 q 2385 281 2438 483 l 2426 271 q 2492 451 2454 372 q 2588 575 2531 531 q 2731 614 2646 619 q 2743 484 2739 557 q 2747 333 2747 411 q 2744 184 2747 256 q 2736 58 2742 113 q 2724 -24 2731 3 q 2524 -17 2618 -22 q 2331 -8 2431 -12 q 2106 -3 2231 -3 q 1674 -10 1833 -3 q 1447 -24 1514 -17 z "},"Ð":{"ha":1407,"x_min":8,"x_max":1393,"o":"m 729 -33 q 535 -30 618 -33 q 378 -23 451 -26 q 225 -19 304 -19 q 43 -22 146 -18 q 25 51 32 7 q 17 143 18 94 q 20 235 17 192 q 33 308 24 279 q 82 333 61 315 q 115 385 103 350 l 32 385 q 17 449 22 408 q 11 535 11 489 q 17 623 11 582 q 32 686 22 664 l 256 686 q 177 715 221 704 q 94 732 133 725 q 33 743 56 739 q 14 845 19 783 q 15 972 8 907 q 39 1082 21 1036 q 208 1074 128 1074 q 372 1077 288 1074 q 557 1084 457 1081 q 786 1088 657 1088 q 1237 965 1081 1088 q 1393 574 1393 843 q 1377 395 1393 483 q 1320 230 1361 307 q 1204 94 1279 153 q 1013 1 1129 35 q 729 -33 897 -33 m 667 400 l 751 400 l 751 671 l 667 671 l 667 613 l 724 613 l 724 457 l 667 457 l 667 400 z "},"Ď":{"ha":1407,"x_min":8,"x_max":1393,"o":"m 729 -33 q 535 -30 618 -33 q 378 -23 451 -26 q 225 -19 304 -19 q 43 -22 146 -18 q 25 51 32 7 q 17 143 18 94 q 20 235 17 192 q 33 308 24 279 q 83 340 63 317 q 115 411 104 363 q 126 543 126 460 q 113 664 126 622 q 79 722 100 706 q 33 743 58 739 q 14 845 19 783 q 15 972 8 907 q 39 1082 21 1036 q 226 1074 138 1074 q 240 994 225 1039 q 282 906 254 950 q 345 826 310 861 q 421 774 381 790 q 341 888 378 821 q 285 1030 304 954 q 278 1176 267 1106 q 347 1197 303 1189 q 438 1210 392 1206 q 511 1215 483 1215 q 580 1187 542 1207 q 653 1140 618 1167 q 616 1103 635 1122 q 578 1063 597 1083 l 613 1039 q 731 1153 669 1104 q 847 1215 792 1201 q 928 1210 879 1215 q 1024 1197 976 1206 q 1094 1176 1071 1189 q 1098 1112 1100 1146 q 1089 1044 1096 1078 q 1315 878 1238 993 q 1393 574 1393 763 q 1377 395 1393 483 q 1320 230 1361 307 q 1204 94 1279 153 q 1013 1 1129 35 q 729 -33 897 -33 m 667 446 l 751 446 l 751 625 l 667 625 l 667 446 z "},"Đ":{"ha":1407,"x_min":8,"x_max":1393,"o":"m 729 -33 q 535 -30 618 -33 q 378 -23 451 -26 q 225 -19 304 -19 q 43 -22 146 -18 q 25 51 32 7 q 17 143 18 94 q 20 235 17 192 q 33 308 24 279 q 82 333 61 315 q 115 385 103 350 l 32 385 q 17 449 22 408 q 11 535 11 489 q 17 623 11 582 q 32 686 22 664 l 256 686 q 177 715 221 704 q 94 732 133 725 q 33 743 56 739 q 14 845 19 783 q 15 972 8 907 q 39 1082 21 1036 q 208 1074 128 1074 q 372 1077 288 1074 q 557 1084 457 1081 q 786 1088 657 1088 q 1237 965 1081 1088 q 1393 574 1393 843 q 1377 395 1393 483 q 1320 230 1361 307 q 1204 94 1279 153 q 1013 1 1129 35 q 729 -33 897 -33 m 667 400 l 751 400 l 751 671 l 667 671 l 667 613 l 724 613 l 724 457 l 667 457 l 667 400 z "},"ǅ":{"ha":2647,"x_min":8,"x_max":2636,"o":"m 729 -33 q 535 -30 618 -33 q 378 -23 451 -26 q 225 -19 304 -19 q 43 -22 146 -18 q 25 51 32 7 q 17 143 18 94 q 20 235 17 192 q 33 308 24 279 q 83 340 63 317 q 115 411 104 363 q 126 543 126 460 q 113 664 126 622 q 79 722 100 706 q 33 743 58 739 q 14 845 19 783 q 15 972 8 907 q 39 1082 21 1036 q 208 1074 128 1074 q 372 1077 288 1074 q 557 1084 457 1081 q 786 1088 657 1088 q 1237 965 1081 1088 q 1393 574 1393 843 q 1377 395 1393 483 q 1320 230 1361 307 q 1204 94 1279 153 q 1013 1 1129 35 q 729 -33 897 -33 m 667 446 l 751 446 l 751 625 l 667 625 l 667 446 m 1444 -24 q 1428 47 1433 4 q 1421 136 1422 89 q 1424 228 1419 183 q 1438 303 1428 272 q 1492 322 1457 311 q 1571 360 1526 333 q 1662 435 1615 386 q 1750 567 1708 483 l 1715 585 q 1612 461 1675 507 q 1446 413 1549 415 q 1426 572 1432 486 q 1419 742 1419 658 q 1425 890 1419 825 q 1439 986 1431 956 q 1517 983 1479 985 q 1594 979 1556 981 q 1656 865 1611 915 q 1757 790 1701 814 q 1683 902 1717 838 q 1634 1038 1650 967 q 1628 1176 1618 1110 q 1697 1197 1653 1189 q 1788 1210 1742 1206 q 1861 1215 1833 1215 q 1930 1187 1892 1207 q 2003 1140 1968 1167 q 1966 1103 1985 1122 q 1928 1063 1947 1083 l 1963 1039 q 2081 1153 2019 1104 q 2197 1215 2142 1201 q 2278 1210 2229 1215 q 2374 1197 2326 1206 q 2444 1176 2421 1189 q 2444 1078 2451 1129 q 2419 978 2438 1026 q 2531 983 2482 981 q 2606 990 2581 986 q 2624 911 2618 958 q 2631 815 2631 864 q 2625 723 2631 765 q 2608 657 2619 681 q 2542 630 2582 649 q 2457 570 2503 611 q 2365 456 2411 529 q 2282 268 2319 383 l 2321 257 q 2361 360 2338 307 q 2419 457 2385 413 q 2503 531 2454 501 q 2619 561 2553 560 q 2633 403 2629 492 q 2635 229 2636 315 q 2628 75 2633 143 q 2614 -24 2622 7 q 2431 -17 2517 -22 q 2253 -8 2344 -12 q 2047 -4 2163 -4 q 1651 -11 1797 -4 q 1444 -24 1506 -18 z "},"E":{"ha":1361,"x_min":11,"x_max":1350,"o":"m 44 -24 q 26 50 33 6 q 19 142 19 94 q 22 235 18 190 q 35 308 25 279 q 78 337 57 317 q 113 402 99 357 q 126 529 126 447 q 110 663 126 618 q 73 724 94 708 q 35 740 51 740 q 17 808 22 765 q 12 901 11 851 q 19 997 13 950 q 40 1076 26 1043 q 113 1073 63 1075 q 231 1069 164 1071 q 372 1065 299 1067 q 517 1063 446 1064 q 646 1063 589 1063 q 970 1067 792 1063 q 1325 1078 1149 1071 q 1338 1001 1332 1051 q 1346 890 1343 951 q 1349 767 1349 829 q 1344 652 1349 704 q 1332 571 1340 600 q 1188 560 1267 563 q 1027 560 1108 557 q 874 571 946 563 q 874 700 857 636 l 713 700 l 713 642 l 842 642 l 842 449 l 711 449 l 711 389 l 874 389 q 874 519 857 454 q 1113 526 990 526 q 1340 519 1235 526 q 1347 440 1344 494 q 1350 316 1350 385 q 1348 178 1350 247 q 1342 54 1346 108 q 1331 -24 1338 0 q 1014 -12 1185 -21 q 679 -3 843 -3 q 492 -5 590 -3 q 303 -10 394 -7 q 144 -17 213 -14 q 44 -24 75 -21 z "},"É":{"ha":1361,"x_min":11,"x_max":1350,"o":"m 44 -24 q 26 50 33 6 q 19 142 19 94 q 22 235 18 190 q 35 308 25 279 q 78 337 57 317 q 113 402 99 357 q 126 529 126 447 q 110 663 126 618 q 73 724 94 708 q 35 740 51 740 q 17 808 22 765 q 12 901 11 851 q 19 997 13 950 q 40 1076 26 1043 q 121 1073 64 1075 q 253 1069 178 1071 q 403 1065 328 1067 q 385 979 390 1026 q 389 887 381 932 q 423 805 397 842 q 499 750 449 768 q 442 871 456 797 q 447 1028 428 944 q 518 1186 465 1111 q 607 1210 558 1203 q 707 1218 656 1218 q 849 1205 779 1218 q 972 1169 918 1192 q 1049 1115 1025 1146 q 1044 1094 1047 1106 q 1036 1068 1040 1082 q 1178 1073 1108 1071 q 1325 1078 1249 1075 q 1338 1001 1332 1051 q 1346 890 1343 951 q 1349 767 1349 829 q 1344 652 1349 704 q 1332 571 1340 600 q 1188 560 1267 563 q 1027 560 1108 557 q 874 571 946 563 q 874 700 857 636 l 713 700 l 713 642 l 842 642 l 842 449 l 711 449 l 711 389 l 874 389 q 874 519 857 454 q 1113 526 990 526 q 1340 519 1235 526 q 1347 440 1344 494 q 1350 316 1350 385 q 1348 178 1350 247 q 1342 54 1346 108 q 1331 -24 1338 0 q 1014 -12 1185 -21 q 679 -3 843 -3 q 492 -5 590 -3 q 303 -10 394 -7 q 144 -17 213 -14 q 44 -24 75 -21 z "},"Ĕ":{"ha":1361,"x_min":11,"x_max":1350,"o":"m 44 -24 q 26 50 33 6 q 19 142 19 94 q 22 235 18 190 q 35 308 25 279 q 78 337 57 317 q 113 402 99 357 q 126 529 126 447 q 110 663 126 618 q 73 724 94 708 q 35 740 51 740 q 17 808 22 765 q 12 901 11 851 q 19 997 13 950 q 40 1076 26 1043 q 112 1072 63 1075 q 221 1064 161 1069 q 281 897 231 969 q 421 800 332 825 q 299 961 338 861 q 279 1176 261 1061 q 351 1197 304 1189 q 447 1210 397 1206 q 526 1215 496 1215 q 694 1153 571 1153 q 863 1215 821 1153 q 938 1210 892 1215 q 1028 1197 983 1206 q 1096 1176 1072 1189 q 1101 1133 1100 1157 q 1104 1069 1103 1110 l 1325 1078 q 1338 1001 1332 1051 q 1346 890 1343 951 q 1349 767 1349 829 q 1344 652 1349 704 q 1332 571 1340 600 q 1188 560 1267 563 q 1027 560 1108 557 q 874 571 946 563 q 874 700 857 636 l 713 700 l 713 642 l 842 642 l 842 449 l 711 449 l 711 389 l 874 389 q 874 519 857 454 q 1113 526 990 526 q 1340 519 1235 526 q 1347 440 1344 494 q 1350 316 1350 385 q 1348 178 1350 247 q 1342 54 1346 108 q 1331 -24 1338 0 q 1014 -12 1185 -21 q 679 -3 843 -3 q 492 -5 590 -3 q 303 -10 394 -7 q 144 -17 213 -14 q 44 -24 75 -21 z "},"Ě":{"ha":1361,"x_min":11,"x_max":1350,"o":"m 44 -24 q 26 50 33 6 q 19 142 19 94 q 22 235 18 190 q 35 308 25 279 q 78 337 57 317 q 113 402 99 357 q 126 529 126 447 q 110 663 126 618 q 73 724 94 708 q 35 740 51 740 q 17 808 22 765 q 12 901 11 851 q 19 997 13 950 q 40 1076 26 1043 q 126 1073 65 1075 q 260 1068 186 1071 q 285 958 260 1017 q 353 849 311 899 q 447 778 396 800 q 368 892 404 825 q 314 1033 332 958 q 307 1176 296 1107 q 376 1197 332 1189 q 467 1210 421 1206 q 540 1215 513 1215 q 609 1187 571 1207 q 682 1140 647 1167 q 645 1103 664 1122 q 607 1063 626 1083 l 642 1039 q 760 1153 699 1104 q 876 1215 821 1201 q 957 1210 908 1215 q 1053 1197 1006 1206 q 1124 1176 1100 1189 q 1127 1124 1128 1150 q 1122 1071 1126 1099 q 1226 1074 1172 1072 q 1325 1078 1279 1076 q 1338 1001 1332 1051 q 1346 890 1343 951 q 1349 767 1349 829 q 1344 652 1349 704 q 1332 571 1340 600 q 1188 560 1267 563 q 1027 560 1108 557 q 874 571 946 563 q 874 700 857 636 l 713 700 l 713 642 l 842 642 l 842 449 l 711 449 l 711 389 l 874 389 q 874 519 857 454 q 1113 526 990 526 q 1340 519 1235 526 q 1347 440 1344 494 q 1350 316 1350 385 q 1348 178 1350 247 q 1342 54 1346 108 q 1331 -24 1338 0 q 1014 -12 1185 -21 q 679 -3 843 -3 q 492 -5 590 -3 q 303 -10 394 -7 q 144 -17 213 -14 q 44 -24 75 -21 z "},"Ê":{"ha":1361,"x_min":11,"x_max":1350,"o":"m 44 -24 q 26 50 33 6 q 19 142 19 94 q 22 235 18 190 q 35 308 25 279 q 78 337 57 317 q 113 402 99 357 q 126 529 126 447 q 110 663 126 618 q 73 724 94 708 q 35 740 51 740 q 17 808 22 765 q 12 901 11 851 q 19 997 13 950 q 40 1076 26 1043 q 104 1073 60 1075 q 206 1069 149 1071 q 321 1067 264 1068 q 289 972 299 1029 q 283 860 279 914 q 306 776 286 806 q 328 950 300 865 q 405 1101 357 1035 q 506 1204 453 1168 q 603 1213 546 1211 q 719 1215 661 1215 q 840 1213 783 1215 q 925 1204 896 1210 q 990 1147 957 1182 q 1049 1068 1022 1113 q 1197 1072 1125 1069 q 1325 1078 1268 1075 q 1338 1001 1332 1051 q 1346 890 1343 951 q 1349 767 1349 829 q 1344 652 1349 704 q 1332 571 1340 600 q 1188 560 1267 563 q 1027 560 1108 557 q 874 571 946 563 q 874 700 857 636 l 713 700 l 713 642 l 842 642 l 842 449 l 711 449 l 711 389 l 874 389 q 874 519 857 454 q 1113 526 990 526 q 1340 519 1235 526 q 1347 440 1344 494 q 1350 316 1350 385 q 1348 178 1350 247 q 1342 54 1346 108 q 1331 -24 1338 0 q 1014 -12 1185 -21 q 679 -3 843 -3 q 492 -5 590 -3 q 303 -10 394 -7 q 144 -17 213 -14 q 44 -24 75 -21 z "},"Ế":{"ha":1361,"x_min":11,"x_max":1350,"o":"m 44 -24 q 26 50 33 6 q 19 142 19 94 q 22 235 18 190 q 35 308 25 279 q 78 337 57 317 q 113 402 99 357 q 126 529 126 447 q 110 663 126 618 q 73 724 94 708 q 35 740 51 740 q 17 808 22 765 q 12 901 11 851 q 19 997 13 950 q 40 1076 26 1043 q 104 1073 60 1075 q 206 1069 149 1071 q 321 1067 264 1068 q 289 972 299 1029 q 283 860 279 914 q 306 776 286 806 q 328 950 300 865 q 405 1101 357 1035 q 506 1204 453 1168 q 579 1212 538 1210 q 667 1215 621 1214 q 657 1071 644 1135 q 715 971 669 1007 q 692 1087 689 1025 q 715 1203 694 1149 q 758 1290 735 1258 q 832 1311 792 1306 q 915 1317 872 1317 q 1033 1306 975 1317 q 1134 1276 1090 1294 q 1197 1232 1178 1257 q 1176 1162 1192 1199 q 1126 1069 1161 1125 l 1325 1078 q 1338 1001 1332 1051 q 1346 890 1343 951 q 1349 767 1349 829 q 1344 652 1349 704 q 1332 571 1340 600 q 1188 560 1267 563 q 1027 560 1108 557 q 874 571 946 563 q 874 700 857 636 l 713 700 l 713 642 l 842 642 l 842 449 l 711 449 l 711 389 l 874 389 q 874 519 857 454 q 1113 526 990 526 q 1340 519 1235 526 q 1347 440 1344 494 q 1350 316 1350 385 q 1348 178 1350 247 q 1342 54 1346 108 q 1331 -24 1338 0 q 1014 -12 1185 -21 q 679 -3 843 -3 q 492 -5 590 -3 q 303 -10 394 -7 q 144 -17 213 -14 q 44 -24 75 -21 z "},"Ệ":{"ha":1361,"x_min":11,"x_max":1350,"o":"m 708 -240 q 478 -169 557 -240 q 400 7 400 -99 q 431 120 400 64 q 535 210 463 176 q 434 172 474 207 q 375 89 394 138 q 353 -8 356 40 q 165 -15 249 -11 q 44 -24 81 -19 q 26 50 33 6 q 19 142 19 94 q 22 235 18 190 q 35 308 25 279 q 78 337 57 317 q 113 402 99 357 q 126 529 126 447 q 110 663 126 618 q 73 724 94 708 q 35 740 51 740 q 17 808 22 765 q 12 901 11 851 q 19 997 13 950 q 40 1076 26 1043 q 104 1073 60 1075 q 206 1069 149 1071 q 321 1067 264 1068 q 289 972 299 1029 q 283 860 279 914 q 306 776 286 806 q 328 950 300 865 q 405 1101 357 1035 q 506 1204 453 1168 q 603 1213 546 1211 q 719 1215 661 1215 q 840 1213 783 1215 q 925 1204 896 1210 q 990 1147 957 1182 q 1049 1068 1022 1113 q 1197 1072 1125 1069 q 1325 1078 1268 1075 q 1338 1001 1332 1051 q 1346 890 1343 951 q 1349 767 1349 829 q 1344 652 1349 704 q 1332 571 1340 600 q 1188 560 1267 563 q 1027 560 1108 557 q 874 571 946 563 q 874 700 857 636 l 713 700 l 713 642 l 842 642 l 842 449 l 711 449 l 711 389 l 874 389 q 874 519 857 454 q 1113 526 990 526 q 1340 519 1235 526 q 1347 440 1344 494 q 1350 316 1350 385 q 1348 178 1350 247 q 1342 54 1346 108 q 1331 -24 1338 0 q 1174 -19 1256 -22 q 1007 -12 1093 -15 q 976 -122 1006 -69 q 882 -208 947 -175 q 708 -240 817 -240 z "},"Ề":{"ha":1361,"x_min":11,"x_max":1350,"o":"m 44 -24 q 26 50 33 6 q 19 142 19 94 q 22 235 18 190 q 35 308 25 279 q 78 337 57 317 q 113 402 99 357 q 126 529 126 447 q 110 663 126 618 q 73 724 94 708 q 35 740 51 740 q 17 808 22 765 q 12 901 11 851 q 19 997 13 950 q 40 1076 26 1043 q 104 1073 60 1075 q 206 1069 149 1071 q 321 1067 264 1068 q 289 972 299 1029 q 283 860 279 914 q 306 776 286 806 q 328 950 300 865 q 405 1101 357 1035 q 506 1204 453 1168 q 579 1212 538 1210 q 667 1215 621 1214 q 738 1072 689 1135 q 864 985 788 1008 q 768 1103 811 1036 q 714 1239 725 1171 q 777 1283 733 1264 q 878 1313 821 1301 q 996 1324 936 1324 q 1079 1318 1039 1324 q 1153 1297 1119 1313 q 1201 1200 1179 1263 q 1219 1072 1222 1138 q 1274 1075 1247 1074 q 1325 1078 1301 1076 q 1338 1001 1332 1051 q 1346 890 1343 951 q 1349 767 1349 829 q 1344 652 1349 704 q 1332 571 1340 600 q 1188 560 1267 563 q 1027 560 1108 557 q 874 571 946 563 q 874 700 857 636 l 713 700 l 713 642 l 842 642 l 842 449 l 711 449 l 711 389 l 874 389 q 874 519 857 454 q 1113 526 990 526 q 1340 519 1235 526 q 1347 440 1344 494 q 1350 316 1350 385 q 1348 178 1350 247 q 1342 54 1346 108 q 1331 -24 1338 0 q 1014 -12 1185 -21 q 679 -3 843 -3 q 492 -5 590 -3 q 303 -10 394 -7 q 144 -17 213 -14 q 44 -24 75 -21 z "},"Ể":{"ha":1361,"x_min":11,"x_max":1350,"o":"m 44 -24 q 26 50 33 6 q 19 142 19 94 q 22 235 18 190 q 35 308 25 279 q 78 337 57 317 q 113 402 99 357 q 126 529 126 447 q 110 663 126 618 q 73 724 94 708 q 35 740 51 740 q 17 808 22 765 q 12 901 11 851 q 19 997 13 950 q 40 1076 26 1043 q 104 1073 60 1075 q 206 1069 149 1071 q 321 1067 264 1068 q 289 972 299 1029 q 283 860 279 914 q 306 776 286 806 q 328 950 300 865 q 405 1101 357 1035 q 506 1204 453 1168 q 663 1215 571 1213 q 668 1103 660 1157 q 694 1015 676 1049 q 747 1019 717 1018 q 808 1004 778 1019 q 770 1045 794 1035 q 718 1053 746 1056 q 704 1132 708 1083 q 704 1228 700 1181 q 719 1301 708 1276 q 862 1315 792 1306 q 1018 1324 932 1324 q 1170 1278 1118 1324 q 1222 1156 1222 1233 q 1208 1072 1222 1115 q 1269 1075 1240 1074 q 1325 1078 1299 1076 q 1338 1001 1332 1051 q 1346 890 1343 951 q 1349 767 1349 829 q 1344 652 1349 704 q 1332 571 1340 600 q 1188 560 1267 563 q 1027 560 1108 557 q 874 571 946 563 q 874 700 857 636 l 713 700 l 713 642 l 842 642 l 842 449 l 711 449 l 711 389 l 874 389 q 874 519 857 454 q 1113 526 990 526 q 1340 519 1235 526 q 1347 440 1344 494 q 1350 316 1350 385 q 1348 178 1350 247 q 1342 54 1346 108 q 1331 -24 1338 0 q 1014 -12 1185 -21 q 679 -3 843 -3 q 492 -5 590 -3 q 303 -10 394 -7 q 144 -17 213 -14 q 44 -24 75 -21 z "},"Ễ":{"ha":1361,"x_min":11,"x_max":1350,"o":"m 44 -24 q 26 50 33 6 q 19 142 19 94 q 22 235 18 190 q 35 308 25 279 q 78 337 57 317 q 113 402 99 357 q 126 529 126 447 q 110 663 126 618 q 73 724 94 708 q 35 740 51 740 q 17 808 22 765 q 12 901 11 851 q 19 997 13 950 q 40 1076 26 1043 q 104 1073 60 1075 q 206 1069 149 1071 q 321 1067 264 1068 q 289 972 299 1029 q 283 860 279 914 q 306 776 286 806 q 328 950 300 865 q 405 1101 357 1035 q 506 1204 453 1168 q 572 1211 535 1208 q 649 1215 608 1214 q 641 1119 638 1165 q 663 1038 644 1074 q 713 1252 669 1188 q 838 1317 756 1317 q 938 1299 892 1317 q 1022 1282 983 1282 q 1099 1322 1076 1282 q 1153 1318 1119 1322 q 1221 1307 1188 1314 q 1272 1289 1254 1300 q 1266 1167 1272 1221 q 1249 1074 1260 1114 l 1325 1078 q 1338 1001 1332 1051 q 1346 890 1343 951 q 1349 767 1349 829 q 1344 652 1349 704 q 1332 571 1340 600 q 1188 560 1267 563 q 1027 560 1108 557 q 874 571 946 563 q 874 700 857 636 l 713 700 l 713 642 l 842 642 l 842 449 l 711 449 l 711 389 l 874 389 q 874 519 857 454 q 1113 526 990 526 q 1340 519 1235 526 q 1347 440 1344 494 q 1350 316 1350 385 q 1348 178 1350 247 q 1342 54 1346 108 q 1331 -24 1338 0 q 1014 -12 1185 -21 q 679 -3 843 -3 q 492 -5 590 -3 q 303 -10 394 -7 q 144 -17 213 -14 q 44 -24 75 -21 z "},"Ȅ":{"ha":1361,"x_min":11,"x_max":1350,"o":"m 44 -24 q 26 50 33 6 q 19 142 19 94 q 22 235 18 190 q 35 308 25 279 q 78 337 57 317 q 113 402 99 357 q 126 529 126 447 q 110 663 126 618 q 73 724 94 708 q 35 740 51 740 q 17 808 22 765 q 12 901 11 851 q 19 997 13 950 q 40 1076 26 1043 q 87 1074 56 1075 q 157 1071 118 1072 q 273 869 203 939 q 426 774 343 800 q 329 869 376 814 q 249 989 282 925 q 206 1115 217 1053 q 275 1165 228 1143 q 385 1201 322 1188 q 515 1217 447 1214 q 646 1211 583 1221 q 600 1176 624 1203 q 567 1115 576 1149 q 644 1169 590 1146 q 767 1205 697 1192 q 908 1218 836 1218 q 1008 1210 960 1218 q 1097 1186 1057 1203 q 1128 1136 1113 1165 q 1154 1071 1143 1107 q 1240 1075 1197 1074 q 1325 1078 1282 1076 q 1338 1001 1332 1051 q 1346 890 1343 951 q 1349 767 1349 829 q 1344 652 1349 704 q 1332 571 1340 600 q 1188 560 1267 563 q 1027 560 1108 557 q 874 571 946 563 q 874 700 857 636 l 713 700 l 713 642 l 842 642 l 842 449 l 711 449 l 711 389 l 874 389 q 874 519 857 454 q 1113 526 990 526 q 1340 519 1235 526 q 1347 440 1344 494 q 1350 316 1350 385 q 1348 178 1350 247 q 1342 54 1346 108 q 1331 -24 1338 0 q 1014 -12 1185 -21 q 679 -3 843 -3 q 492 -5 590 -3 q 303 -10 394 -7 q 144 -17 213 -14 q 44 -24 75 -21 z "},"Ë":{"ha":1361,"x_min":11,"x_max":1350,"o":"m 44 -24 q 26 50 33 6 q 19 142 19 94 q 22 235 18 190 q 35 308 25 279 q 78 337 57 317 q 113 402 99 357 q 126 529 126 447 q 110 663 126 618 q 73 724 94 708 q 35 740 51 740 q 17 808 22 765 q 12 901 11 851 q 19 997 13 950 q 40 1076 26 1043 q 106 1073 60 1075 q 219 1069 151 1071 q 219 912 199 979 q 292 805 240 844 q 411 758 343 765 q 303 846 346 786 q 260 982 260 906 q 288 1091 260 1038 q 384 1181 317 1144 q 565 1217 451 1217 q 630 1213 600 1217 q 685 1203 660 1208 q 624 1132 639 1172 q 618 1056 610 1092 q 710 1169 640 1121 q 913 1217 779 1217 q 1099 1175 1032 1217 q 1192 1072 1165 1133 q 1259 1075 1225 1074 q 1325 1078 1293 1076 q 1338 1001 1332 1051 q 1346 890 1343 951 q 1349 767 1349 829 q 1344 652 1349 704 q 1332 571 1340 600 q 1188 560 1267 563 q 1027 560 1108 557 q 874 571 946 563 q 874 700 857 636 l 713 700 l 713 642 l 842 642 l 842 449 l 711 449 l 711 389 l 874 389 q 874 519 857 454 q 1113 526 990 526 q 1340 519 1235 526 q 1347 440 1344 494 q 1350 316 1350 385 q 1348 178 1350 247 q 1342 54 1346 108 q 1331 -24 1338 0 q 1014 -12 1185 -21 q 679 -3 843 -3 q 492 -5 590 -3 q 303 -10 394 -7 q 144 -17 213 -14 q 44 -24 75 -21 z "},"Ė":{"ha":1361,"x_min":11,"x_max":1350,"o":"m 44 -24 q 26 50 33 6 q 19 142 19 94 q 22 235 18 190 q 35 308 25 279 q 78 337 57 317 q 113 402 99 357 q 126 529 126 447 q 110 663 126 618 q 73 724 94 708 q 35 740 51 740 q 17 808 22 765 q 12 901 11 851 q 19 997 13 950 q 40 1076 26 1043 q 109 1073 61 1075 q 222 1069 157 1071 q 360 1065 288 1067 q 378 877 333 950 q 504 785 422 804 q 430 869 458 818 q 401 982 401 921 q 428 1092 401 1039 q 519 1181 456 1146 q 692 1217 583 1217 q 884 1178 811 1217 q 990 1067 957 1140 q 1154 1072 1072 1069 q 1325 1078 1236 1074 q 1338 1001 1332 1051 q 1346 890 1343 951 q 1349 767 1349 829 q 1344 652 1349 704 q 1332 571 1340 600 q 1188 560 1267 563 q 1027 560 1108 557 q 874 571 946 563 q 874 700 857 636 l 713 700 l 713 642 l 842 642 l 842 449 l 711 449 l 711 389 l 874 389 q 874 519 857 454 q 1113 526 990 526 q 1340 519 1235 526 q 1347 440 1344 494 q 1350 316 1350 385 q 1348 178 1350 247 q 1342 54 1346 108 q 1331 -24 1338 0 q 1014 -12 1185 -21 q 679 -3 843 -3 q 492 -5 590 -3 q 303 -10 394 -7 q 144 -17 213 -14 q 44 -24 75 -21 z "},"Ẹ":{"ha":1361,"x_min":11,"x_max":1350,"o":"m 708 -240 q 478 -169 557 -240 q 400 7 400 -99 q 431 120 400 64 q 535 210 463 176 q 434 172 474 207 q 375 89 394 138 q 353 -8 356 40 q 165 -15 249 -11 q 44 -24 81 -19 q 26 50 33 6 q 19 142 19 94 q 22 235 18 190 q 35 308 25 279 q 78 337 57 317 q 113 402 99 357 q 126 529 126 447 q 110 663 126 618 q 73 724 94 708 q 35 740 51 740 q 17 808 22 765 q 12 901 11 851 q 19 997 13 950 q 40 1076 26 1043 q 113 1073 63 1075 q 231 1069 164 1071 q 372 1065 299 1067 q 517 1063 446 1064 q 646 1063 589 1063 q 970 1067 792 1063 q 1325 1078 1149 1071 q 1338 1001 1332 1051 q 1346 890 1343 951 q 1349 767 1349 829 q 1344 652 1349 704 q 1332 571 1340 600 q 1188 560 1267 563 q 1027 560 1108 557 q 874 571 946 563 q 874 700 857 636 l 713 700 l 713 642 l 842 642 l 842 449 l 711 449 l 711 389 l 874 389 q 874 519 857 454 q 1113 526 990 526 q 1340 519 1235 526 q 1347 440 1344 494 q 1350 316 1350 385 q 1348 178 1350 247 q 1342 54 1346 108 q 1331 -24 1338 0 q 1174 -19 1256 -22 q 1007 -12 1093 -15 q 976 -122 1006 -69 q 882 -208 947 -175 q 708 -240 817 -240 z "},"È":{"ha":1361,"x_min":11,"x_max":1350,"o":"m 44 -24 q 26 50 33 6 q 19 142 19 94 q 22 235 18 190 q 35 308 25 279 q 78 337 57 317 q 113 402 99 357 q 126 529 126 447 q 110 663 126 618 q 73 724 94 708 q 35 740 51 740 q 17 808 22 765 q 12 901 11 851 q 19 997 13 950 q 40 1076 26 1043 q 128 1072 67 1075 q 268 1067 189 1069 q 374 883 308 949 q 517 790 439 817 q 428 885 471 832 q 356 998 386 939 q 317 1115 326 1057 q 394 1169 340 1146 q 517 1205 447 1192 q 658 1218 586 1218 q 758 1210 710 1218 q 847 1186 807 1203 q 878 1133 863 1164 q 906 1065 894 1101 q 1115 1071 1008 1068 q 1325 1078 1221 1074 q 1338 1001 1332 1051 q 1346 890 1343 951 q 1349 767 1349 829 q 1344 652 1349 704 q 1332 571 1340 600 q 1188 560 1267 563 q 1027 560 1108 557 q 874 571 946 563 q 874 700 857 636 l 713 700 l 713 642 l 842 642 l 842 449 l 711 449 l 711 389 l 874 389 q 874 519 857 454 q 1113 526 990 526 q 1340 519 1235 526 q 1347 440 1344 494 q 1350 316 1350 385 q 1348 178 1350 247 q 1342 54 1346 108 q 1331 -24 1338 0 q 1014 -12 1185 -21 q 679 -3 843 -3 q 492 -5 590 -3 q 303 -10 394 -7 q 144 -17 213 -14 q 44 -24 75 -21 z "},"Ẻ":{"ha":1361,"x_min":11,"x_max":1350,"o":"m 44 -24 q 26 50 33 6 q 19 142 19 94 q 22 235 18 190 q 35 308 25 279 q 78 337 57 317 q 113 402 99 357 q 126 529 126 447 q 110 663 126 618 q 73 724 94 708 q 35 740 51 740 q 17 808 22 765 q 12 901 11 851 q 19 997 13 950 q 40 1076 26 1043 q 155 1072 72 1074 q 338 1067 238 1069 q 349 932 336 994 q 379 846 361 869 q 456 843 422 851 q 514 817 489 835 q 467 877 499 861 q 400 888 436 893 q 385 957 390 915 q 381 1044 381 999 q 386 1128 381 1089 q 401 1189 392 1167 q 574 1206 489 1194 q 764 1217 658 1217 q 927 1176 867 1217 q 1004 1067 988 1136 q 1165 1072 1083 1069 q 1325 1078 1246 1075 q 1338 1001 1332 1051 q 1346 890 1343 951 q 1349 767 1349 829 q 1344 652 1349 704 q 1332 571 1340 600 q 1188 560 1267 563 q 1027 560 1108 557 q 874 571 946 563 q 874 700 857 636 l 713 700 l 713 642 l 842 642 l 842 449 l 711 449 l 711 389 l 874 389 q 874 519 857 454 q 1113 526 990 526 q 1340 519 1235 526 q 1347 440 1344 494 q 1350 316 1350 385 q 1348 178 1350 247 q 1342 54 1346 108 q 1331 -24 1338 0 q 1014 -12 1185 -21 q 679 -3 843 -3 q 492 -5 590 -3 q 303 -10 394 -7 q 144 -17 213 -14 q 44 -24 75 -21 z "},"Ȇ":{"ha":1361,"x_min":11,"x_max":1350,"o":"m 44 -24 q 26 50 33 6 q 19 142 19 94 q 22 235 18 190 q 35 308 25 279 q 78 337 57 317 q 113 402 99 357 q 126 529 126 447 q 110 663 126 618 q 73 724 94 708 q 35 740 51 740 q 17 808 22 765 q 12 901 11 851 q 19 997 13 950 q 40 1076 26 1043 q 133 1072 68 1075 q 290 1067 197 1069 q 257 915 256 996 q 297 764 258 835 q 319 1001 276 900 q 464 1159 361 1103 q 722 1215 567 1215 q 913 1176 831 1215 q 1046 1068 994 1136 q 1185 1073 1119 1071 q 1325 1078 1251 1075 q 1338 1001 1332 1051 q 1346 890 1343 951 q 1349 767 1349 829 q 1344 652 1349 704 q 1332 571 1340 600 q 1188 560 1267 563 q 1027 560 1108 557 q 874 571 946 563 q 874 700 857 636 l 713 700 l 713 642 l 842 642 l 842 449 l 711 449 l 711 389 l 874 389 q 874 519 857 454 q 1113 526 990 526 q 1340 519 1235 526 q 1347 440 1344 494 q 1350 316 1350 385 q 1348 178 1350 247 q 1342 54 1346 108 q 1331 -24 1338 0 q 1014 -12 1185 -21 q 679 -3 843 -3 q 492 -5 590 -3 q 303 -10 394 -7 q 144 -17 213 -14 q 44 -24 75 -21 z "},"Ē":{"ha":1361,"x_min":11,"x_max":1350,"o":"m 44 -24 q 26 50 33 6 q 19 142 19 94 q 22 235 18 190 q 35 308 25 279 q 78 337 57 317 q 113 402 99 357 q 126 529 126 447 q 110 663 126 618 q 73 724 94 708 q 35 740 51 740 q 17 808 22 765 q 12 901 11 851 q 19 997 13 950 q 40 1076 26 1043 q 128 1072 65 1075 q 265 1067 192 1069 q 269 1006 267 1044 q 278 923 272 967 q 296 838 285 879 q 325 767 307 796 q 318 822 321 782 q 314 913 315 861 q 313 1019 313 965 q 317 1118 314 1074 q 325 1186 319 1163 q 490 1178 396 1181 q 688 1176 585 1176 q 886 1178 790 1176 q 1053 1186 982 1181 q 1061 1136 1058 1168 q 1065 1069 1064 1104 q 1195 1074 1131 1071 q 1325 1078 1260 1076 q 1338 1001 1332 1051 q 1346 890 1343 951 q 1349 767 1349 829 q 1344 652 1349 704 q 1332 571 1340 600 q 1188 560 1267 563 q 1027 560 1108 557 q 874 571 946 563 q 874 700 857 636 l 713 700 l 713 642 l 842 642 l 842 449 l 711 449 l 711 389 l 874 389 q 874 519 857 454 q 1113 526 990 526 q 1340 519 1235 526 q 1347 440 1344 494 q 1350 316 1350 385 q 1348 178 1350 247 q 1342 54 1346 108 q 1331 -24 1338 0 q 1014 -12 1185 -21 q 679 -3 843 -3 q 492 -5 590 -3 q 303 -10 394 -7 q 144 -17 213 -14 q 44 -24 75 -21 z "},"Ę":{"ha":1360,"x_min":11,"x_max":1349,"o":"m 971 -235 q 787 -187 850 -235 q 724 -47 724 -140 q 744 47 724 -4 q 810 147 764 99 q 736 109 765 139 q 691 47 707 79 q 667 -7 675 14 q 394 -10 506 -8 q 213 -15 283 -12 q 102 -19 142 -17 q 44 -24 63 -21 q 26 50 33 6 q 19 142 19 94 q 22 235 18 190 q 35 308 25 279 q 78 337 57 317 q 113 402 99 357 q 126 529 126 447 q 110 663 126 618 q 73 724 94 708 q 35 740 51 740 q 17 808 22 765 q 12 901 11 851 q 19 997 13 950 q 40 1076 26 1043 q 113 1073 63 1075 q 231 1069 164 1071 q 372 1065 299 1067 q 517 1063 446 1064 q 646 1063 589 1063 q 970 1067 792 1063 q 1325 1078 1149 1071 q 1338 1001 1332 1051 q 1346 890 1343 951 q 1349 767 1349 829 q 1344 652 1349 704 q 1332 571 1340 600 q 1188 560 1267 563 q 1027 560 1108 557 q 874 571 946 563 q 874 700 857 636 l 713 700 l 713 642 l 842 642 l 842 449 l 711 449 l 711 389 l 874 389 q 874 519 857 454 q 1113 526 990 526 q 1340 519 1235 526 q 1347 437 1344 494 q 1349 299 1349 379 q 1346 129 1349 219 q 1338 -51 1343 39 q 1324 -221 1332 -142 q 1211 -219 1263 -215 q 1104 -229 1160 -224 q 971 -235 1049 -235 z "},"Ẽ":{"ha":1361,"x_min":11,"x_max":1350,"o":"m 44 -24 q 26 50 33 6 q 19 142 19 94 q 22 235 18 190 q 35 308 25 279 q 78 337 57 317 q 113 402 99 357 q 126 529 126 447 q 110 663 126 618 q 73 724 94 708 q 35 740 51 740 q 17 808 22 765 q 12 901 11 851 q 19 997 13 950 q 40 1076 26 1043 q 155 1070 88 1072 q 286 1067 222 1068 q 274 915 268 988 q 301 807 279 842 q 331 1028 304 946 q 408 1146 357 1110 q 536 1182 460 1182 q 628 1172 586 1182 q 710 1151 671 1161 q 783 1140 749 1140 q 846 1153 821 1140 q 885 1188 871 1165 q 960 1183 914 1188 q 1050 1169 1006 1178 q 1118 1149 1094 1161 q 1117 1108 1118 1128 q 1115 1069 1117 1089 l 1325 1078 q 1338 1001 1332 1051 q 1346 890 1343 951 q 1349 767 1349 829 q 1344 652 1349 704 q 1332 571 1340 600 q 1188 560 1267 563 q 1027 560 1108 557 q 874 571 946 563 q 874 700 857 636 l 713 700 l 713 642 l 842 642 l 842 449 l 711 449 l 711 389 l 874 389 q 874 519 857 454 q 1113 526 990 526 q 1340 519 1235 526 q 1347 440 1344 494 q 1350 316 1350 385 q 1348 178 1350 247 q 1342 54 1346 108 q 1331 -24 1338 0 q 1014 -12 1185 -21 q 679 -3 843 -3 q 492 -5 590 -3 q 303 -10 394 -7 q 144 -17 213 -14 q 44 -24 75 -21 z "},"F":{"ha":1325,"x_min":11,"x_max":1314,"o":"m 47 -24 q 28 50 35 6 q 19 142 21 94 q 23 235 18 190 q 38 308 28 279 q 78 337 58 317 q 113 402 99 357 q 126 529 126 447 q 110 663 126 618 q 73 724 94 708 q 35 740 51 740 q 17 808 22 765 q 12 901 11 851 q 19 997 13 950 q 40 1076 26 1043 q 115 1073 64 1075 q 233 1069 165 1071 q 376 1065 301 1067 q 522 1063 450 1064 q 653 1063 594 1063 q 956 1067 800 1063 q 1290 1078 1113 1071 q 1303 992 1297 1051 q 1311 856 1308 932 q 1314 704 1314 781 q 1310 567 1314 628 q 1297 478 1306 506 q 1102 461 1200 461 q 872 478 1004 461 q 872 689 860 583 l 707 689 l 707 632 l 842 632 l 842 400 l 707 400 q 733 349 707 364 q 846 336 760 333 q 860 264 856 311 q 865 161 865 217 q 860 56 865 106 q 844 -24 856 6 q 758 -15 818 -19 q 626 -6 697 -10 q 492 -1 554 -1 q 378 -3 440 -1 q 254 -9 317 -6 q 138 -17 192 -12 q 47 -24 83 -21 z "},"G":{"ha":1451,"x_min":14,"x_max":1440,"o":"m 675 -33 q 181 102 347 -33 q 14 525 14 238 q 81 842 14 714 q 274 1038 149 971 q 571 1104 399 1104 q 756 1083 679 1104 q 876 1009 833 1061 q 922 864 918 957 q 938 963 943 910 q 926 1072 932 1017 q 1039 1074 976 1072 q 1167 1078 1101 1076 q 1292 1082 1233 1081 q 1392 1083 1350 1083 q 1407 977 1401 1042 q 1413 840 1413 913 q 1410 699 1414 768 q 1396 579 1406 631 q 1299 571 1361 574 q 1160 567 1238 568 q 1003 567 1083 567 q 849 571 922 568 q 724 579 776 574 l 724 653 l 656 653 l 656 368 l 738 368 l 738 418 l 690 418 q 683 480 683 451 q 693 547 683 508 q 837 535 750 542 q 1050 529 924 529 q 1172 531 1106 529 q 1303 537 1239 533 q 1411 544 1367 540 q 1432 469 1425 517 q 1440 366 1439 421 q 1435 264 1440 311 q 1417 192 1429 217 q 1376 158 1393 190 q 1349 78 1358 126 q 1339 -21 1339 31 q 1113 -14 1226 -10 q 889 -26 999 -18 q 675 -33 779 -33 z "},"Ğ":{"ha":1451,"x_min":14,"x_max":1440,"o":"m 675 -33 q 181 102 347 -33 q 14 525 14 238 q 85 848 14 717 q 293 1043 157 979 q 365 881 311 950 q 510 789 418 813 q 374 953 417 850 q 351 1176 332 1056 q 423 1197 376 1189 q 519 1210 469 1206 q 599 1215 568 1215 q 767 1153 643 1153 q 935 1215 893 1153 q 1010 1210 964 1215 q 1100 1197 1056 1206 q 1168 1176 1144 1189 q 1174 1126 1172 1150 q 1175 1079 1176 1103 q 1293 1082 1236 1081 q 1392 1083 1350 1083 q 1407 977 1401 1042 q 1413 840 1413 913 q 1410 699 1414 768 q 1396 579 1406 631 q 1299 571 1361 574 q 1160 567 1238 568 q 1003 567 1083 567 q 849 571 922 568 q 724 579 776 574 l 724 653 l 656 653 l 656 368 l 738 368 l 738 418 l 690 418 q 683 480 683 451 q 693 547 683 508 q 837 535 750 542 q 1050 529 924 529 q 1172 531 1106 529 q 1303 537 1239 533 q 1411 544 1367 540 q 1432 469 1425 517 q 1440 366 1439 421 q 1435 264 1440 311 q 1417 192 1429 217 q 1376 158 1393 190 q 1349 78 1358 126 q 1339 -21 1339 31 q 1113 -14 1226 -10 q 889 -26 999 -18 q 675 -33 779 -33 z "},"Ǧ":{"ha":1451,"x_min":14,"x_max":1440,"o":"m 675 -33 q 181 102 347 -33 q 14 525 14 238 q 88 855 14 722 q 297 1050 163 988 q 337 926 304 988 q 416 817 369 864 q 510 754 463 771 q 419 867 461 797 q 356 1019 378 938 q 346 1176 335 1101 q 415 1197 371 1189 q 506 1210 460 1206 q 579 1215 551 1215 q 648 1187 610 1207 q 721 1140 686 1167 q 684 1103 703 1122 q 646 1063 665 1083 l 681 1039 q 799 1153 738 1104 q 915 1215 860 1201 q 996 1210 947 1215 q 1092 1197 1044 1206 q 1163 1176 1139 1189 q 1166 1128 1167 1153 q 1163 1078 1165 1103 q 1288 1082 1228 1081 q 1392 1083 1349 1083 q 1407 977 1401 1042 q 1413 840 1413 913 q 1410 699 1414 768 q 1396 579 1406 631 q 1299 571 1361 574 q 1160 567 1238 568 q 1003 567 1083 567 q 849 571 922 568 q 724 579 776 574 l 724 653 l 656 653 l 656 368 l 738 368 l 738 418 l 690 418 q 683 480 683 451 q 693 547 683 508 q 837 535 750 542 q 1050 529 924 529 q 1172 531 1106 529 q 1303 537 1239 533 q 1411 544 1367 540 q 1432 469 1425 517 q 1440 366 1439 421 q 1435 264 1440 311 q 1417 192 1429 217 q 1376 158 1393 190 q 1349 78 1358 126 q 1339 -21 1339 31 q 1113 -14 1226 -10 q 889 -26 999 -18 q 675 -33 779 -33 z "},"Ĝ":{"ha":1451,"x_min":14,"x_max":1440,"o":"m 675 -33 q 181 102 347 -33 q 14 525 14 238 q 97 863 14 728 q 338 1060 179 997 q 303 966 315 1022 q 292 857 290 910 q 313 776 293 804 q 379 1035 325 921 q 513 1204 433 1150 q 610 1213 553 1211 q 726 1215 668 1215 q 849 1213 792 1215 q 938 1204 907 1210 q 1054 1075 1000 1161 q 1238 1081 1144 1078 q 1392 1083 1332 1083 q 1407 977 1401 1042 q 1413 840 1413 913 q 1410 699 1414 768 q 1396 579 1406 631 q 1299 571 1361 574 q 1160 567 1238 568 q 1003 567 1083 567 q 849 571 922 568 q 724 579 776 574 l 724 653 l 656 653 l 656 368 l 738 368 l 738 418 l 690 418 q 683 480 683 451 q 693 547 683 508 q 837 535 750 542 q 1050 529 924 529 q 1172 531 1106 529 q 1303 537 1239 533 q 1411 544 1367 540 q 1432 469 1425 517 q 1440 366 1439 421 q 1435 264 1440 311 q 1417 192 1429 217 q 1376 158 1393 190 q 1349 78 1358 126 q 1339 -21 1339 31 q 1113 -14 1226 -10 q 889 -26 999 -18 q 675 -33 779 -33 z "},"Ģ":{"ha":1451,"x_min":14,"x_max":1440,"o":"m 817 -236 q 772 -240 803 -239 q 704 -242 742 -242 q 615 -240 661 -242 q 531 -234 568 -237 q 476 -226 493 -231 q 494 -124 486 -179 q 496 2 503 -68 q 451 163 489 72 q 449 71 453 119 q 429 -11 444 22 q 117 167 221 35 q 14 525 14 299 q 81 842 14 714 q 274 1038 149 971 q 571 1104 399 1104 q 756 1083 679 1104 q 876 1009 833 1061 q 922 864 918 957 q 938 963 943 910 q 926 1072 932 1017 q 1039 1074 976 1072 q 1167 1078 1101 1076 q 1292 1082 1233 1081 q 1392 1083 1350 1083 q 1407 977 1401 1042 q 1413 840 1413 913 q 1410 699 1414 768 q 1396 579 1406 631 q 1299 571 1361 574 q 1160 567 1238 568 q 1003 567 1083 567 q 849 571 922 568 q 724 579 776 574 l 724 653 l 656 653 l 656 368 l 738 368 l 738 418 l 690 418 q 683 480 683 451 q 693 547 683 508 q 837 535 750 542 q 1050 529 924 529 q 1172 531 1106 529 q 1303 537 1239 533 q 1411 544 1367 540 q 1432 469 1425 517 q 1440 366 1439 421 q 1435 264 1440 311 q 1417 192 1429 217 q 1376 158 1393 190 q 1349 78 1358 126 q 1339 -21 1339 31 q 1186 -14 1263 -14 q 1040 -18 1110 -14 q 961 -140 1019 -86 q 817 -236 903 -194 z "},"Ġ":{"ha":1451,"x_min":14,"x_max":1440,"o":"m 675 -33 q 181 102 347 -33 q 14 525 14 238 q 115 896 14 754 q 404 1083 215 1038 q 403 925 383 992 q 472 819 424 858 q 582 768 519 779 q 488 856 525 800 q 451 982 451 911 q 481 1092 451 1039 q 574 1181 510 1146 q 742 1217 639 1217 q 1035 1074 961 1217 q 1155 1077 1089 1075 q 1284 1081 1221 1079 q 1392 1083 1347 1083 q 1407 977 1401 1042 q 1413 840 1413 913 q 1410 699 1414 768 q 1396 579 1406 631 q 1299 571 1361 574 q 1160 567 1238 568 q 1003 567 1083 567 q 849 571 922 568 q 724 579 776 574 l 722 653 l 656 653 l 656 368 l 738 368 l 738 418 l 690 418 q 683 480 683 451 q 693 547 683 508 q 837 535 750 542 q 1050 529 924 529 q 1172 531 1106 529 q 1303 537 1239 533 q 1411 544 1367 540 q 1432 469 1425 517 q 1440 366 1439 421 q 1435 264 1440 311 q 1417 192 1429 217 q 1376 158 1393 190 q 1349 78 1358 126 q 1339 -21 1339 31 q 1113 -14 1226 -10 q 889 -26 999 -18 q 675 -33 779 -33 z "},"H":{"ha":1544,"x_min":11,"x_max":1533,"o":"m 44 -24 q 26 50 33 6 q 19 142 19 94 q 22 235 18 190 q 35 308 25 279 q 78 337 57 317 q 113 402 99 357 q 126 529 126 447 q 110 663 126 618 q 73 724 94 708 q 35 740 51 740 q 17 808 22 765 q 12 901 11 851 q 19 997 13 950 q 40 1076 26 1043 q 140 1069 79 1074 q 270 1060 201 1064 q 400 1057 339 1057 q 599 1064 518 1057 q 738 1076 679 1071 q 750 997 746 1046 q 756 896 754 949 q 755 795 757 843 q 747 715 753 747 l 714 715 l 714 651 l 825 651 l 825 715 l 790 715 q 785 795 786 747 q 785 896 783 843 q 790 997 786 949 q 800 1076 794 1046 q 944 1064 857 1071 q 1157 1057 1031 1057 q 1278 1060 1213 1057 q 1406 1069 1344 1064 q 1504 1076 1467 1074 q 1525 997 1518 1043 q 1533 901 1532 950 q 1528 808 1533 851 q 1510 740 1522 765 q 1472 724 1493 740 q 1434 663 1450 708 q 1418 529 1418 618 q 1432 402 1418 447 q 1467 337 1446 357 q 1510 308 1488 317 q 1523 235 1519 279 q 1526 142 1526 190 q 1518 50 1525 94 q 1500 -24 1511 6 q 1362 -10 1443 -18 q 1157 -1 1281 -1 q 951 -10 1046 -1 q 800 -24 857 -18 q 790 52 794 6 q 785 149 786 99 q 785 247 783 200 q 790 322 786 293 l 825 322 l 825 393 l 714 393 l 714 322 l 747 322 q 755 247 753 293 q 756 149 757 200 q 750 52 754 99 q 738 -24 746 6 q 656 -15 699 -19 q 553 -6 614 -10 q 399 -1 492 -1 q 196 -9 286 -1 q 44 -24 106 -17 z "},"Ħ":{"ha":1544,"x_min":11,"x_max":1533,"o":"m 44 -24 q 26 50 33 6 q 19 142 19 94 q 22 235 18 190 q 35 308 25 279 q 78 337 57 317 q 113 402 99 357 q 126 529 126 447 l 126 544 l 32 544 q 17 608 22 568 q 11 695 11 649 q 17 783 11 742 q 32 846 22 824 q 106 847 60 846 q 201 856 153 847 q 278 883 249 864 l 19 883 q 28 1020 22 981 q 40 1076 33 1060 q 140 1069 79 1074 q 270 1060 201 1064 q 400 1057 339 1057 q 599 1064 518 1057 q 738 1076 679 1071 q 752 976 747 1039 q 757 846 757 913 l 785 846 q 789 976 785 913 q 800 1076 793 1039 q 938 1064 857 1071 q 1144 1057 1018 1057 q 1274 1060 1206 1057 q 1405 1069 1343 1064 q 1504 1076 1467 1074 q 1521 1010 1514 1058 q 1531 897 1528 961 q 1533 764 1533 832 q 1527 638 1532 696 q 1513 544 1522 579 l 1418 544 l 1418 529 q 1432 402 1418 447 q 1467 337 1446 357 q 1510 308 1488 317 q 1523 235 1519 279 q 1526 142 1526 190 q 1518 50 1525 94 q 1500 -24 1511 6 q 1362 -10 1443 -18 q 1157 -1 1281 -1 q 951 -10 1046 -1 q 800 -24 857 -18 q 790 52 794 6 q 785 149 786 99 q 785 247 783 200 q 790 322 786 293 l 825 322 l 825 393 l 714 393 l 714 322 l 747 322 q 755 247 753 293 q 756 149 757 200 q 750 52 754 99 q 738 -24 746 6 q 656 -15 699 -19 q 553 -6 614 -10 q 399 -1 492 -1 q 196 -9 286 -1 q 44 -24 106 -17 m 714 626 l 825 626 l 825 690 l 714 690 l 714 626 z "},"Ĥ":{"ha":1544,"x_min":11,"x_max":1533,"o":"m 44 -24 q 26 50 33 6 q 19 142 19 94 q 22 235 18 190 q 35 308 25 279 q 78 337 57 317 q 113 402 99 357 q 126 529 126 447 q 110 663 126 618 q 73 724 94 708 q 35 740 51 740 q 17 808 22 765 q 12 901 11 851 q 19 997 13 950 q 40 1076 26 1043 q 135 1069 78 1074 q 258 1061 193 1064 q 383 1057 324 1058 q 364 967 367 1019 q 371 867 361 915 q 409 1005 381 939 q 478 1123 438 1071 q 561 1204 518 1175 q 659 1213 601 1211 q 775 1215 717 1215 q 895 1213 839 1215 q 981 1204 951 1210 q 1042 1148 1010 1183 q 1107 1057 1074 1113 l 1157 1057 q 1278 1060 1213 1057 q 1406 1069 1344 1064 q 1504 1076 1467 1074 q 1525 997 1518 1043 q 1533 901 1532 950 q 1528 808 1533 851 q 1510 740 1522 765 q 1472 724 1493 740 q 1434 663 1450 708 q 1418 529 1418 618 q 1432 402 1418 447 q 1467 337 1446 357 q 1510 308 1488 317 q 1523 235 1519 279 q 1526 142 1526 190 q 1518 50 1525 94 q 1500 -24 1511 6 q 1362 -10 1443 -18 q 1157 -1 1281 -1 q 951 -10 1046 -1 q 800 -24 857 -18 q 790 52 794 6 q 785 149 786 99 q 785 247 783 200 q 790 322 786 293 l 825 322 l 825 393 l 714 393 l 714 322 l 747 322 q 755 247 753 293 q 756 149 757 200 q 750 52 754 99 q 738 -24 746 6 q 656 -15 699 -19 q 553 -6 614 -10 q 399 -1 492 -1 q 196 -9 286 -1 q 44 -24 106 -17 m 714 626 l 825 626 l 825 704 l 714 704 l 714 626 z "},"I":{"ha":850,"x_min":10,"x_max":839,"o":"m 46 -24 q 26 50 33 6 q 18 142 19 94 q 22 235 17 190 q 36 308 26 279 q 78 337 57 317 q 114 402 100 357 q 128 529 128 447 q 111 663 128 618 q 73 724 94 708 q 36 740 51 740 q 17 808 24 765 q 10 901 10 851 q 19 997 11 950 q 42 1076 26 1043 q 149 1068 83 1074 q 287 1059 214 1063 q 422 1056 360 1056 q 565 1059 492 1056 q 704 1068 639 1063 q 811 1076 769 1074 q 832 997 825 1043 q 839 900 839 950 q 833 807 839 850 q 815 739 828 764 q 774 723 794 739 q 739 663 753 707 q 725 529 725 618 q 740 402 725 447 q 775 337 754 357 q 817 308 796 317 q 832 235 828 279 q 835 142 836 190 q 826 50 833 94 q 807 -24 819 6 q 700 -15 765 -19 q 561 -6 635 -10 q 418 -1 488 -1 q 284 -6 354 -1 q 151 -15 214 -10 q 46 -24 88 -19 z "},"Ĳ":{"ha":2076,"x_min":10,"x_max":2065,"o":"m 46 -24 q 26 50 33 6 q 18 142 19 94 q 22 235 17 190 q 36 308 26 279 q 78 337 57 317 q 114 402 100 357 q 128 529 128 447 q 111 663 128 618 q 73 724 94 708 q 36 740 51 740 q 17 808 24 765 q 10 901 10 851 q 19 997 11 950 q 42 1076 26 1043 q 149 1068 83 1074 q 287 1059 214 1063 q 422 1056 360 1056 q 565 1059 492 1056 q 704 1068 639 1063 q 811 1076 769 1074 q 832 997 825 1043 q 839 900 839 950 q 833 807 839 850 q 815 739 828 764 q 774 723 794 739 q 739 663 753 707 q 725 529 725 618 q 740 402 725 447 q 775 337 754 357 q 817 308 796 317 q 832 235 828 279 q 835 142 836 190 q 826 50 833 94 q 807 -24 819 6 q 700 -15 765 -19 q 561 -6 635 -10 q 418 -1 488 -1 q 284 -6 354 -1 q 151 -15 214 -10 q 46 -24 88 -19 m 1413 -47 q 1006 57 1149 -47 q 864 349 864 161 q 892 490 864 425 q 983 597 921 556 q 1146 638 1046 638 q 1222 631 1182 638 q 1301 601 1263 625 q 1370 524 1339 576 q 1418 379 1401 471 l 1456 386 q 1387 570 1442 490 q 1238 695 1332 650 q 1010 740 1143 740 q 990 808 997 765 q 984 901 983 851 q 992 997 985 950 q 1015 1076 1000 1043 q 1394 1060 1247 1064 q 1635 1056 1540 1056 q 1788 1059 1711 1056 q 1930 1068 1864 1063 q 2038 1076 1996 1074 q 2058 997 2051 1043 q 2065 900 2065 950 q 2060 807 2065 850 q 2042 739 2054 764 q 2000 728 2021 739 q 1965 684 1979 717 q 1951 583 1951 651 q 1960 460 1951 518 q 1969 350 1969 401 q 1902 121 1969 208 q 1710 -7 1835 33 q 1413 -47 1585 -47 z "},"Í":{"ha":850,"x_min":10,"x_max":839,"o":"m 46 -24 q 26 50 33 6 q 18 142 19 94 q 22 235 17 190 q 36 308 26 279 q 78 337 57 317 q 114 402 100 357 q 128 529 128 447 q 111 663 128 618 q 73 724 94 708 q 36 740 51 740 q 17 808 24 765 q 10 901 10 851 q 19 997 11 950 q 42 1076 26 1043 q 76 1074 60 1075 q 114 1069 93 1072 q 100 955 101 1017 q 121 840 99 893 q 200 758 143 786 q 148 879 160 807 q 156 1032 136 951 q 226 1186 175 1113 q 315 1210 267 1203 q 415 1218 364 1218 q 557 1205 488 1218 q 680 1169 626 1192 q 757 1115 733 1146 q 753 1095 756 1106 q 746 1072 750 1085 l 811 1076 q 832 997 825 1043 q 839 900 839 950 q 833 807 839 850 q 815 739 828 764 q 774 723 794 739 q 739 663 753 707 q 725 529 725 618 q 740 402 725 447 q 775 337 754 357 q 817 308 796 317 q 832 235 828 279 q 835 142 836 190 q 826 50 833 94 q 807 -24 819 6 q 700 -15 765 -19 q 561 -6 635 -10 q 418 -1 488 -1 q 284 -6 354 -1 q 151 -15 214 -10 q 46 -24 88 -19 z "},"Ĭ":{"ha":850,"x_min":-4,"x_max":842,"o":"m 46 -24 q 26 50 33 6 q 18 142 19 94 q 22 235 17 190 q 36 308 26 279 q 78 337 57 317 q 114 402 100 357 q 128 529 128 447 q 111 663 128 618 q 73 724 94 708 q 36 740 51 740 q 16 816 22 768 q 11 910 10 864 q 193 781 69 819 q 45 945 94 839 q 15 1176 -4 1051 q 87 1197 40 1189 q 183 1210 133 1206 q 263 1215 232 1215 q 431 1153 307 1153 q 599 1215 557 1153 q 672 1210 628 1215 q 761 1197 717 1206 q 829 1176 806 1189 q 838 1070 835 1133 q 841 941 842 1007 q 834 821 840 875 q 815 739 828 767 q 774 723 794 739 q 739 663 753 707 q 725 529 725 618 q 740 402 725 447 q 775 337 754 357 q 817 308 796 317 q 832 235 828 279 q 835 142 836 190 q 826 50 833 94 q 807 -24 819 6 q 700 -15 765 -19 q 561 -6 635 -10 q 418 -1 488 -1 q 284 -6 354 -1 q 151 -15 214 -10 q 46 -24 88 -19 z "},"Î":{"ha":850,"x_min":7,"x_max":836,"o":"m 46 -24 q 26 50 33 6 q 18 142 19 94 q 22 235 17 190 q 36 308 26 279 q 78 337 57 317 q 114 402 100 357 q 128 529 128 447 q 117 638 128 597 q 92 701 107 679 q 174 700 132 697 q 247 721 217 703 q 172 727 218 722 q 82 741 126 732 q 13 763 38 750 q 32 946 7 858 q 103 1101 57 1033 q 204 1204 150 1168 q 307 1213 247 1211 q 428 1215 367 1215 q 553 1213 494 1215 q 642 1204 611 1210 q 729 1112 685 1172 q 803 979 774 1051 q 833 836 833 907 q 815 739 833 775 q 774 723 794 739 q 739 663 753 707 q 725 529 725 618 q 740 402 725 447 q 775 337 754 357 q 817 308 796 317 q 832 235 828 279 q 835 142 836 190 q 826 50 833 94 q 807 -24 819 6 q 700 -15 765 -19 q 561 -6 635 -10 q 418 -1 488 -1 q 284 -6 354 -1 q 151 -15 214 -10 q 46 -24 88 -19 z "},"Ȉ":{"ha":850,"x_min":11,"x_max":844,"o":"m 46 -24 q 26 50 33 6 q 18 142 19 94 q 22 235 17 190 q 36 308 26 279 q 78 337 57 317 q 114 402 100 357 q 128 529 128 447 q 111 663 128 618 q 73 724 94 708 q 36 740 51 740 q 17 807 24 765 q 11 898 11 849 q 18 992 11 947 q 124 842 56 907 q 281 754 192 778 q 173 852 225 793 q 83 979 121 911 q 33 1115 46 1047 q 99 1165 53 1143 q 206 1201 144 1188 q 330 1217 267 1214 q 447 1211 393 1221 q 401 1176 425 1203 q 368 1115 378 1149 q 475 1189 404 1160 q 624 1218 546 1218 q 697 1210 661 1218 q 765 1186 733 1203 q 810 1093 792 1151 q 836 969 828 1035 q 840 842 844 903 q 814 739 835 781 q 774 723 794 739 q 739 663 753 707 q 725 529 725 618 q 740 402 725 447 q 775 337 754 357 q 817 308 796 317 q 832 235 828 279 q 835 142 836 190 q 826 50 833 94 q 807 -24 819 6 q 700 -15 765 -19 q 561 -6 635 -10 q 418 -1 488 -1 q 284 -6 354 -1 q 151 -15 214 -10 q 46 -24 88 -19 z "},"Ï":{"ha":850,"x_min":11,"x_max":839,"o":"m 46 -24 q 26 50 33 6 q 18 142 19 94 q 22 235 17 190 q 36 308 26 279 q 78 337 57 317 q 114 402 100 357 q 128 529 128 447 q 111 658 128 607 q 75 743 94 710 q 185 729 124 729 q 294 746 247 729 q 153 765 218 738 q 50 849 89 793 q 11 976 11 904 q 47 1106 11 1051 q 144 1188 83 1160 q 279 1217 204 1217 q 382 1204 335 1217 q 321 1133 336 1174 q 313 1056 306 1092 q 394 1169 333 1121 q 565 1217 456 1217 q 722 1175 661 1217 q 810 1067 782 1133 q 839 925 839 1000 q 815 739 839 790 q 774 723 794 739 q 739 663 753 707 q 725 529 725 618 q 740 402 725 447 q 775 337 754 357 q 817 308 796 317 q 832 235 828 279 q 835 142 836 190 q 826 50 833 94 q 807 -24 819 6 q 700 -15 765 -19 q 561 -6 635 -10 q 418 -1 488 -1 q 284 -6 354 -1 q 151 -15 214 -10 q 46 -24 88 -19 z "},"İ":{"ha":850,"x_min":10,"x_max":839,"o":"m 46 -24 q 26 50 33 6 q 18 142 19 94 q 22 235 17 190 q 36 308 26 279 q 78 337 57 317 q 114 402 100 357 q 128 529 128 447 q 111 663 128 618 q 73 724 94 708 q 36 740 51 740 q 17 808 24 765 q 10 901 10 851 q 19 997 11 950 q 42 1076 26 1043 q 66 1074 53 1075 q 101 1072 79 1074 q 120 867 71 946 q 263 774 169 789 q 175 860 208 806 q 142 982 142 914 q 169 1092 142 1039 q 260 1181 196 1146 q 432 1217 324 1217 q 624 1180 551 1217 q 731 1069 696 1143 q 774 1074 754 1072 q 811 1076 793 1075 q 832 997 825 1043 q 839 900 839 950 q 833 807 839 850 q 815 739 828 764 q 774 723 794 739 q 739 663 753 707 q 725 529 725 618 q 740 402 725 447 q 775 337 754 357 q 817 308 796 317 q 832 235 828 279 q 835 142 836 190 q 826 50 833 94 q 807 -24 819 6 q 700 -15 765 -19 q 561 -6 635 -10 q 418 -1 488 -1 q 284 -6 354 -1 q 151 -15 214 -10 q 46 -24 88 -19 z "},"Ị":{"ha":850,"x_min":10,"x_max":839,"o":"m 439 -240 q 209 -169 288 -240 q 131 7 131 -99 q 162 120 131 64 q 265 210 193 176 q 163 170 203 207 q 103 81 122 133 q 83 -21 83 29 q 59 -22 65 -22 q 46 -24 53 -22 q 26 50 33 6 q 18 142 19 94 q 22 235 17 190 q 36 308 26 279 q 78 337 57 317 q 114 402 100 357 q 128 529 128 447 q 111 663 128 618 q 73 724 94 708 q 36 740 51 740 q 17 808 24 765 q 10 901 10 851 q 19 997 11 950 q 42 1076 26 1043 q 149 1068 83 1074 q 287 1059 214 1063 q 422 1056 360 1056 q 565 1059 492 1056 q 704 1068 639 1063 q 811 1076 769 1074 q 832 997 825 1043 q 839 900 839 950 q 833 807 839 850 q 815 739 828 764 q 774 723 794 739 q 739 663 753 707 q 725 529 725 618 q 740 402 725 447 q 775 337 754 357 q 817 308 796 317 q 832 235 828 279 q 835 142 836 190 q 826 50 833 94 q 807 -24 819 6 q 775 -21 793 -22 q 738 -18 757 -19 q 705 -126 735 -75 q 610 -208 675 -176 q 439 -240 546 -240 z "},"Ì":{"ha":850,"x_min":11,"x_max":839,"o":"m 46 -24 q 26 50 33 6 q 18 142 19 94 q 22 235 17 190 q 36 308 26 279 q 78 337 57 317 q 114 402 100 357 q 128 529 128 447 q 111 663 128 618 q 73 724 94 708 q 36 740 51 740 q 17 807 24 765 q 11 898 11 849 q 18 992 11 947 q 124 842 56 907 q 281 754 192 778 q 173 852 225 793 q 83 979 121 911 q 33 1115 46 1047 q 110 1169 57 1146 q 233 1205 164 1192 q 375 1218 303 1218 q 475 1210 426 1218 q 564 1186 524 1203 q 597 1132 581 1164 q 624 1063 613 1100 q 729 1069 681 1065 q 811 1076 778 1074 q 832 997 825 1043 q 839 900 839 950 q 833 807 839 850 q 815 739 828 764 q 774 723 794 739 q 739 663 753 707 q 725 529 725 618 q 740 402 725 447 q 775 337 754 357 q 817 308 796 317 q 832 235 828 279 q 835 142 836 190 q 826 50 833 94 q 807 -24 819 6 q 700 -15 765 -19 q 561 -6 635 -10 q 418 -1 488 -1 q 284 -6 354 -1 q 151 -15 214 -10 q 46 -24 88 -19 z "},"Ỉ":{"ha":850,"x_min":10,"x_max":839,"o":"m 46 -24 q 26 50 33 6 q 18 142 19 94 q 22 235 17 190 q 36 308 26 279 q 78 337 57 317 q 114 402 100 357 q 128 529 128 447 q 111 663 128 618 q 73 724 94 708 q 36 740 51 740 q 17 808 24 765 q 10 901 10 851 q 19 997 11 950 q 42 1076 26 1043 q 58 1075 49 1075 q 76 1074 67 1075 q 86 933 74 996 q 117 846 99 869 q 193 843 160 851 q 251 817 226 835 q 205 877 236 861 q 138 888 174 893 q 123 957 128 915 q 118 1044 118 999 q 124 1128 118 1089 q 139 1189 129 1167 q 311 1206 226 1194 q 501 1217 396 1217 q 663 1178 603 1217 q 740 1071 722 1139 q 779 1074 761 1072 q 811 1076 797 1075 q 832 997 825 1043 q 839 900 839 950 q 833 807 839 850 q 815 739 828 764 q 774 723 794 739 q 739 663 753 707 q 725 529 725 618 q 740 402 725 447 q 775 337 754 357 q 817 308 796 317 q 832 235 828 279 q 835 142 836 190 q 826 50 833 94 q 807 -24 819 6 q 700 -15 765 -19 q 561 -6 635 -10 q 418 -1 488 -1 q 284 -6 354 -1 q 151 -15 214 -10 q 46 -24 88 -19 z "},"Ȋ":{"ha":850,"x_min":-6,"x_max":847,"o":"m 46 -24 q 26 50 33 6 q 18 142 19 94 q 22 235 17 190 q 36 308 26 279 q 78 337 57 317 q 114 402 100 357 q 128 529 128 447 q 118 636 128 594 q 94 700 108 678 q 178 706 135 699 q 249 725 222 713 q 175 731 221 726 q 85 743 129 735 q 15 764 40 751 q 37 1001 -6 900 q 182 1159 79 1103 q 440 1215 285 1215 q 622 1179 543 1215 q 753 1081 701 1143 q 826 937 806 1018 q 832 764 847 856 q 778 731 803 751 q 740 664 754 710 q 725 529 725 618 q 740 402 725 447 q 775 337 754 357 q 817 308 796 317 q 832 235 828 279 q 835 142 836 190 q 826 50 833 94 q 807 -24 819 6 q 700 -15 765 -19 q 561 -6 635 -10 q 418 -1 488 -1 q 284 -6 354 -1 q 151 -15 214 -10 q 46 -24 88 -19 z "},"Ī":{"ha":850,"x_min":11,"x_max":839,"o":"m 46 -24 q 26 50 33 6 q 18 142 19 94 q 22 235 17 190 q 36 308 26 279 q 78 337 57 317 q 114 402 100 357 q 128 529 128 447 q 111 663 128 618 q 73 724 94 708 q 36 740 51 740 q 24 776 28 758 l 281 775 q 144 813 213 803 q 17 819 75 822 q 12 906 11 856 q 17 1009 13 956 q 29 1110 22 1063 q 42 1186 36 1157 q 174 1179 99 1182 q 335 1176 250 1176 q 505 1176 419 1175 q 667 1179 590 1176 q 800 1186 743 1182 q 808 1138 806 1169 q 813 1074 811 1107 q 833 994 826 1040 q 839 898 839 947 q 833 806 839 849 q 815 739 828 764 q 774 723 794 739 q 739 663 753 707 q 725 529 725 618 q 740 402 725 447 q 775 337 754 357 q 817 308 796 317 q 832 235 828 279 q 835 142 836 190 q 826 50 833 94 q 807 -24 819 6 q 700 -15 765 -19 q 561 -6 635 -10 q 418 -1 488 -1 q 284 -6 354 -1 q 151 -15 214 -10 q 46 -24 88 -19 z "},"Į":{"ha":850,"x_min":10,"x_max":839,"o":"m 457 -236 q 273 -189 336 -236 q 210 -49 210 -142 q 226 45 210 -7 q 285 158 242 97 q 228 119 253 147 q 185 55 203 90 q 160 -14 168 19 l 46 -24 q 26 50 33 6 q 18 142 19 94 q 22 235 17 190 q 36 308 26 279 q 78 337 57 317 q 114 402 100 357 q 128 529 128 447 q 111 663 128 618 q 73 724 94 708 q 36 740 51 740 q 17 808 24 765 q 10 901 10 851 q 19 997 11 950 q 42 1076 26 1043 q 149 1068 83 1074 q 287 1059 214 1063 q 422 1056 360 1056 q 565 1059 492 1056 q 704 1068 639 1063 q 811 1076 769 1074 q 832 997 825 1043 q 839 900 839 950 q 833 807 839 850 q 815 739 828 764 q 774 723 794 739 q 739 663 753 707 q 725 529 725 618 q 740 402 725 447 q 776 337 754 357 q 819 308 797 317 q 833 191 829 263 q 835 41 836 119 q 828 -108 835 -37 q 810 -222 821 -178 q 697 -221 749 -217 q 590 -231 646 -225 q 457 -236 535 -236 z "},"Ĩ":{"ha":850,"x_min":11,"x_max":840,"o":"m 46 -24 q 26 50 33 6 q 18 142 19 94 q 22 235 17 190 q 36 308 26 279 q 78 337 57 317 q 114 402 100 357 q 128 529 128 447 q 111 663 128 618 q 73 724 94 708 q 36 740 51 740 l 271 740 q 154 768 228 756 q 11 786 81 781 q 37 1025 11 939 q 115 1147 63 1111 q 246 1182 167 1182 q 338 1172 296 1182 q 419 1151 381 1161 q 493 1140 458 1140 q 556 1153 531 1140 q 594 1188 581 1165 q 669 1183 624 1188 q 760 1169 715 1178 q 828 1149 804 1161 q 824 1039 828 1089 q 838 933 836 992 q 835 822 840 875 q 815 739 829 769 q 774 723 794 739 q 739 663 753 707 q 725 529 725 618 q 740 402 725 447 q 775 337 754 357 q 817 308 796 317 q 832 235 828 279 q 835 142 836 190 q 826 50 833 94 q 807 -24 819 6 q 700 -15 765 -19 q 561 -6 635 -10 q 418 -1 488 -1 q 284 -6 354 -1 q 151 -15 214 -10 q 46 -24 88 -19 z "},"J":{"ha":1226,"x_min":14,"x_max":1215,"o":"m 563 -47 q 156 57 299 -47 q 14 349 14 161 q 42 490 14 425 q 133 597 71 556 q 296 638 196 638 q 372 631 332 638 q 451 601 413 625 q 520 524 489 576 q 568 379 551 471 l 606 386 q 537 570 592 490 q 388 695 482 650 q 160 740 293 740 q 140 808 147 765 q 134 901 133 851 q 142 997 135 950 q 165 1076 150 1043 q 544 1060 397 1064 q 785 1056 690 1056 q 938 1059 861 1056 q 1080 1068 1014 1063 q 1188 1076 1146 1074 q 1208 997 1201 1043 q 1215 900 1215 950 q 1210 807 1215 850 q 1192 739 1204 764 q 1150 728 1171 739 q 1115 684 1129 717 q 1101 583 1101 651 q 1110 460 1101 518 q 1119 350 1119 401 q 1052 121 1119 208 q 860 -7 985 33 q 563 -47 735 -47 z "},"Ĵ":{"ha":1226,"x_min":14,"x_max":1215,"o":"m 563 -47 q 156 57 299 -47 q 14 349 14 161 q 42 490 14 425 q 133 597 71 556 q 296 638 196 638 q 372 631 332 638 q 451 601 413 625 q 520 524 489 576 q 568 379 551 471 l 606 386 q 537 570 592 490 q 388 695 482 650 q 160 740 293 740 q 140 808 147 765 q 134 901 133 851 q 142 997 135 950 q 165 1076 150 1043 q 239 1073 201 1075 q 307 1069 276 1071 q 281 976 286 1033 q 288 865 276 918 q 326 1005 297 939 q 394 1123 354 1071 q 478 1204 435 1175 q 576 1213 518 1211 q 692 1215 633 1215 q 812 1213 756 1215 q 897 1204 868 1210 q 962 1146 929 1182 q 1022 1064 994 1110 q 1115 1071 1071 1067 q 1188 1076 1158 1075 q 1208 997 1201 1043 q 1215 900 1215 950 q 1210 807 1215 850 q 1192 739 1204 764 q 1150 728 1171 739 q 1115 684 1129 717 q 1101 583 1101 651 q 1110 460 1101 518 q 1119 350 1119 401 q 1052 121 1119 208 q 860 -7 985 33 q 563 -47 735 -47 z "},"K":{"ha":1547,"x_min":11,"x_max":1536,"o":"m 44 -24 q 26 50 33 6 q 19 142 19 94 q 22 235 18 190 q 35 308 25 279 q 78 337 57 317 q 113 402 99 357 q 126 529 126 447 q 110 663 126 618 q 73 724 94 708 q 35 740 51 740 q 17 808 22 765 q 12 901 11 851 q 19 997 13 950 q 40 1076 26 1043 q 142 1069 79 1074 q 281 1060 204 1064 q 436 1057 357 1057 q 610 1064 539 1057 q 739 1076 682 1071 q 752 994 747 1043 q 758 890 757 944 q 756 790 758 836 q 746 718 753 743 l 700 718 l 699 575 q 779 717 761 640 q 797 882 797 793 q 794 972 797 924 q 785 1076 790 1021 q 870 1068 824 1074 q 992 1058 917 1063 q 1190 1054 1068 1054 q 1315 1058 1265 1054 q 1404 1067 1364 1063 q 1489 1076 1444 1072 q 1507 1003 1500 1047 q 1515 910 1514 958 q 1512 818 1515 863 q 1499 744 1508 774 q 1397 721 1439 740 q 1321 672 1354 701 q 1385 433 1336 517 q 1519 308 1435 349 q 1533 235 1529 279 q 1535 142 1536 190 q 1528 50 1535 94 q 1510 -24 1521 6 q 1383 -10 1453 -18 q 1211 -1 1314 -1 q 1003 -6 1082 -1 q 877 -15 925 -10 q 790 -24 829 -19 q 797 69 794 26 q 800 147 800 111 q 795 255 800 204 q 769 351 790 306 q 699 438 747 397 l 699 308 l 750 308 q 758 240 756 283 q 758 147 760 197 q 753 51 757 97 q 740 -24 749 6 q 663 -15 701 -19 q 572 -6 625 -10 q 435 -1 518 -1 q 201 -9 296 -1 q 44 -24 106 -17 z "},"Ķ":{"ha":1547,"x_min":11,"x_max":1536,"o":"m 817 -236 q 749 -241 796 -240 q 646 -240 701 -242 q 543 -235 590 -239 q 476 -226 496 -232 q 494 -124 486 -179 q 496 2 503 -68 q 451 163 489 72 q 449 71 453 113 q 425 -3 446 29 q 196 -10 286 -3 q 44 -24 106 -17 q 26 50 33 6 q 19 142 19 94 q 22 235 18 190 q 35 308 25 279 q 78 337 57 317 q 113 402 99 357 q 126 529 126 447 q 110 663 126 618 q 73 724 94 708 q 35 740 51 740 q 17 808 22 765 q 12 901 11 851 q 19 997 13 950 q 40 1076 26 1043 q 142 1069 79 1074 q 281 1060 204 1064 q 436 1057 357 1057 q 610 1064 539 1057 q 739 1076 682 1071 q 752 994 747 1043 q 758 890 757 944 q 756 790 758 836 q 746 718 753 743 l 700 718 l 699 575 q 779 717 761 640 q 797 882 797 793 q 794 972 797 924 q 785 1076 790 1021 q 870 1068 824 1074 q 992 1058 917 1063 q 1190 1054 1068 1054 q 1315 1058 1265 1054 q 1404 1067 1364 1063 q 1489 1076 1444 1072 q 1507 1003 1500 1047 q 1515 910 1514 958 q 1512 818 1515 863 q 1499 744 1508 774 q 1397 721 1439 740 q 1321 672 1354 701 q 1385 433 1336 517 q 1519 308 1435 349 q 1533 235 1529 279 q 1535 142 1536 190 q 1528 50 1535 94 q 1510 -24 1521 6 q 1383 -10 1453 -18 q 1211 -1 1314 -1 q 1120 -2 1160 -1 q 1044 -6 1081 -3 q 967 -135 1026 -78 q 817 -236 907 -192 m 697 261 l 747 261 l 747 388 l 697 388 l 697 261 z "},"L":{"ha":1263,"x_min":11,"x_max":1253,"o":"m 43 -24 q 25 56 31 10 q 18 150 19 101 q 22 241 17 199 q 35 308 26 283 q 73 331 51 314 q 110 393 94 349 q 126 524 126 438 q 113 653 126 607 q 79 718 100 699 q 35 740 58 738 q 17 815 22 769 q 12 908 11 860 q 19 1002 13 957 q 40 1076 26 1047 q 126 1070 74 1074 q 240 1063 179 1067 q 357 1058 300 1060 q 457 1056 414 1056 q 587 1059 519 1056 q 712 1068 654 1063 q 804 1076 769 1074 q 822 999 817 1047 q 825 897 826 950 q 818 794 824 843 q 801 717 813 746 q 752 691 768 717 q 731 624 736 665 q 726 535 726 582 l 726 390 l 767 390 q 767 517 764 456 q 776 604 771 578 q 922 619 840 615 q 1085 619 1003 622 q 1233 604 1168 615 q 1247 502 1242 568 q 1252 356 1251 436 q 1251 199 1253 276 q 1245 63 1250 122 q 1233 -24 1240 3 q 944 -12 1094 -21 q 636 -3 793 -3 q 469 -5 558 -3 q 293 -10 379 -7 q 140 -17 207 -14 q 43 -24 74 -21 z "},"Ǉ":{"ha":2489,"x_min":11,"x_max":2478,"o":"m 43 -24 q 25 56 31 10 q 18 150 19 101 q 22 241 17 199 q 35 308 26 283 q 73 331 51 314 q 110 393 94 349 q 126 524 126 438 q 113 653 126 607 q 79 718 100 699 q 35 740 58 738 q 17 815 22 769 q 12 908 11 860 q 19 1002 13 957 q 40 1076 26 1047 q 126 1070 74 1074 q 240 1063 179 1067 q 357 1058 300 1060 q 457 1056 414 1056 q 587 1059 519 1056 q 712 1068 654 1063 q 804 1076 769 1074 q 822 999 817 1047 q 825 897 826 950 q 818 794 824 843 q 801 717 813 746 q 752 691 768 717 q 731 624 736 665 q 726 535 726 582 l 726 390 l 767 390 q 767 517 764 456 q 776 604 771 578 q 922 619 840 615 q 1085 619 1003 622 q 1233 604 1168 615 q 1247 502 1242 568 q 1252 356 1251 436 q 1251 199 1253 276 q 1245 63 1250 122 q 1233 -24 1240 3 q 944 -12 1094 -21 q 636 -3 793 -3 q 469 -5 558 -3 q 293 -10 379 -7 q 140 -17 207 -14 q 43 -24 74 -21 m 1825 -47 q 1419 57 1561 -47 q 1276 349 1276 161 q 1305 490 1276 425 q 1396 597 1333 556 q 1558 638 1458 638 q 1635 631 1594 638 q 1713 601 1675 625 q 1783 524 1751 576 q 1831 379 1814 471 l 1868 386 q 1799 570 1854 490 q 1650 695 1744 650 q 1422 740 1556 740 q 1403 808 1410 765 q 1397 901 1396 851 q 1405 997 1397 950 q 1428 1076 1413 1043 q 1806 1060 1660 1064 q 2047 1056 1953 1056 q 2200 1059 2124 1056 q 2342 1068 2276 1063 q 2450 1076 2408 1074 q 2471 997 2464 1043 q 2478 900 2478 950 q 2472 807 2478 850 q 2454 739 2467 764 q 2413 728 2433 739 q 2378 684 2392 717 q 2364 583 2364 651 q 2373 460 2364 518 q 2382 350 2382 401 q 2315 121 2382 208 q 2122 -7 2247 33 q 1825 -47 1997 -47 z "},"Ĺ":{"ha":1263,"x_min":11,"x_max":1253,"o":"m 43 -24 q 25 56 31 10 q 18 150 19 101 q 22 241 17 199 q 35 308 26 283 q 73 331 51 314 q 110 393 94 349 q 126 524 126 438 q 113 653 126 607 q 79 718 100 699 q 35 740 58 738 q 17 815 22 769 q 12 908 11 860 q 19 1002 13 957 q 40 1076 26 1047 q 88 1073 64 1075 q 144 1068 111 1071 q 129 967 129 1021 q 147 865 129 913 q 206 792 165 818 q 175 910 179 843 q 190 1049 171 976 q 253 1186 210 1121 q 342 1210 293 1203 q 442 1218 390 1218 q 583 1205 514 1218 q 706 1169 653 1192 q 783 1115 760 1146 q 779 1095 782 1106 q 774 1075 776 1085 l 804 1076 q 822 999 817 1047 q 825 897 826 950 q 818 794 824 843 q 801 717 813 746 q 752 691 768 717 q 731 624 736 665 q 726 535 726 582 l 726 390 l 767 390 q 767 517 764 456 q 776 604 771 578 q 922 619 840 615 q 1085 619 1003 622 q 1233 604 1168 615 q 1247 502 1242 568 q 1252 356 1251 436 q 1251 199 1253 276 q 1245 63 1250 122 q 1233 -24 1240 3 q 944 -12 1094 -21 q 636 -3 793 -3 q 469 -5 558 -3 q 293 -10 379 -7 q 140 -17 207 -14 q 43 -24 74 -21 z "},"Ľ":{"ha":1263,"x_min":11,"x_max":1253,"o":"m 43 -24 q 25 56 31 10 q 18 150 19 101 q 22 241 17 199 q 35 308 26 283 q 73 331 51 314 q 110 393 94 349 q 126 524 126 438 q 113 653 126 607 q 79 718 100 699 q 35 740 58 738 q 17 815 22 769 q 12 908 11 860 q 19 1002 13 957 q 40 1076 26 1047 q 219 1063 140 1068 q 370 1058 297 1058 q 526 1057 443 1057 q 537 943 528 1003 q 576 828 546 883 q 572 929 572 869 q 576 1046 571 989 q 592 1136 581 1103 q 693 1177 624 1164 q 842 1190 763 1190 q 951 1183 897 1190 q 1045 1163 1004 1176 q 1106 1131 1086 1150 q 1072 913 1099 1025 q 1006 703 1046 800 q 963 690 996 696 q 886 681 929 685 q 800 678 843 678 q 726 685 757 679 l 726 390 l 767 390 q 767 517 764 456 q 776 604 771 578 q 922 619 840 615 q 1085 619 1003 622 q 1233 604 1168 615 q 1247 502 1242 568 q 1252 356 1251 436 q 1251 199 1253 276 q 1245 63 1250 122 q 1233 -24 1240 3 q 944 -12 1094 -21 q 636 -3 793 -3 q 469 -5 558 -3 q 293 -10 379 -7 q 140 -17 207 -14 q 43 -24 74 -21 z "},"Ļ":{"ha":1263,"x_min":11,"x_max":1253,"o":"m 665 -236 q 597 -241 644 -240 q 494 -240 550 -242 q 392 -235 439 -239 q 325 -226 344 -232 q 343 -124 335 -179 q 344 2 351 -68 q 300 163 338 72 q 298 67 301 113 q 271 -11 294 22 q 135 -17 199 -14 q 43 -24 72 -21 q 25 56 31 10 q 18 150 19 101 q 22 241 17 199 q 35 308 26 283 q 73 331 51 314 q 110 393 94 349 q 126 524 126 438 q 113 653 126 607 q 79 718 100 699 q 35 740 58 738 q 17 815 22 769 q 12 908 11 860 q 19 1002 13 957 q 40 1076 26 1047 q 126 1070 74 1074 q 240 1063 179 1067 q 357 1058 300 1060 q 457 1056 414 1056 q 587 1059 519 1056 q 712 1068 654 1063 q 804 1076 769 1074 q 822 999 817 1047 q 825 897 826 950 q 818 794 824 843 q 801 717 813 746 q 752 691 768 717 q 731 624 736 665 q 726 535 726 582 l 726 390 l 767 390 q 767 517 764 456 q 776 604 771 578 q 922 619 840 615 q 1085 619 1003 622 q 1233 604 1168 615 q 1247 502 1242 568 q 1252 356 1251 436 q 1251 199 1253 276 q 1245 63 1250 122 q 1233 -24 1240 3 q 1067 -18 1153 -22 q 893 -10 981 -14 q 814 -136 874 -79 q 665 -236 754 -193 z "},"Ŀ":{"ha":1346,"x_min":11,"x_max":1346,"o":"m 43 -24 q 25 56 31 10 q 18 150 19 101 q 22 241 17 199 q 35 308 26 283 q 73 331 51 314 q 110 393 94 349 q 126 524 126 438 q 113 653 126 607 q 79 718 100 699 q 35 740 58 738 q 17 815 22 769 q 12 908 11 860 q 19 1002 13 957 q 40 1076 26 1047 q 126 1070 74 1074 q 240 1063 179 1067 q 357 1058 300 1060 q 457 1056 414 1056 q 587 1059 519 1056 q 712 1068 654 1063 q 804 1076 769 1074 q 820 1003 815 1047 q 825 910 825 960 q 819 812 825 860 q 804 728 814 764 q 1031 788 885 788 q 1346 531 1346 788 q 1254 329 1346 396 q 1251 217 1253 275 q 1245 108 1249 160 q 1239 22 1242 57 q 1233 -24 1236 -14 q 944 -12 1094 -21 q 636 -3 793 -3 q 469 -5 558 -3 q 293 -10 379 -7 q 140 -17 207 -14 q 43 -24 74 -21 m 1026 271 q 718 524 722 271 q 705 394 693 450 q 753 302 717 339 q 844 247 790 265 q 957 228 897 228 q 1060 242 1010 228 q 1154 285 1111 257 q 1026 271 1100 271 z "},"ǈ":{"ha":1997,"x_min":11,"x_max":1986,"o":"m 43 -24 q 25 56 31 10 q 18 150 19 101 q 22 241 17 199 q 35 308 26 283 q 73 331 51 314 q 110 393 94 349 q 126 524 126 438 q 113 653 126 607 q 79 718 100 699 q 35 740 58 738 q 17 815 22 769 q 12 908 11 860 q 19 1002 13 957 q 40 1076 26 1047 q 126 1070 74 1074 q 240 1063 179 1067 q 357 1058 300 1060 q 457 1056 414 1056 q 587 1059 519 1056 q 712 1068 654 1063 q 804 1076 769 1074 q 822 999 817 1047 q 825 897 826 950 q 818 794 824 843 q 801 717 813 746 q 752 691 768 717 q 731 624 736 665 q 726 535 726 582 l 726 390 l 767 390 q 767 517 764 456 q 776 604 771 578 q 922 619 840 615 q 1085 619 1003 622 q 1233 604 1168 615 q 1247 502 1242 568 q 1252 356 1251 436 q 1251 199 1253 276 q 1245 63 1250 122 q 1233 -24 1240 3 q 944 -12 1094 -21 q 636 -3 793 -3 q 469 -5 558 -3 q 293 -10 379 -7 q 140 -17 207 -14 q 43 -24 74 -21 m 1425 -240 q 1377 -240 1396 -240 q 1341 -237 1358 -239 q 1296 -232 1324 -235 q 1273 -138 1279 -193 q 1270 -28 1267 -83 q 1286 69 1274 28 q 1317 172 1304 125 q 1337 273 1329 218 q 1344 407 1344 328 q 1322 536 1344 485 q 1272 616 1299 588 q 1231 651 1244 644 q 1212 719 1218 675 q 1206 814 1206 763 q 1214 913 1207 865 q 1235 990 1221 960 l 1315 983 q 1350 835 1310 897 q 1460 747 1390 774 q 1610 736 1531 721 q 1487 772 1543 739 q 1397 859 1431 804 q 1363 982 1363 914 q 1390 1092 1363 1039 q 1481 1181 1417 1146 q 1653 1217 1544 1217 q 1906 1130 1826 1217 q 1986 874 1986 1043 q 1978 765 1986 813 q 1960 673 1971 718 q 1941 574 1949 628 q 1933 443 1933 519 q 1944 262 1933 347 q 1961 104 1956 176 q 1949 -26 1967 32 q 1783 -194 1910 -149 q 1425 -240 1657 -240 z "},"Ł":{"ha":1263,"x_min":11,"x_max":1253,"o":"m 43 -24 q 25 56 31 10 q 18 150 19 101 q 22 241 17 199 q 35 308 26 283 q 66 324 49 313 q 97 364 83 336 q 44 503 61 440 q 32 622 28 567 q 135 644 97 633 q 197 668 174 654 q 242 701 221 682 l 106 682 q 73 724 92 710 q 35 740 54 739 q 17 815 22 769 q 12 908 11 860 q 19 1002 13 957 q 40 1076 26 1047 q 126 1070 74 1074 q 240 1063 179 1067 q 357 1058 300 1060 q 457 1056 414 1056 q 587 1059 519 1056 q 712 1068 654 1063 q 804 1076 769 1074 q 820 1007 815 1050 q 825 916 825 964 q 821 824 825 868 q 893 847 857 835 q 967 872 929 860 q 1051 621 1043 728 q 1147 615 1100 619 q 1233 604 1194 611 q 1247 502 1242 568 q 1252 356 1251 436 q 1251 199 1253 276 q 1245 63 1250 122 q 1233 -24 1240 3 q 944 -12 1094 -21 q 636 -3 793 -3 q 469 -5 558 -3 q 293 -10 379 -7 q 140 -17 207 -14 q 43 -24 74 -21 m 726 390 l 767 390 l 767 507 l 726 507 l 726 390 z "},"M":{"ha":1692,"x_min":11,"x_max":1681,"o":"m 38 -24 q 19 50 26 6 q 12 142 13 94 q 15 235 11 190 q 28 308 18 279 q 75 336 50 317 q 123 400 100 356 q 158 525 146 444 q 164 634 169 592 q 144 699 158 676 q 113 731 129 722 q 86 740 97 740 q 68 808 74 765 q 63 901 63 851 q 71 997 64 950 q 92 1076 78 1043 q 220 1064 144 1071 q 392 1057 296 1057 q 556 1060 469 1057 q 725 1067 643 1063 q 868 1076 807 1071 q 865 944 860 1024 q 907 792 869 865 q 912 945 908 868 q 925 1076 915 1022 q 1035 1069 983 1074 q 1142 1060 1086 1064 q 1271 1057 1199 1057 q 1379 1060 1318 1057 q 1497 1069 1440 1064 q 1589 1076 1554 1074 q 1610 997 1603 1043 q 1617 901 1617 950 q 1613 808 1618 851 q 1594 740 1607 765 q 1569 731 1585 740 q 1540 699 1553 722 q 1524 635 1526 676 q 1535 528 1521 594 q 1574 402 1553 447 q 1619 337 1596 357 q 1664 308 1642 317 q 1677 235 1674 279 q 1680 142 1681 190 q 1672 50 1679 94 q 1654 -24 1665 6 q 1516 -10 1597 -18 q 1311 -1 1435 -1 q 1087 -10 1193 -1 q 924 -24 981 -18 q 914 50 918 6 q 908 142 910 94 q 908 235 907 190 q 914 308 910 279 l 963 308 l 949 464 l 867 228 l 597 346 l 581 308 l 732 240 q 793 210 764 226 q 843 168 822 194 q 872 97 864 142 q 868 -24 879 51 q 794 -17 842 -21 q 690 -10 747 -14 q 572 -4 632 -7 q 458 -1 511 -1 q 198 -10 304 -1 q 38 -24 92 -18 z "},"N":{"ha":1485,"x_min":11,"x_max":1474,"o":"m 44 -24 q 26 50 33 6 q 19 142 19 94 q 22 235 18 190 q 35 308 25 279 q 78 337 57 317 q 113 402 99 357 q 126 529 126 447 q 110 663 126 618 q 73 724 94 708 q 35 740 51 740 q 17 808 22 765 q 12 901 11 851 q 19 997 13 950 q 40 1076 26 1043 q 131 1069 79 1074 q 238 1060 183 1064 q 340 1057 293 1057 q 553 1062 442 1057 q 814 1076 665 1067 q 797 926 792 985 q 847 825 801 868 q 989 736 893 782 l 1007 772 q 880 851 919 814 q 838 940 840 888 q 856 1076 835 992 q 991 1065 915 1075 q 1164 1056 1067 1056 q 1320 1063 1250 1056 q 1447 1076 1390 1071 q 1467 997 1460 1043 q 1474 900 1474 950 q 1468 807 1474 850 q 1451 739 1463 764 q 1413 723 1435 739 q 1376 663 1392 707 q 1361 529 1361 618 q 1375 402 1361 447 q 1410 337 1389 357 q 1453 308 1431 317 q 1466 235 1463 279 q 1469 142 1469 190 q 1461 50 1468 94 q 1443 -24 1454 6 q 1303 -9 1388 -17 q 1129 -1 1219 -1 q 903 -10 1013 -1 q 665 -24 793 -18 q 681 131 685 68 q 643 241 676 193 q 543 332 610 289 l 521 299 q 608 215 581 258 q 638 113 636 171 q 622 -24 640 56 q 510 -10 576 -18 q 354 -1 444 -1 q 185 -10 269 -1 q 44 -24 101 -18 z "},"Ǌ":{"ha":2711,"x_min":11,"x_max":2700,"o":"m 44 -24 q 26 50 33 6 q 19 142 19 94 q 22 235 18 190 q 35 308 25 279 q 78 337 57 317 q 113 402 99 357 q 126 529 126 447 q 110 663 126 618 q 73 724 94 708 q 35 740 51 740 q 17 808 22 765 q 12 901 11 851 q 19 997 13 950 q 40 1076 26 1043 q 131 1069 79 1074 q 238 1060 183 1064 q 340 1057 293 1057 q 553 1062 442 1057 q 814 1076 665 1067 q 797 926 792 985 q 847 825 801 868 q 989 736 893 782 l 1007 772 q 880 851 919 814 q 838 940 840 888 q 856 1076 835 992 q 991 1065 915 1075 q 1164 1056 1067 1056 q 1320 1063 1250 1056 q 1447 1076 1390 1071 q 1467 997 1460 1043 q 1474 900 1474 950 q 1468 807 1474 850 q 1451 739 1463 764 q 1413 723 1435 739 q 1376 663 1392 707 q 1361 529 1361 618 q 1375 402 1361 447 q 1410 337 1389 357 q 1453 308 1431 317 q 1466 235 1463 279 q 1469 142 1469 190 q 1461 50 1468 94 q 1443 -24 1454 6 q 1303 -9 1388 -17 q 1129 -1 1219 -1 q 903 -10 1013 -1 q 665 -24 793 -18 q 681 131 685 68 q 643 241 676 193 q 543 332 610 289 l 521 299 q 608 215 581 258 q 638 113 636 171 q 622 -24 640 56 q 510 -10 576 -18 q 354 -1 444 -1 q 185 -10 269 -1 q 44 -24 101 -18 m 2047 -47 q 1641 57 1783 -47 q 1499 349 1499 161 q 1527 490 1499 425 q 1618 597 1556 556 q 1781 638 1681 638 q 1857 631 1817 638 q 1935 601 1897 625 q 2005 524 1974 576 q 2053 379 2036 471 l 2090 386 q 2022 570 2076 490 q 1872 695 1967 650 q 1644 740 1778 740 q 1625 808 1632 765 q 1619 901 1618 851 q 1627 997 1619 950 q 1650 1076 1635 1043 q 2028 1060 1882 1064 q 2269 1056 2175 1056 q 2422 1059 2346 1056 q 2565 1068 2499 1063 q 2672 1076 2631 1074 q 2693 997 2686 1043 q 2700 900 2700 950 q 2694 807 2700 850 q 2676 739 2689 764 q 2635 728 2656 739 q 2600 684 2614 717 q 2586 583 2586 651 q 2595 460 2586 518 q 2604 350 2604 401 q 2537 121 2604 208 q 2344 -7 2469 33 q 2047 -47 2219 -47 z "},"Ń":{"ha":1485,"x_min":11,"x_max":1474,"o":"m 44 -24 q 26 50 33 6 q 19 142 19 94 q 22 235 18 190 q 35 308 25 279 q 78 337 57 317 q 113 402 99 357 q 126 529 126 447 q 110 663 126 618 q 73 724 94 708 q 35 740 51 740 q 17 808 22 765 q 12 901 11 851 q 19 997 13 950 q 40 1076 26 1043 q 131 1069 79 1074 q 238 1060 183 1064 q 340 1057 293 1057 q 394 1058 367 1057 q 449 1058 421 1058 q 437 970 440 1017 q 441 880 433 924 q 474 801 449 836 q 547 749 499 767 q 490 869 504 796 q 494 1027 475 943 q 567 1186 513 1111 q 656 1210 607 1203 q 756 1218 704 1218 q 897 1205 828 1218 q 1020 1169 967 1192 q 1097 1115 1074 1146 q 1082 1057 1093 1093 q 1122 1056 1101 1057 q 1164 1056 1142 1056 q 1320 1063 1250 1056 q 1447 1076 1390 1071 q 1467 997 1460 1043 q 1474 900 1474 950 q 1468 807 1474 850 q 1451 739 1463 764 q 1413 723 1435 739 q 1376 663 1392 707 q 1361 529 1361 618 q 1375 402 1361 447 q 1410 337 1389 357 q 1453 308 1431 317 q 1466 235 1463 279 q 1469 142 1469 190 q 1461 50 1468 94 q 1443 -24 1454 6 q 1303 -9 1388 -17 q 1129 -1 1219 -1 q 903 -10 1013 -1 q 665 -24 793 -18 q 681 131 685 68 q 643 241 676 193 q 543 332 610 289 l 521 299 q 608 215 581 258 q 638 113 636 171 q 622 -24 640 56 q 510 -10 576 -18 q 354 -1 444 -1 q 185 -10 269 -1 q 44 -24 101 -18 m 985 693 l 1031 693 l 1031 806 l 985 806 l 985 693 z "},"Ň":{"ha":1485,"x_min":11,"x_max":1474,"o":"m 44 -24 q 26 50 33 6 q 19 142 19 94 q 22 235 18 190 q 35 308 25 279 q 78 337 57 317 q 113 402 99 357 q 126 529 126 447 q 110 663 126 618 q 73 724 94 708 q 35 740 51 740 q 17 808 22 765 q 12 901 11 851 q 19 997 13 950 q 40 1076 26 1043 q 190 1065 111 1071 q 343 1057 268 1058 q 372 950 346 1007 q 441 847 399 893 q 533 778 483 800 q 454 892 490 825 q 400 1033 418 958 q 393 1176 382 1107 q 463 1197 418 1189 q 553 1210 507 1206 q 626 1215 599 1215 q 695 1187 657 1207 q 768 1140 733 1167 q 731 1103 750 1122 q 693 1063 713 1083 l 728 1039 q 846 1153 785 1104 q 963 1215 907 1201 q 1043 1210 994 1215 q 1139 1197 1092 1206 q 1210 1176 1186 1189 q 1206 1056 1218 1118 q 1338 1065 1278 1058 q 1447 1076 1397 1072 q 1467 997 1460 1043 q 1474 900 1474 950 q 1468 807 1474 850 q 1451 739 1463 764 q 1413 723 1435 739 q 1376 663 1392 707 q 1361 529 1361 618 q 1375 402 1361 447 q 1410 337 1389 357 q 1453 308 1431 317 q 1466 235 1463 279 q 1469 142 1469 190 q 1461 50 1468 94 q 1443 -24 1454 6 q 1303 -9 1388 -17 q 1129 -1 1219 -1 q 903 -10 1013 -1 q 665 -24 793 -18 q 681 131 685 68 q 643 241 676 193 q 543 332 610 289 l 521 299 q 608 215 581 258 q 638 113 636 171 q 622 -24 640 56 q 510 -10 576 -18 q 354 -1 444 -1 q 185 -10 269 -1 q 44 -24 101 -18 m 985 693 l 1031 693 l 1031 764 l 985 764 l 985 693 z "},"Ņ":{"ha":1485,"x_min":11,"x_max":1474,"o":"m 842 -236 q 797 -240 828 -239 q 729 -242 767 -242 q 640 -240 686 -242 q 556 -234 593 -237 q 501 -226 518 -231 q 515 -140 508 -193 q 524 -23 522 -87 q 513 111 525 42 q 467 246 500 181 q 471 149 471 199 q 468 60 471 100 q 457 -3 465 19 q 263 -7 361 -3 q 44 -24 165 -11 q 26 50 33 6 q 19 142 19 94 q 22 235 18 190 q 35 308 25 279 q 78 337 57 317 q 113 402 99 357 q 126 529 126 447 q 110 663 126 618 q 73 724 94 708 q 35 740 51 740 q 17 808 22 765 q 12 901 11 851 q 19 997 13 950 q 40 1076 26 1043 q 131 1069 79 1074 q 238 1060 183 1064 q 340 1057 293 1057 q 553 1062 442 1057 q 814 1076 665 1067 q 797 926 792 985 q 847 825 801 868 q 989 736 893 782 l 1007 772 q 880 851 919 814 q 838 940 840 888 q 856 1076 835 992 q 991 1065 915 1075 q 1164 1056 1067 1056 q 1320 1063 1250 1056 q 1447 1076 1390 1071 q 1467 997 1460 1043 q 1474 900 1474 950 q 1468 807 1474 850 q 1451 739 1463 764 q 1413 723 1435 739 q 1376 663 1392 707 q 1361 529 1361 618 q 1375 402 1361 447 q 1410 337 1389 357 q 1453 308 1431 317 q 1466 235 1463 279 q 1469 142 1469 190 q 1461 50 1468 94 q 1443 -24 1454 6 q 1357 -13 1407 -18 q 1255 -5 1307 -8 q 1157 -1 1203 -1 q 1120 -2 1140 -1 q 1069 -6 1100 -3 q 992 -135 1051 -78 q 842 -236 932 -192 z "},"Ŋ":{"ha":1485,"x_min":11,"x_max":1474,"o":"m 872 -240 q 778 -239 828 -240 q 675 -232 728 -237 q 652 -118 651 -174 q 667 0 653 -62 q 680 142 685 83 q 642 245 675 200 q 543 332 610 290 l 521 299 q 608 215 581 258 q 638 113 636 171 q 622 -24 640 56 q 510 -10 576 -18 q 354 -1 444 -1 q 185 -10 269 -1 q 44 -24 101 -18 q 26 50 33 6 q 19 142 19 94 q 22 235 18 190 q 35 308 25 279 q 78 337 57 317 q 113 402 99 357 q 126 529 126 447 q 110 663 126 618 q 73 724 94 708 q 35 740 51 740 q 17 808 22 765 q 12 901 11 851 q 19 997 13 950 q 40 1076 26 1043 q 131 1069 79 1074 q 238 1060 183 1064 q 340 1057 293 1057 q 553 1062 442 1057 q 814 1076 665 1067 q 797 926 792 985 q 847 825 801 868 q 989 736 893 782 l 1007 772 q 880 851 919 814 q 838 940 840 888 q 856 1076 835 992 q 991 1065 915 1075 q 1164 1056 1067 1056 q 1320 1063 1250 1056 q 1447 1076 1390 1071 q 1467 997 1460 1043 q 1474 900 1474 950 q 1468 807 1474 850 q 1451 739 1463 764 q 1413 724 1435 739 q 1376 667 1392 708 q 1361 543 1361 625 q 1370 417 1361 469 q 1391 319 1379 364 q 1412 225 1403 274 q 1421 113 1421 176 q 1379 -62 1421 7 q 1263 -169 1338 -131 q 1088 -224 1188 -208 q 872 -240 989 -240 z "},"Ɲ":{"ha":1485,"x_min":-19,"x_max":1474,"o":"m 197 -243 q 101 -240 150 -243 q 8 -232 53 -237 q -17 -122 -15 -187 q 3 0 -19 -57 q 53 72 29 28 q 94 198 78 117 q 111 418 111 279 q 104 591 111 526 q 86 688 97 656 q 61 730 75 719 q 35 740 47 740 q 17 808 22 765 q 12 901 11 851 q 19 997 13 950 q 40 1076 26 1043 q 131 1069 79 1074 q 238 1060 183 1064 q 340 1057 293 1057 q 553 1062 442 1057 q 814 1076 665 1067 q 797 926 792 985 q 847 825 801 868 q 989 736 893 782 l 1007 772 q 880 851 919 814 q 838 940 840 888 q 856 1076 835 992 q 991 1065 915 1075 q 1164 1056 1067 1056 q 1320 1063 1250 1056 q 1447 1076 1390 1071 q 1467 997 1460 1043 q 1474 900 1474 950 q 1468 807 1474 850 q 1451 739 1463 764 q 1413 723 1435 739 q 1376 663 1392 707 q 1361 529 1361 618 q 1375 402 1361 447 q 1410 337 1389 357 q 1453 308 1431 317 q 1466 235 1463 279 q 1469 142 1469 190 q 1461 50 1468 94 q 1443 -24 1454 6 q 1303 -9 1388 -17 q 1129 -1 1219 -1 q 917 -9 1019 -1 q 697 -22 814 -17 q 699 -1 699 -11 q 699 19 699 10 q 663 188 699 114 q 547 329 626 261 l 521 299 q 624 174 590 239 q 658 19 658 110 q 599 -132 658 -74 q 436 -217 540 -190 q 197 -243 332 -243 z "},"ǋ":{"ha":2288,"x_min":11,"x_max":2276,"o":"m 44 -24 q 26 50 33 6 q 19 142 19 94 q 22 235 18 190 q 35 308 25 279 q 78 337 57 317 q 113 402 99 357 q 126 529 126 447 q 110 663 126 618 q 73 724 94 708 q 35 740 51 740 q 17 808 22 765 q 12 901 11 851 q 19 997 13 950 q 40 1076 26 1043 q 131 1069 79 1074 q 238 1060 183 1064 q 340 1057 293 1057 q 553 1062 442 1057 q 814 1076 665 1067 q 797 926 792 985 q 847 825 801 868 q 989 736 893 782 l 1007 772 q 880 851 919 814 q 838 940 840 888 q 856 1076 835 992 q 991 1065 915 1075 q 1164 1056 1067 1056 q 1320 1063 1250 1056 q 1447 1076 1390 1071 q 1467 997 1460 1043 q 1474 900 1474 950 q 1468 807 1474 850 q 1451 739 1463 764 q 1413 723 1435 739 q 1376 663 1392 707 q 1361 529 1361 618 q 1375 402 1361 447 q 1410 337 1389 357 q 1453 308 1431 317 q 1466 235 1463 279 q 1469 142 1469 190 q 1461 50 1468 94 q 1443 -24 1454 6 q 1303 -9 1388 -17 q 1129 -1 1219 -1 q 903 -10 1013 -1 q 665 -24 793 -18 q 681 131 685 68 q 643 241 676 193 q 543 332 610 289 l 521 299 q 608 215 581 258 q 638 113 636 171 q 622 -24 640 56 q 510 -10 576 -18 q 354 -1 444 -1 q 185 -10 269 -1 q 44 -24 101 -18 m 1715 -240 q 1621 -239 1671 -240 q 1518 -232 1571 -237 q 1496 -142 1501 -193 q 1494 -40 1490 -92 q 1510 53 1497 13 q 1599 182 1563 97 q 1635 407 1635 267 q 1612 536 1635 485 q 1562 616 1589 588 q 1521 651 1535 644 q 1502 719 1508 675 q 1497 814 1496 763 q 1504 913 1497 865 q 1525 990 1511 960 l 1606 983 q 1640 835 1600 897 q 1751 747 1681 774 q 1900 736 1821 721 q 1777 772 1833 739 q 1687 859 1721 804 q 1653 982 1653 914 q 1680 1092 1653 1039 q 1771 1181 1707 1146 q 1943 1217 1835 1217 q 2197 1130 2117 1217 q 2276 874 2276 1043 q 2269 765 2276 813 q 2250 673 2261 718 q 2231 574 2239 628 q 2224 443 2224 519 q 2235 262 2224 347 q 2251 104 2246 176 q 2239 -26 2257 32 q 2074 -194 2200 -149 q 1715 -240 1947 -240 z "},"Ñ":{"ha":1485,"x_min":11,"x_max":1474,"o":"m 44 -24 q 26 50 33 6 q 19 142 19 94 q 22 235 18 190 q 35 308 25 279 q 78 337 57 317 q 113 402 99 357 q 126 529 126 447 q 110 663 126 618 q 73 724 94 708 q 35 740 51 740 q 17 808 22 765 q 12 901 11 851 q 19 997 13 950 q 40 1076 26 1043 q 155 1067 88 1072 q 286 1058 222 1061 q 274 906 268 979 q 301 799 279 833 q 364 1094 306 1006 q 536 1182 422 1182 q 628 1172 586 1182 q 710 1151 671 1161 q 783 1140 749 1140 q 846 1153 821 1140 q 885 1188 871 1165 q 960 1183 914 1188 q 1050 1169 1006 1178 q 1118 1149 1094 1161 q 1117 1101 1118 1124 q 1115 1057 1117 1078 q 1139 1056 1126 1056 q 1164 1056 1151 1056 q 1320 1063 1250 1056 q 1447 1076 1390 1071 q 1467 997 1460 1043 q 1474 900 1474 950 q 1468 807 1474 850 q 1451 739 1463 764 q 1413 723 1435 739 q 1376 663 1392 707 q 1361 529 1361 618 q 1375 402 1361 447 q 1410 337 1389 357 q 1453 308 1431 317 q 1466 235 1463 279 q 1469 142 1469 190 q 1461 50 1468 94 q 1443 -24 1454 6 q 1303 -9 1388 -17 q 1129 -1 1219 -1 q 903 -10 1013 -1 q 665 -24 793 -18 q 681 131 685 68 q 643 241 676 193 q 543 332 610 289 l 521 299 q 608 215 581 258 q 638 113 636 171 q 622 -24 640 56 q 510 -10 576 -18 q 354 -1 444 -1 q 185 -10 269 -1 q 44 -24 101 -18 m 985 693 l 1031 693 l 1031 771 l 985 771 l 985 693 z "},"O":{"ha":1400,"x_min":14,"x_max":1386,"o":"m 688 -49 q 184 93 354 -49 q 14 513 14 235 q 186 961 14 818 q 694 1104 358 1104 q 1219 963 1053 1104 q 1386 549 1386 822 q 1210 95 1386 239 q 688 -49 1033 -49 m 657 439 l 742 439 l 742 618 l 657 618 l 657 439 z "},"Ó":{"ha":1400,"x_min":14,"x_max":1386,"o":"m 688 -49 q 184 93 354 -49 q 14 513 14 235 q 109 874 14 738 q 389 1067 204 1011 q 374 989 379 1036 q 376 891 368 942 q 413 798 383 840 q 506 733 443 756 q 434 853 453 776 q 433 1018 415 929 q 507 1186 450 1107 q 596 1210 547 1203 q 696 1218 644 1218 q 838 1205 768 1218 q 960 1169 907 1192 q 1038 1115 1014 1146 q 1033 1092 1036 1106 q 1024 1063 1029 1078 q 1298 877 1210 1007 q 1386 549 1386 747 q 1210 95 1386 239 q 688 -49 1033 -49 m 657 439 l 742 439 l 742 618 l 657 618 l 657 439 z "},"Ŏ":{"ha":1400,"x_min":14,"x_max":1386,"o":"m 688 -49 q 184 93 354 -49 q 14 513 14 235 q 71 810 14 689 q 242 1001 128 931 q 326 848 265 913 q 483 768 386 783 q 321 934 374 824 q 289 1176 268 1044 q 360 1197 314 1189 q 456 1210 407 1206 q 536 1215 506 1215 q 704 1153 581 1153 q 872 1215 831 1153 q 947 1210 901 1215 q 1038 1197 993 1206 q 1106 1176 1082 1189 q 1108 1032 1118 1097 q 1319 847 1251 968 q 1386 549 1386 725 q 1210 95 1386 239 q 688 -49 1033 -49 m 657 439 l 742 439 l 742 618 l 657 618 l 657 439 z "},"Ô":{"ha":1400,"x_min":14,"x_max":1386,"o":"m 688 -49 q 184 93 354 -49 q 14 513 14 235 q 79 822 14 692 q 292 1029 144 953 q 278 941 282 990 q 278 847 274 892 q 297 776 282 801 q 364 1035 310 921 q 497 1204 418 1150 q 594 1213 538 1211 q 711 1215 651 1215 q 831 1213 775 1215 q 917 1204 888 1210 q 1047 1058 986 1157 q 1303 872 1219 1000 q 1386 549 1386 744 q 1210 95 1386 239 q 688 -49 1033 -49 m 657 439 l 742 439 l 742 618 l 657 618 l 657 439 z "},"Ố":{"ha":1400,"x_min":14,"x_max":1386,"o":"m 688 -49 q 184 93 354 -49 q 14 513 14 235 q 79 822 14 692 q 292 1029 144 953 q 278 941 282 990 q 278 847 274 892 q 297 776 282 801 q 364 1035 310 921 q 497 1204 418 1150 q 571 1212 529 1210 q 658 1215 613 1214 q 649 1071 636 1135 q 707 971 661 1007 q 683 1087 681 1025 q 706 1203 686 1149 q 750 1290 726 1258 q 824 1311 783 1306 q 907 1317 864 1317 q 1024 1306 967 1317 q 1126 1276 1082 1294 q 1189 1232 1169 1257 q 1165 1152 1186 1200 q 1100 1038 1144 1104 q 1315 851 1244 974 q 1386 549 1386 729 q 1210 95 1386 239 q 688 -49 1033 -49 m 657 439 l 742 439 l 742 618 l 657 618 l 657 439 z "},"Ộ":{"ha":1400,"x_min":14,"x_max":1386,"o":"m 707 -240 q 477 -169 556 -240 q 399 7 399 -99 q 430 120 399 64 q 533 210 461 176 q 436 174 475 207 q 377 94 397 142 q 353 0 357 47 q 14 513 14 119 q 79 822 14 692 q 292 1029 144 953 q 278 940 283 990 q 276 846 272 890 q 297 776 281 801 q 364 1035 310 921 q 497 1204 418 1150 q 594 1213 538 1211 q 711 1215 651 1215 q 831 1213 775 1215 q 917 1204 888 1210 q 1047 1058 986 1157 q 1303 872 1219 1000 q 1386 549 1386 744 q 1290 184 1386 321 q 1006 -10 1194 47 q 976 -121 1006 -68 q 882 -207 947 -174 q 707 -240 817 -240 m 657 439 l 742 439 l 742 618 l 657 618 l 657 439 z "},"Ồ":{"ha":1400,"x_min":14,"x_max":1386,"o":"m 688 -49 q 184 93 354 -49 q 14 513 14 235 q 79 822 14 692 q 292 1029 144 953 q 278 941 282 990 q 278 847 274 892 q 297 776 282 801 q 364 1035 310 921 q 497 1204 418 1150 q 571 1212 529 1210 q 658 1215 613 1214 q 730 1072 681 1135 q 856 985 779 1008 q 760 1103 803 1036 q 706 1239 717 1171 q 769 1283 725 1264 q 870 1313 813 1301 q 988 1324 928 1324 q 1071 1318 1031 1324 q 1144 1297 1111 1313 q 1188 1213 1168 1267 q 1213 1099 1208 1160 q 1193 986 1217 1039 q 1339 807 1292 917 q 1386 549 1386 697 q 1210 95 1386 239 q 688 -49 1033 -49 m 657 439 l 742 439 l 742 618 l 657 618 l 657 439 z "},"Ổ":{"ha":1400,"x_min":14,"x_max":1386,"o":"m 688 -49 q 184 93 354 -49 q 14 513 14 235 q 79 822 14 692 q 292 1029 144 953 q 278 941 282 990 q 278 847 274 892 q 297 776 282 801 q 364 1035 310 921 q 497 1204 418 1150 q 654 1215 563 1213 q 660 1103 651 1157 q 686 1015 668 1049 q 739 1019 708 1018 q 800 1004 769 1019 q 762 1045 786 1035 q 710 1053 738 1056 q 696 1132 700 1083 q 696 1228 692 1181 q 711 1301 700 1276 q 853 1315 783 1306 q 1010 1324 924 1324 q 1162 1278 1110 1324 q 1214 1156 1214 1233 q 1204 1087 1214 1125 q 1169 1001 1194 1049 q 1386 549 1386 865 q 1210 95 1386 239 q 688 -49 1033 -49 m 657 439 l 742 439 l 742 618 l 657 618 l 657 439 z "},"Ỗ":{"ha":1400,"x_min":14,"x_max":1386,"o":"m 688 -49 q 184 93 354 -49 q 14 513 14 235 q 79 822 14 692 q 292 1029 144 953 q 278 941 282 990 q 278 847 274 892 q 297 776 282 801 q 364 1035 310 921 q 497 1204 418 1150 q 563 1211 526 1208 q 640 1215 600 1214 q 633 1119 629 1165 q 654 1038 636 1074 q 704 1252 661 1188 q 829 1317 747 1317 q 930 1299 885 1317 q 1014 1282 975 1282 q 1062 1293 1043 1282 q 1090 1322 1081 1304 q 1147 1318 1113 1322 q 1214 1307 1181 1314 q 1265 1289 1247 1300 q 1247 1096 1265 1169 q 1192 986 1229 1022 q 1386 549 1386 850 q 1210 95 1386 239 q 688 -49 1033 -49 m 657 439 l 742 439 l 742 618 l 657 618 l 657 439 z "},"Ȍ":{"ha":1400,"x_min":14,"x_max":1386,"o":"m 688 -49 q 184 93 354 -49 q 14 513 14 235 q 58 778 14 667 q 189 964 103 890 q 298 836 238 883 q 422 774 358 789 q 325 869 372 814 q 245 989 278 925 q 201 1115 213 1053 q 278 1169 225 1146 q 401 1205 332 1192 q 543 1218 471 1218 q 593 1217 568 1218 q 642 1211 618 1215 q 596 1176 619 1203 q 563 1115 572 1149 q 640 1169 586 1146 q 763 1205 693 1192 q 904 1218 832 1218 q 1004 1210 956 1218 q 1093 1186 1053 1203 q 1138 1106 1117 1156 q 1168 1000 1158 1057 q 1333 819 1279 932 q 1386 549 1386 706 q 1210 95 1386 239 q 688 -49 1033 -49 m 657 439 l 742 439 l 742 618 l 657 618 l 657 439 z "},"Ö":{"ha":1400,"x_min":14,"x_max":1386,"o":"m 688 -49 q 184 93 354 -49 q 14 513 14 235 q 60 785 14 671 q 197 971 107 899 q 277 800 204 861 q 454 743 350 739 q 315 828 372 763 q 258 982 258 893 q 287 1091 258 1038 q 383 1181 315 1144 q 564 1217 450 1217 q 628 1213 599 1217 q 683 1203 658 1208 q 623 1132 638 1172 q 617 1056 608 1092 q 708 1169 639 1121 q 911 1217 778 1217 q 1086 1182 1021 1217 q 1181 1092 1151 1147 q 1211 972 1211 1036 q 1386 549 1386 835 q 1210 95 1386 239 q 688 -49 1033 -49 m 657 439 l 742 439 l 742 618 l 657 618 l 657 439 z "},"Ȫ":{"ha":1400,"x_min":14,"x_max":1386,"o":"m 688 -49 q 184 93 354 -49 q 14 513 14 235 q 60 785 14 671 q 197 971 107 899 q 277 800 204 861 q 454 743 350 739 q 315 828 372 763 q 258 982 258 893 q 285 1088 258 1035 q 374 1175 311 1140 q 392 1096 381 1133 q 425 1026 404 1058 q 422 1130 422 1071 q 423 1242 421 1189 q 431 1318 425 1294 q 567 1312 489 1314 q 730 1310 646 1310 q 892 1312 814 1310 q 1029 1318 971 1314 q 1034 1274 1032 1306 q 1038 1200 1036 1242 q 1170 1110 1131 1174 q 1211 972 1210 1046 q 1386 549 1386 835 q 1210 95 1386 239 q 688 -49 1033 -49 m 657 439 l 742 439 l 742 618 l 657 618 l 657 439 z "},"Ȱ":{"ha":1400,"x_min":14,"x_max":1386,"o":"m 688 -49 q 184 93 354 -49 q 14 513 14 235 q 104 869 14 733 q 374 1061 194 1004 q 383 894 353 964 q 475 788 414 825 q 608 747 536 750 q 487 833 533 771 q 429 976 440 894 q 424 1044 426 997 q 422 1145 422 1090 q 424 1248 422 1200 q 431 1318 425 1296 q 567 1312 489 1314 q 730 1310 646 1310 q 892 1312 814 1310 q 1029 1318 971 1314 q 1035 1259 1033 1303 q 1038 1161 1038 1215 q 1038 1058 1039 1107 q 1301 874 1217 1003 q 1386 549 1386 746 q 1210 95 1386 239 q 688 -49 1033 -49 m 657 439 l 742 439 l 742 618 l 657 618 l 657 439 z "},"Ọ":{"ha":1400,"x_min":14,"x_max":1386,"o":"m 707 -240 q 477 -169 556 -240 q 399 7 399 -99 q 430 120 399 64 q 533 210 461 176 q 436 174 475 207 q 377 94 397 142 q 353 0 357 47 q 14 513 14 119 q 186 961 14 818 q 694 1104 358 1104 q 1219 963 1053 1104 q 1386 549 1386 822 q 1290 184 1386 321 q 1006 -10 1194 47 q 976 -121 1006 -68 q 882 -207 947 -174 q 707 -240 817 -240 m 657 439 l 742 439 l 742 618 l 657 618 l 657 439 z "},"Ò":{"ha":1400,"x_min":14,"x_max":1386,"o":"m 688 -49 q 184 93 354 -49 q 14 513 14 235 q 274 1021 14 885 q 379 860 315 924 q 532 772 443 797 q 433 869 481 814 q 353 989 386 925 q 310 1115 321 1053 q 387 1169 333 1146 q 510 1205 440 1192 q 651 1218 579 1218 q 751 1210 703 1218 q 840 1186 800 1203 q 867 1144 854 1168 q 890 1092 879 1119 q 1266 919 1146 1057 q 1386 549 1386 782 q 1210 95 1386 239 q 688 -49 1033 -49 m 657 439 l 742 439 l 742 618 l 657 618 l 657 439 z "},"Ỏ":{"ha":1400,"x_min":14,"x_max":1386,"o":"m 688 -49 q 184 93 354 -49 q 14 513 14 235 q 95 854 14 722 q 336 1049 176 986 q 347 923 335 978 q 376 846 358 868 q 453 843 419 851 q 511 817 486 835 q 465 877 496 861 q 397 888 433 893 q 383 957 388 915 q 378 1044 378 999 q 383 1128 378 1089 q 399 1189 389 1167 q 571 1206 486 1194 q 761 1217 656 1217 q 923 1178 863 1217 q 1000 1069 983 1139 q 1292 887 1199 1018 q 1386 549 1386 756 q 1210 95 1386 239 q 688 -49 1033 -49 m 657 439 l 742 439 l 742 618 l 657 618 l 657 439 z "},"Ơ":{"ha":1400,"x_min":14,"x_max":1386,"o":"m 688 -49 q 184 93 354 -49 q 14 513 14 235 q 186 961 14 818 q 694 1104 358 1104 q 778 1101 739 1104 q 849 1099 817 1099 q 956 1117 933 1099 q 975 1174 978 1135 q 1032 1183 993 1179 q 1118 1188 1071 1186 q 1207 1190 1165 1190 q 1260 1190 1236 1190 q 1296 1186 1283 1189 q 1334 1085 1318 1147 q 1350 960 1350 1022 q 1328 848 1350 892 q 1267 778 1306 804 q 1181 735 1229 751 l 1190 699 q 1297 691 1254 714 q 1363 620 1340 668 q 1386 510 1386 572 q 1210 90 1386 229 q 688 -49 1033 -49 m 657 439 l 742 439 l 742 618 l 657 618 l 657 439 z "},"Ớ":{"ha":1400,"x_min":14,"x_max":1386,"o":"m 688 -49 q 184 93 354 -49 q 14 513 14 235 q 109 874 14 738 q 389 1067 204 1011 q 374 989 379 1036 q 376 891 368 942 q 413 798 383 840 q 506 733 443 756 q 434 853 453 776 q 433 1018 415 929 q 507 1186 450 1107 q 597 1210 549 1203 q 697 1218 646 1218 q 833 1206 767 1218 q 951 1172 900 1193 q 939 1125 946 1151 q 924 1076 932 1099 l 961 1063 q 980 1120 972 1092 q 993 1174 988 1149 q 1045 1183 1008 1179 q 1127 1188 1082 1186 q 1213 1190 1172 1190 q 1296 1186 1274 1190 q 1334 1085 1318 1147 q 1350 960 1350 1022 q 1328 848 1350 892 q 1267 778 1306 804 q 1181 735 1229 751 l 1190 699 q 1297 691 1254 714 q 1363 620 1340 668 q 1386 510 1386 572 q 1210 90 1386 229 q 688 -49 1033 -49 m 657 439 l 742 439 l 742 618 l 657 618 l 657 439 z "},"Ợ":{"ha":1400,"x_min":14,"x_max":1386,"o":"m 707 -240 q 477 -169 556 -240 q 399 7 399 -99 q 430 120 399 64 q 533 210 461 176 q 436 174 475 207 q 377 94 397 142 q 353 0 357 47 q 14 513 14 119 q 186 961 14 818 q 694 1104 358 1104 q 778 1101 739 1104 q 849 1099 817 1099 q 956 1117 933 1099 q 975 1174 978 1135 q 1032 1183 993 1179 q 1118 1188 1071 1186 q 1207 1190 1165 1190 q 1260 1190 1236 1190 q 1296 1186 1283 1189 q 1334 1085 1318 1147 q 1350 960 1350 1022 q 1328 848 1350 892 q 1267 778 1306 804 q 1181 735 1229 751 l 1190 699 q 1297 691 1254 714 q 1363 620 1340 668 q 1386 510 1386 572 q 1006 -10 1386 100 q 976 -121 1006 -68 q 882 -207 947 -174 q 707 -240 817 -240 m 657 439 l 742 439 l 742 618 l 657 618 l 657 439 z "},"Ờ":{"ha":1400,"x_min":14,"x_max":1386,"o":"m 688 -49 q 184 93 354 -49 q 14 513 14 235 q 274 1021 14 885 q 379 860 315 924 q 532 772 443 797 q 433 869 481 814 q 353 989 386 925 q 310 1115 321 1053 q 387 1169 333 1146 q 510 1205 440 1192 q 651 1218 579 1218 q 751 1210 703 1218 q 840 1186 800 1203 q 865 1148 853 1169 q 888 1100 876 1126 q 956 1117 935 1100 q 975 1174 978 1135 q 1032 1183 993 1179 q 1118 1188 1071 1186 q 1207 1190 1165 1190 q 1260 1190 1236 1190 q 1296 1186 1283 1189 q 1334 1085 1318 1147 q 1350 960 1350 1022 q 1328 848 1350 892 q 1267 778 1306 804 q 1181 735 1229 751 l 1190 699 q 1297 691 1254 714 q 1363 620 1340 668 q 1386 510 1386 572 q 1210 90 1386 229 q 688 -49 1033 -49 m 657 439 l 742 439 l 742 618 l 657 618 l 657 439 z "},"Ở":{"ha":1400,"x_min":14,"x_max":1386,"o":"m 688 -49 q 184 93 354 -49 q 14 513 14 235 q 95 854 14 722 q 336 1049 176 986 q 347 923 335 978 q 376 846 358 868 q 453 843 419 851 q 511 817 486 835 q 465 877 496 861 q 397 888 433 893 q 383 957 388 915 q 378 1044 378 999 q 383 1128 378 1089 q 399 1189 389 1167 q 555 1206 478 1194 q 726 1217 632 1217 q 856 1188 804 1217 q 931 1107 908 1160 q 969 1131 960 1114 q 975 1174 978 1147 q 1032 1183 993 1179 q 1118 1188 1071 1186 q 1207 1190 1165 1190 q 1260 1190 1236 1190 q 1296 1186 1283 1189 q 1334 1085 1318 1147 q 1350 960 1350 1022 q 1328 848 1350 892 q 1267 778 1306 804 q 1181 735 1229 751 l 1190 699 q 1297 691 1254 714 q 1363 620 1340 668 q 1386 510 1386 572 q 1210 90 1386 229 q 688 -49 1033 -49 m 657 439 l 742 439 l 742 618 l 657 618 l 657 439 z "},"Ỡ":{"ha":1400,"x_min":14,"x_max":1386,"o":"m 688 -49 q 184 93 354 -49 q 14 513 14 235 q 69 800 14 682 q 238 990 124 918 q 238 903 233 950 q 253 815 242 857 q 281 749 264 774 q 332 1077 279 972 q 494 1182 385 1182 q 581 1172 540 1182 q 657 1151 621 1161 q 725 1140 693 1140 q 784 1153 761 1140 q 821 1188 807 1165 q 883 1183 847 1188 q 953 1174 919 1179 q 1004 1164 988 1169 q 1004 1111 1004 1136 q 1001 1063 1004 1086 l 1043 1060 q 1046 1117 1046 1088 q 1046 1179 1046 1147 q 1128 1187 1082 1185 q 1217 1189 1175 1189 q 1266 1188 1244 1189 q 1296 1186 1288 1188 q 1334 1085 1318 1147 q 1350 960 1350 1022 q 1328 848 1350 892 q 1267 778 1306 804 q 1181 735 1229 751 l 1190 699 q 1297 691 1254 714 q 1363 620 1340 668 q 1386 510 1386 572 q 1210 90 1386 229 q 688 -49 1033 -49 m 657 439 l 742 439 l 742 618 l 657 618 l 657 439 z "},"Ő":{"ha":1400,"x_min":14,"x_max":1386,"o":"m 688 -49 q 184 93 354 -49 q 14 513 14 235 q 204 975 14 831 q 226 839 200 903 q 319 747 251 775 q 263 857 275 796 q 259 981 250 918 q 290 1099 268 1044 q 336 1186 311 1153 q 429 1210 376 1203 q 538 1218 482 1218 q 656 1210 601 1218 q 617 1098 631 1169 q 617 951 603 1026 l 618 951 q 645 1085 621 1021 q 697 1186 669 1149 q 786 1210 738 1203 q 886 1218 835 1218 q 1028 1205 958 1218 q 1151 1169 1097 1192 q 1228 1115 1204 1146 q 1186 994 1218 1056 q 1386 549 1386 856 q 1210 95 1386 239 q 688 -49 1033 -49 m 657 439 l 742 439 l 742 618 l 657 618 l 657 439 z "},"Ȏ":{"ha":1400,"x_min":14,"x_max":1386,"o":"m 688 -49 q 184 93 354 -49 q 14 513 14 235 q 77 823 14 699 q 265 1017 140 947 q 293 764 217 847 q 315 1001 272 900 q 460 1159 357 1103 q 718 1215 563 1215 q 917 1172 832 1215 q 1051 1054 1001 1128 q 1305 869 1224 996 q 1386 549 1386 742 q 1210 95 1386 239 q 688 -49 1033 -49 m 657 439 l 742 439 l 742 618 l 657 618 l 657 439 z "},"Ō":{"ha":1400,"x_min":14,"x_max":1386,"o":"m 688 -49 q 184 93 354 -49 q 14 513 14 235 q 254 1010 14 869 q 263 938 257 981 q 283 850 269 894 q 319 771 296 806 q 313 864 315 806 q 311 987 311 922 q 314 1106 311 1051 q 322 1186 317 1160 q 488 1178 393 1181 q 685 1176 582 1176 q 883 1178 788 1176 q 1050 1186 979 1181 q 1059 1128 1056 1167 q 1064 1050 1063 1089 q 1308 865 1229 990 q 1386 549 1386 739 q 1210 95 1386 239 q 688 -49 1033 -49 m 657 439 l 742 439 l 742 618 l 657 618 l 657 439 z "},"Ǫ":{"ha":1400,"x_min":14,"x_max":1386,"o":"m 671 -236 q 487 -189 550 -236 q 424 -49 424 -142 q 444 46 424 -6 q 510 146 464 97 q 438 109 467 138 q 393 48 410 81 q 368 -6 376 15 q 14 513 14 110 q 186 961 14 818 q 694 1104 358 1104 q 1219 963 1053 1104 q 1386 549 1386 822 q 1301 201 1386 335 q 1049 6 1217 67 q 1045 -121 1051 -56 q 1024 -222 1039 -186 q 944 -220 978 -218 q 874 -226 910 -222 q 792 -233 839 -229 q 671 -236 744 -236 m 657 439 l 742 439 l 742 618 l 657 618 l 657 439 z "},"Ø":{"ha":1394,"x_min":14,"x_max":1386,"o":"m 268 -151 q 38 57 96 -51 l 132 144 q 14 513 14 281 q 186 961 14 818 q 694 1104 358 1104 q 1019 1064 882 1104 q 1074 1128 1047 1096 q 1128 1194 1101 1161 q 1358 986 1300 1094 q 1258 892 1308 939 q 1157 796 1207 844 q 1324 751 1263 824 q 1386 533 1386 679 q 1210 94 1386 236 q 688 -49 1033 -49 q 385 -10 511 -49 q 327 -80 357 -44 q 268 -151 297 -115 m 592 554 l 672 554 l 672 657 l 592 657 l 592 554 m 717 382 l 797 382 l 797 485 l 717 485 l 717 382 z "},"Ǿ":{"ha":1394,"x_min":14,"x_max":1386,"o":"m 268 -151 q 38 57 96 -51 l 132 144 q 14 513 14 281 q 109 874 14 738 q 389 1067 204 1011 q 374 989 379 1036 q 376 891 368 942 q 413 798 383 840 q 506 733 443 756 q 434 853 453 776 q 433 1018 415 929 q 507 1186 450 1107 q 596 1210 547 1203 q 696 1218 644 1218 q 838 1205 768 1218 q 960 1169 907 1192 q 1038 1115 1014 1146 q 1033 1094 1036 1106 q 1026 1071 1031 1083 q 1077 1133 1051 1101 q 1128 1194 1103 1164 q 1358 986 1300 1094 q 1258 892 1308 939 q 1157 796 1207 844 q 1324 751 1263 824 q 1386 533 1386 679 q 1210 94 1386 236 q 688 -49 1033 -49 q 385 -10 511 -49 q 327 -80 357 -44 q 268 -151 297 -115 m 592 554 l 672 554 l 672 657 l 592 657 l 592 554 m 717 382 l 797 382 l 797 485 l 717 485 l 717 382 z "},"Õ":{"ha":1400,"x_min":14,"x_max":1386,"o":"m 688 -49 q 184 93 354 -49 q 14 513 14 235 q 69 800 14 682 q 238 990 124 918 q 238 903 233 950 q 253 815 242 857 q 281 749 264 774 q 335 1077 279 972 q 510 1182 392 1182 q 602 1172 560 1182 q 683 1151 644 1161 q 757 1140 722 1140 q 819 1153 794 1140 q 858 1188 844 1165 q 933 1183 888 1188 q 1024 1169 979 1178 q 1092 1149 1068 1161 q 1088 1044 1092 1093 q 1315 859 1243 983 q 1386 549 1386 735 q 1210 95 1386 239 q 688 -49 1033 -49 m 657 439 l 742 439 l 742 618 l 657 618 l 657 439 z "},"Ȭ":{"ha":1400,"x_min":14,"x_max":1386,"o":"m 688 -49 q 184 93 354 -49 q 14 513 14 235 q 69 800 14 682 q 238 990 124 918 q 238 903 233 950 q 253 815 242 857 q 281 749 264 774 q 381 1136 279 1046 q 396 1063 388 1097 q 426 1003 404 1029 q 422 1077 424 1032 q 422 1170 421 1122 q 424 1258 422 1218 q 431 1318 426 1297 q 563 1312 489 1314 q 717 1310 638 1310 q 872 1312 797 1310 q 1004 1318 946 1314 q 1010 1263 1008 1304 q 1014 1171 1013 1221 q 1058 1161 1038 1167 q 1092 1149 1078 1156 q 1088 1044 1092 1093 q 1315 859 1243 983 q 1386 549 1386 735 q 1210 95 1386 239 q 688 -49 1033 -49 m 657 439 l 742 439 l 742 618 l 657 618 l 657 439 z "},"Œ":{"ha":1983,"x_min":14,"x_max":1972,"o":"m 663 -33 q 335 12 463 -33 q 138 136 208 57 q 41 317 68 215 q 14 532 14 419 q 171 944 14 801 q 632 1088 328 1088 q 837 1083 751 1088 q 992 1072 922 1078 q 1134 1062 1063 1067 q 1296 1057 1206 1057 q 1631 1067 1460 1057 q 1947 1078 1801 1076 q 1960 1001 1954 1051 q 1968 890 1965 951 q 1971 767 1971 829 q 1967 652 1971 704 q 1954 571 1963 600 q 1810 560 1889 563 q 1649 560 1731 557 q 1496 571 1568 563 q 1496 700 1479 636 l 1335 700 l 1335 642 l 1464 642 l 1464 449 l 1333 449 l 1333 389 l 1496 389 q 1496 519 1479 454 q 1735 526 1613 526 q 1963 519 1857 526 q 1969 440 1967 494 q 1972 316 1972 385 q 1970 178 1972 247 q 1964 54 1968 108 q 1953 -24 1960 0 q 1636 -12 1807 -21 q 1301 -3 1465 -3 q 1142 -8 1211 -3 q 1007 -18 1074 -12 q 859 -28 940 -24 q 663 -33 778 -33 m 656 439 l 740 439 l 740 618 l 656 618 l 656 439 z "},"P":{"ha":1422,"x_min":11,"x_max":1408,"o":"m 47 -24 q 28 50 35 6 q 19 142 21 94 q 23 235 18 190 q 38 308 28 279 q 78 337 58 317 q 113 402 99 357 q 126 529 126 447 q 110 663 126 618 q 73 724 94 708 q 35 740 51 740 q 17 808 22 765 q 12 901 11 851 q 19 997 13 950 q 40 1076 26 1043 q 226 1075 143 1072 q 391 1083 308 1078 q 572 1094 474 1089 q 803 1099 669 1099 q 1133 1065 999 1099 q 1338 941 1268 1031 q 1408 686 1408 851 q 1355 457 1408 543 q 1201 333 1301 371 q 961 294 1101 294 q 819 309 872 294 q 722 375 767 324 l 693 349 q 781 283 729 306 q 908 257 832 260 q 924 168 921 218 q 922 68 928 118 q 900 -22 915 18 q 712 -8 832 -17 q 438 -1 592 0 q 285 -6 360 -1 q 148 -15 210 -10 q 47 -24 86 -19 m 693 589 l 778 589 l 778 682 l 693 682 l 693 589 z "},"Þ":{"ha":1428,"x_min":11,"x_max":1414,"o":"m 47 -24 q 28 50 35 6 q 19 142 21 94 q 23 235 18 190 q 38 308 28 279 q 78 337 58 317 q 113 402 99 357 q 126 529 126 447 q 110 663 126 618 q 73 724 94 708 q 35 740 51 740 q 17 808 22 765 q 12 901 11 851 q 19 997 13 950 q 40 1076 26 1043 q 142 1067 79 1072 q 283 1060 206 1063 q 438 1056 360 1057 q 717 1062 596 1054 q 906 1075 838 1069 q 914 944 922 1003 q 878 934 907 943 q 812 910 850 925 q 738 872 774 894 l 757 840 q 901 894 821 882 q 1044 907 981 907 q 1173 894 1108 907 q 1292 844 1238 881 q 1381 735 1347 807 q 1414 543 1414 663 q 1380 355 1414 431 q 1286 235 1346 279 q 1149 172 1226 192 q 983 153 1071 153 q 869 161 928 153 q 757 200 810 169 l 735 163 q 817 129 771 140 q 914 115 863 118 q 917 58 917 81 q 914 19 917 36 q 906 -22 911 1 q 717 -8 838 -17 q 438 -1 596 0 q 285 -6 360 -1 q 148 -15 210 -10 q 47 -24 86 -19 m 699 465 l 783 465 l 783 558 l 699 558 l 699 465 z "},"Q":{"ha":1400,"x_min":14,"x_max":1389,"o":"m 1065 -240 q 828 -190 918 -240 q 738 -33 738 -140 q 751 52 738 19 q 790 115 764 85 q 708 53 738 99 q 672 -49 679 7 q 186 96 358 -49 q 14 525 14 240 q 186 962 14 819 q 694 1104 358 1104 q 1219 966 1053 1104 q 1386 575 1386 828 q 1356 382 1386 460 q 1279 256 1325 304 q 1188 179 1233 207 l 1188 68 l 1231 68 l 1232 189 q 1306 199 1267 196 q 1378 194 1344 201 q 1388 33 1389 111 q 1360 -107 1388 -46 q 1263 -204 1332 -168 q 1065 -240 1193 -240 m 657 439 l 742 439 l 742 618 l 657 618 l 657 439 z "},"R":{"ha":1481,"x_min":11,"x_max":1469,"o":"m 47 -24 q 28 50 35 6 q 19 142 21 94 q 23 235 18 190 q 38 308 28 279 q 78 337 58 317 q 113 402 99 357 q 126 529 126 447 q 110 663 126 618 q 73 724 94 708 q 35 740 51 740 q 17 808 22 765 q 12 901 11 851 q 19 997 13 950 q 40 1076 26 1043 q 226 1075 143 1072 q 391 1083 308 1078 q 572 1094 474 1089 q 803 1099 669 1099 q 1137 1065 999 1099 q 1349 944 1275 1031 q 1421 700 1422 858 q 1395 555 1421 619 q 1321 446 1369 490 q 1385 357 1349 390 q 1453 308 1421 324 q 1466 235 1463 279 q 1469 142 1469 190 q 1461 50 1468 94 q 1443 -24 1454 6 q 1374 -15 1413 -19 q 1283 -6 1336 -10 q 1153 -1 1231 -1 q 981 -6 1049 -1 q 869 -15 914 -10 q 788 -24 824 -19 q 802 174 803 89 q 778 322 801 258 q 697 436 754 386 l 697 308 l 747 307 q 762 198 760 260 q 758 77 764 136 q 738 -22 751 18 q 585 -8 679 -17 q 379 -1 490 0 q 193 -10 282 -3 q 47 -24 104 -18 m 692 585 l 776 585 l 776 681 l 692 681 l 692 585 z "},"Ŕ":{"ha":1481,"x_min":11,"x_max":1469,"o":"m 47 -24 q 28 50 35 6 q 19 142 21 94 q 23 235 18 190 q 38 308 28 279 q 78 337 58 317 q 113 402 99 357 q 126 529 126 447 q 110 663 126 618 q 73 724 94 708 q 35 740 51 740 q 17 808 22 765 q 12 901 11 851 q 19 997 13 950 q 40 1076 26 1043 q 248 1076 151 1072 q 440 1086 344 1081 q 422 997 428 1046 q 422 899 415 947 q 453 811 429 850 q 526 751 478 772 q 470 872 483 799 q 476 1028 457 946 q 547 1186 494 1111 q 636 1210 588 1203 q 736 1218 685 1218 q 878 1205 808 1218 q 1001 1169 947 1192 q 1078 1115 1054 1146 q 1069 1081 1075 1099 q 1331 965 1239 1051 q 1421 700 1422 878 q 1395 555 1421 619 q 1321 446 1369 490 q 1385 357 1349 390 q 1453 308 1421 324 q 1466 235 1463 279 q 1469 142 1469 190 q 1461 50 1468 94 q 1443 -24 1454 6 q 1374 -15 1413 -19 q 1283 -6 1336 -10 q 1153 -1 1231 -1 q 981 -6 1049 -1 q 869 -15 914 -10 q 788 -24 824 -19 q 802 174 803 89 q 778 322 801 258 q 697 436 754 386 l 697 308 l 747 307 q 762 198 760 260 q 758 77 764 136 q 738 -22 751 18 q 585 -8 679 -17 q 379 -1 490 0 q 193 -10 282 -3 q 47 -24 104 -18 m 692 585 l 776 585 l 776 681 l 692 681 l 692 585 z "},"Ř":{"ha":1481,"x_min":11,"x_max":1469,"o":"m 47 -24 q 28 50 35 6 q 19 142 21 94 q 23 235 18 190 q 38 308 28 279 q 78 337 58 317 q 113 402 99 357 q 126 529 126 447 q 110 663 126 618 q 73 724 94 708 q 35 740 51 740 q 17 808 22 765 q 12 901 11 851 q 19 997 13 950 q 40 1076 26 1043 q 164 1075 108 1074 q 263 1078 219 1076 q 288 969 264 1025 q 351 865 311 913 q 439 794 390 818 q 367 906 399 842 q 319 1040 335 969 q 314 1176 304 1111 q 383 1197 339 1189 q 474 1210 428 1206 q 547 1215 519 1215 q 616 1187 578 1207 q 689 1140 654 1167 q 652 1103 671 1122 q 614 1063 633 1083 l 649 1039 q 767 1153 706 1104 q 883 1215 828 1201 q 964 1210 915 1215 q 1060 1197 1013 1206 q 1131 1176 1107 1189 q 1134 1123 1135 1150 q 1129 1068 1133 1096 q 1347 947 1271 1033 q 1421 700 1422 861 q 1395 555 1421 619 q 1321 446 1369 490 q 1385 357 1349 390 q 1453 308 1421 324 q 1466 235 1463 279 q 1469 142 1469 190 q 1461 50 1468 94 q 1443 -24 1454 6 q 1374 -15 1413 -19 q 1283 -6 1336 -10 q 1153 -1 1231 -1 q 981 -6 1049 -1 q 869 -15 914 -10 q 788 -24 824 -19 q 802 174 803 89 q 778 322 801 258 q 697 436 754 386 l 697 308 l 747 307 q 762 198 760 260 q 758 77 764 136 q 738 -22 751 18 q 585 -8 679 -17 q 379 -1 490 0 q 193 -10 282 -3 q 47 -24 104 -18 m 692 585 l 776 585 l 776 681 l 692 681 l 692 585 z "},"Ŗ":{"ha":1481,"x_min":11,"x_max":1469,"o":"m 763 -236 q 718 -240 749 -239 q 650 -242 688 -242 q 560 -240 607 -242 q 476 -234 514 -237 q 422 -226 439 -231 q 440 -124 432 -179 q 442 2 449 -68 q 397 163 435 72 q 395 71 399 113 q 371 -3 392 29 q 192 -10 281 -3 q 47 -24 104 -18 q 28 50 35 6 q 19 142 21 94 q 23 235 18 190 q 38 308 28 279 q 78 337 58 317 q 113 402 99 357 q 126 529 126 447 q 110 663 126 618 q 73 724 94 708 q 35 740 51 740 q 17 808 22 765 q 12 901 11 851 q 19 997 13 950 q 40 1076 26 1043 q 226 1075 143 1072 q 391 1083 308 1078 q 572 1094 474 1089 q 803 1099 669 1099 q 1137 1065 999 1099 q 1349 944 1275 1031 q 1421 700 1422 858 q 1395 555 1421 619 q 1321 446 1369 490 q 1385 357 1349 390 q 1453 308 1421 324 q 1466 235 1463 279 q 1469 142 1469 190 q 1461 50 1468 94 q 1443 -24 1454 6 q 1333 -10 1396 -18 q 1157 -1 1271 -1 q 1066 -2 1106 -1 q 990 -6 1026 -3 q 913 -135 972 -78 q 763 -236 853 -192 m 692 585 l 776 585 l 776 681 l 692 681 l 692 585 m 697 261 l 747 261 l 747 388 l 697 388 l 697 261 z "},"Ȑ":{"ha":1481,"x_min":11,"x_max":1469,"o":"m 47 -24 q 28 50 35 6 q 19 142 21 94 q 23 235 18 190 q 38 308 28 279 q 78 337 58 317 q 113 402 99 357 q 126 529 126 447 q 110 663 126 618 q 73 724 94 708 q 35 740 51 740 q 17 808 22 765 q 12 901 11 851 q 19 997 13 950 q 40 1076 26 1043 q 92 1075 67 1075 q 139 1075 117 1075 q 256 870 185 940 q 410 774 326 800 q 313 869 360 814 q 233 989 265 925 q 189 1115 200 1053 q 266 1169 213 1146 q 389 1205 319 1192 q 531 1218 458 1218 q 581 1217 556 1218 q 629 1211 606 1215 q 583 1176 607 1203 q 550 1115 560 1149 q 627 1169 574 1146 q 750 1205 681 1192 q 892 1218 819 1218 q 992 1210 943 1218 q 1081 1186 1040 1203 q 1112 1133 1096 1164 q 1139 1065 1128 1101 q 1349 943 1275 1029 q 1421 700 1422 857 q 1395 555 1421 619 q 1321 446 1369 490 q 1385 357 1349 390 q 1453 308 1421 324 q 1466 235 1463 279 q 1469 142 1469 190 q 1461 50 1468 94 q 1443 -24 1454 6 q 1374 -15 1413 -19 q 1283 -6 1336 -10 q 1153 -1 1231 -1 q 981 -6 1049 -1 q 869 -15 914 -10 q 788 -24 824 -19 q 802 174 803 89 q 778 322 801 258 q 697 436 754 386 l 697 308 l 747 307 q 762 198 760 260 q 758 77 764 136 q 738 -22 751 18 q 585 -8 679 -17 q 379 -1 490 0 q 193 -10 282 -3 q 47 -24 104 -18 m 692 585 l 776 585 l 776 681 l 692 681 l 692 585 z "},"Ȓ":{"ha":1481,"x_min":11,"x_max":1469,"o":"m 47 -24 q 28 50 35 6 q 19 142 21 94 q 23 235 18 190 q 38 308 28 279 q 78 337 58 317 q 113 402 99 357 q 126 529 126 447 q 110 663 126 618 q 73 724 94 708 q 35 740 51 740 q 17 808 22 765 q 12 901 11 851 q 19 997 13 950 q 40 1076 26 1043 q 192 1075 122 1074 q 328 1081 261 1076 q 288 917 286 1000 q 328 764 289 835 q 349 1001 307 900 q 494 1159 392 1103 q 753 1215 597 1215 q 935 1178 856 1215 q 1065 1081 1014 1142 q 1330 965 1238 1053 q 1421 700 1422 878 q 1395 555 1421 619 q 1321 446 1369 490 q 1385 357 1349 390 q 1453 308 1421 324 q 1466 235 1463 279 q 1469 142 1469 190 q 1461 50 1468 94 q 1443 -24 1454 6 q 1374 -15 1413 -19 q 1283 -6 1336 -10 q 1153 -1 1231 -1 q 981 -6 1049 -1 q 869 -15 914 -10 q 788 -24 824 -19 q 802 174 803 89 q 778 322 801 258 q 697 436 754 386 l 697 308 l 747 307 q 762 198 760 260 q 758 77 764 136 q 738 -22 751 18 q 585 -8 679 -17 q 379 -1 490 0 q 193 -10 282 -3 q 47 -24 104 -18 m 692 585 l 776 585 l 776 681 l 692 681 l 692 585 z "},"S":{"ha":1297,"x_min":8,"x_max":1289,"o":"m 849 -44 q 555 3 651 -44 q 456 174 458 51 q 444 78 438 122 q 465 -10 450 33 q 218 -19 317 -14 q 39 -22 119 -24 q 16 198 18 89 q 32 429 14 307 q 185 414 108 429 q 329 372 261 399 q 446 306 397 344 l 474 335 q 372 398 426 372 q 261 442 317 424 q 133 506 190 467 q 42 603 75 544 q 8 742 8 661 q 54 923 8 842 q 205 1052 100 1004 q 488 1100 310 1100 q 757 1051 664 1100 q 853 869 850 1001 q 865 968 872 922 q 843 1065 858 1014 q 1010 1069 943 1067 q 1128 1074 1076 1071 q 1232 1076 1179 1076 q 1255 860 1253 976 q 1239 624 1257 744 q 1098 638 1160 625 q 983 678 1036 651 q 875 743 931 704 l 850 711 q 958 645 903 672 q 1063 596 1014 618 q 1185 525 1135 564 q 1262 431 1235 486 q 1289 292 1289 375 q 1249 108 1289 176 q 1144 8 1210 40 q 1002 -35 1079 -25 q 849 -44 925 -44 z "},"Ś":{"ha":1297,"x_min":8,"x_max":1289,"o":"m 849 -44 q 555 3 651 -44 q 456 174 458 51 q 444 78 438 122 q 465 -10 450 33 q 218 -19 317 -14 q 39 -22 119 -24 q 16 198 18 89 q 32 429 14 307 q 185 414 108 429 q 329 372 261 399 q 446 306 397 344 l 474 335 q 372 398 426 372 q 261 442 317 424 q 133 506 190 467 q 42 603 75 544 q 8 742 8 661 q 43 903 8 829 q 157 1026 78 976 q 368 1093 236 1076 q 348 1028 358 1072 q 339 932 338 985 q 365 832 340 879 q 447 757 389 785 q 394 877 407 804 q 401 1031 382 950 q 472 1186 419 1113 q 561 1210 513 1203 q 661 1218 610 1218 q 803 1205 733 1218 q 926 1169 872 1192 q 1003 1115 979 1146 l 992 1068 q 1122 1073 1068 1071 q 1232 1076 1176 1075 q 1255 860 1253 976 q 1239 624 1257 744 q 1098 638 1160 625 q 983 678 1036 651 q 875 743 931 704 l 850 711 q 958 645 903 672 q 1063 596 1014 618 q 1185 525 1135 564 q 1262 431 1235 486 q 1289 292 1289 375 q 1249 108 1289 176 q 1144 8 1210 40 q 1002 -35 1079 -25 q 849 -44 925 -44 z "},"Š":{"ha":1297,"x_min":8,"x_max":1289,"o":"m 849 -44 q 555 3 651 -44 q 456 174 458 51 q 444 78 438 122 q 465 -10 450 33 q 218 -19 317 -14 q 39 -22 119 -24 q 16 198 18 89 q 32 429 14 307 q 185 414 108 429 q 329 372 261 399 q 446 306 397 344 l 474 335 q 372 398 426 372 q 261 442 317 424 q 133 506 190 467 q 42 603 75 544 q 8 742 8 661 q 56 926 8 844 q 214 1054 104 1008 q 251 928 219 992 q 331 818 283 865 q 426 754 378 771 q 336 867 378 797 q 273 1019 294 938 q 263 1176 251 1101 q 332 1197 288 1189 q 422 1210 376 1206 q 496 1215 468 1215 q 565 1187 526 1207 q 638 1140 603 1167 q 601 1103 619 1122 q 563 1063 582 1083 l 597 1039 q 715 1153 654 1104 q 832 1215 776 1201 q 913 1210 864 1215 q 1008 1197 961 1206 q 1079 1176 1056 1189 q 1083 1125 1083 1151 q 1078 1072 1082 1099 q 1157 1075 1121 1074 q 1232 1076 1193 1076 q 1255 860 1253 976 q 1239 624 1257 744 q 1098 638 1160 625 q 983 678 1036 651 q 875 743 931 704 l 850 711 q 958 645 903 672 q 1063 596 1014 618 q 1185 525 1135 564 q 1262 431 1235 486 q 1289 292 1289 375 q 1249 108 1289 176 q 1144 8 1210 40 q 1002 -35 1079 -25 q 849 -44 925 -44 z "},"Ş":{"ha":1297,"x_min":8,"x_max":1289,"o":"m 533 -239 q 235 -208 339 -239 q 281 -140 254 -181 q 326 -52 307 -100 q 344 49 344 -4 q 310 154 343 101 q 313 69 317 117 q 283 -17 310 21 q 151 -21 210 -18 q 39 -22 92 -24 q 16 198 18 89 q 32 429 14 307 q 185 414 108 429 q 329 372 261 399 q 446 306 397 344 l 474 335 q 372 398 426 372 q 261 442 317 424 q 133 506 190 467 q 42 603 75 544 q 8 742 8 661 q 54 923 8 842 q 205 1052 100 1004 q 488 1100 310 1100 q 757 1051 664 1100 q 853 869 850 1001 q 865 968 872 922 q 843 1065 858 1014 q 1010 1069 943 1067 q 1128 1074 1076 1071 q 1232 1076 1179 1076 q 1255 860 1253 976 q 1239 624 1257 744 q 1098 638 1160 625 q 983 678 1036 651 q 875 743 931 704 l 850 711 q 958 645 903 672 q 1063 596 1014 618 q 1185 525 1135 564 q 1262 431 1235 486 q 1289 292 1289 375 q 1255 119 1289 185 q 1164 20 1221 54 q 1038 -27 1107 -14 q 896 -43 968 -40 q 786 -197 878 -154 q 533 -239 694 -239 z "},"Ŝ":{"ha":1297,"x_min":8,"x_max":1289,"o":"m 849 -44 q 555 3 651 -44 q 456 174 458 51 q 444 78 438 122 q 465 -10 450 33 q 218 -19 317 -14 q 39 -22 119 -24 q 16 198 18 89 q 32 429 14 307 q 185 414 108 429 q 329 372 261 399 q 446 306 397 344 l 474 335 q 372 398 426 372 q 261 442 317 424 q 133 506 190 467 q 42 603 75 544 q 8 742 8 661 q 53 921 8 840 q 203 1049 97 1001 q 181 885 183 961 q 201 776 178 810 q 268 1035 214 921 q 401 1204 322 1150 q 503 1213 443 1211 q 626 1215 563 1215 q 741 1213 689 1215 q 821 1204 793 1210 q 885 1147 853 1182 q 946 1067 918 1111 q 1106 1072 1043 1069 q 1232 1076 1168 1075 q 1255 860 1253 976 q 1239 624 1257 744 q 1098 638 1160 625 q 983 678 1036 651 q 875 743 931 704 l 850 711 q 958 645 903 672 q 1063 596 1014 618 q 1185 525 1135 564 q 1262 431 1235 486 q 1289 292 1289 375 q 1249 108 1289 176 q 1144 8 1210 40 q 1002 -35 1079 -25 q 849 -44 925 -44 z "},"Ș":{"ha":1297,"x_min":8,"x_max":1289,"o":"m 688 -236 q 619 -241 667 -240 q 517 -240 572 -242 q 414 -235 461 -239 q 347 -226 367 -232 q 365 -121 357 -179 q 367 8 374 -62 q 322 163 360 79 q 326 58 332 103 q 308 -15 319 13 q 160 -21 225 -18 q 39 -22 96 -24 q 16 198 18 89 q 32 429 14 307 q 185 414 108 429 q 329 372 261 399 q 446 306 397 344 l 474 335 q 372 398 426 372 q 261 442 317 424 q 133 506 190 467 q 42 603 75 544 q 8 742 8 661 q 54 923 8 842 q 205 1052 100 1004 q 488 1100 310 1100 q 757 1051 664 1100 q 853 869 850 1001 q 865 968 872 922 q 843 1065 858 1014 q 1010 1069 943 1067 q 1128 1074 1076 1071 q 1232 1076 1179 1076 q 1255 860 1253 976 q 1239 624 1257 744 q 1098 638 1160 625 q 983 678 1036 651 q 875 743 931 704 l 850 711 q 958 645 903 672 q 1063 596 1014 618 q 1185 525 1135 564 q 1262 431 1235 486 q 1289 292 1289 375 q 1256 121 1289 186 q 1166 22 1222 56 q 1042 -26 1110 -12 q 903 -43 974 -40 q 821 -151 876 -103 q 688 -236 765 -199 z "},"ẞ":{"ha":1474,"x_min":10,"x_max":1465,"o":"m 1025 -31 q 880 -24 953 -31 q 744 -7 807 -17 q 735 65 739 21 q 731 158 732 108 q 733 257 731 208 q 742 342 736 306 l 826 342 l 826 410 l 742 410 l 742 606 l 829 606 l 829 674 l 800 674 q 732 654 754 674 q 703 578 710 635 q 697 413 697 522 l 697 -4 q 368 -4 525 0 q 39 -24 211 -8 q 19 50 26 6 q 11 142 13 94 q 15 235 10 190 q 29 308 19 279 q 91 347 65 310 q 117 485 117 383 q 110 594 117 540 q 100 703 103 647 q 108 818 97 758 q 172 959 124 906 q 294 1041 219 1013 q 465 1080 368 1069 q 676 1090 563 1090 q 813 1088 736 1090 q 975 1083 890 1086 q 1142 1078 1060 1081 q 1293 1076 1224 1076 q 1407 1076 1363 1075 q 1428 994 1421 1043 q 1435 894 1435 946 q 1431 797 1436 842 q 1413 726 1425 751 q 1356 684 1379 701 q 1307 643 1333 667 q 1390 542 1354 592 q 1445 437 1425 493 q 1465 307 1465 381 q 1351 48 1465 126 q 1025 -31 1236 -31 z "},"Ə":{"ha":1401,"x_min":11,"x_max":1388,"o":"m 676 -49 q 364 -19 490 -49 q 163 60 238 10 q 54 176 88 111 q 21 311 21 240 q 33 399 21 350 q 83 492 44 447 q 198 565 121 536 q 406 594 275 594 q 542 592 476 594 q 668 583 608 590 l 744 583 l 744 675 l 671 675 l 669 640 q 567 629 629 633 q 430 624 504 625 q 280 624 356 624 q 139 629 204 625 q 31 640 74 633 q 15 789 18 707 q 17 949 11 871 q 35 1085 22 1028 q 171 1082 90 1085 q 336 1077 251 1079 q 488 1074 421 1075 q 478 963 482 1018 q 492 856 474 908 q 537 1006 494 951 q 660 1082 579 1060 q 857 1104 740 1104 q 1045 1076 951 1104 q 1216 983 1139 1047 q 1340 814 1293 919 q 1388 553 1388 708 q 1349 305 1388 415 q 1228 115 1311 194 q 1008 -6 1144 36 q 676 -49 872 -49 m 671 367 l 744 367 l 744 453 l 671 453 l 671 367 z "},"T":{"ha":1388,"x_min":14,"x_max":1376,"o":"m 329 -24 q 311 50 318 6 q 303 142 304 94 q 306 235 303 190 q 319 308 310 279 q 388 370 364 319 q 411 543 411 421 l 411 643 l 367 643 q 363 435 379 538 q 260 420 308 424 q 157 420 211 417 q 31 435 103 424 q 18 555 22 483 q 14 706 14 626 q 17 861 14 786 q 25 994 19 936 q 38 1078 31 1051 q 285 1067 119 1078 q 706 1057 450 1057 q 1003 1063 879 1057 q 1212 1073 1126 1068 q 1353 1078 1297 1078 q 1365 987 1360 1047 q 1374 851 1371 926 q 1376 697 1376 775 q 1372 549 1376 618 q 1360 435 1368 481 q 1235 420 1288 424 q 1133 420 1182 417 q 1021 435 1083 424 q 1017 642 1004 536 l 972 642 l 972 543 q 987 413 972 461 q 1025 340 1001 364 q 1078 308 1049 317 q 1091 235 1088 279 q 1094 142 1094 190 q 1086 50 1093 94 q 1068 -24 1079 6 q 915 -9 1007 -17 q 699 -1 822 -1 q 480 -9 569 -1 q 329 -24 390 -17 z "},"Ŧ":{"ha":1388,"x_min":14,"x_max":1376,"o":"m 329 -24 q 309 64 315 11 q 303 168 303 117 q 378 169 331 168 q 473 178 425 169 q 550 206 521 186 l 249 206 q 230 299 235 238 q 229 418 225 361 q 139 421 186 417 q 31 435 92 425 q 18 555 22 483 q 14 706 14 626 q 17 861 14 786 q 25 994 19 936 q 38 1078 31 1051 q 285 1067 119 1078 q 706 1057 450 1057 q 1003 1063 879 1057 q 1212 1073 1126 1068 q 1353 1078 1297 1078 q 1365 987 1360 1047 q 1374 851 1371 926 q 1376 697 1376 775 q 1372 549 1376 618 q 1360 435 1368 481 q 1255 421 1300 425 q 1168 418 1210 417 q 1169 338 1169 381 q 1167 260 1168 296 q 1161 206 1165 225 l 1093 206 q 1088 72 1094 136 q 1068 -24 1082 8 q 915 -9 1007 -17 q 699 -1 822 -1 q 480 -9 569 -1 q 329 -24 390 -17 m 368 507 l 411 507 l 411 643 l 368 643 l 368 507 m 972 507 l 1015 507 l 1015 643 l 972 643 l 972 507 z "},"Ť":{"ha":1388,"x_min":14,"x_max":1376,"o":"m 329 -24 q 311 50 318 6 q 303 142 304 94 q 306 235 303 190 q 319 308 310 279 q 388 370 364 319 q 411 543 411 421 l 411 643 l 367 643 q 363 435 379 538 q 260 420 308 424 q 157 420 211 417 q 31 435 103 424 q 18 555 22 483 q 14 706 14 626 q 17 861 14 786 q 25 994 19 936 q 38 1078 31 1051 q 129 1075 75 1078 q 256 1069 183 1072 q 276 979 256 1026 q 330 892 296 932 q 406 825 364 851 q 344 933 371 874 q 307 1055 318 992 q 304 1176 296 1118 q 374 1197 329 1189 q 464 1210 418 1206 q 538 1215 510 1215 q 606 1187 568 1207 q 679 1140 644 1167 q 642 1103 661 1122 q 604 1063 624 1083 l 639 1039 q 757 1153 696 1104 q 874 1215 818 1201 q 954 1210 906 1215 q 1050 1197 1003 1206 q 1121 1176 1097 1189 q 1124 1122 1125 1150 q 1119 1067 1124 1094 q 1251 1074 1193 1071 q 1353 1078 1310 1078 q 1365 987 1360 1047 q 1374 851 1371 926 q 1376 697 1376 775 q 1372 549 1376 618 q 1360 435 1368 481 q 1235 420 1288 424 q 1133 420 1182 417 q 1021 435 1083 424 q 1017 642 1004 536 l 972 642 l 972 543 q 987 413 972 461 q 1025 340 1001 364 q 1078 308 1049 317 q 1091 235 1088 279 q 1094 142 1094 190 q 1086 50 1093 94 q 1068 -24 1079 6 q 915 -9 1007 -17 q 699 -1 822 -1 q 480 -9 569 -1 q 329 -24 390 -17 z "},"Ţ":{"ha":1388,"x_min":14,"x_max":1376,"o":"m 632 -239 q 333 -208 438 -239 q 378 -140 353 -181 q 424 -52 404 -100 q 442 48 443 -4 q 407 153 442 100 q 412 68 415 117 q 381 -18 408 19 q 353 -21 367 -19 q 329 -24 340 -22 q 311 50 318 6 q 303 142 304 94 q 306 235 303 190 q 319 308 310 279 q 388 370 364 319 q 411 543 411 421 l 411 643 l 367 643 q 363 435 379 538 q 260 420 308 424 q 157 420 211 417 q 31 435 103 424 q 18 555 22 483 q 14 706 14 626 q 17 861 14 786 q 25 994 19 936 q 38 1078 31 1051 q 285 1067 119 1078 q 706 1057 450 1057 q 1003 1063 879 1057 q 1212 1073 1126 1068 q 1353 1078 1297 1078 q 1365 987 1360 1047 q 1374 851 1371 926 q 1376 697 1376 775 q 1372 549 1376 618 q 1360 435 1368 481 q 1235 420 1288 424 q 1133 420 1182 417 q 1021 435 1083 424 q 1017 642 1004 536 l 972 642 l 972 543 q 987 413 972 461 q 1025 340 1001 364 q 1078 308 1049 317 q 1091 235 1088 279 q 1094 142 1094 190 q 1086 50 1093 94 q 1068 -24 1079 6 q 1035 -19 1053 -21 q 999 -17 1018 -18 q 894 -191 988 -143 q 632 -239 801 -239 z "},"Ț":{"ha":1388,"x_min":14,"x_max":1376,"o":"m 760 -236 q 715 -240 746 -239 q 647 -242 685 -242 q 558 -240 604 -242 q 474 -234 511 -237 q 419 -226 436 -231 q 438 -121 429 -179 q 439 8 446 -62 q 394 163 432 79 q 399 60 404 106 q 385 -18 394 14 q 355 -20 368 -19 q 329 -24 342 -21 q 311 50 318 6 q 303 142 304 94 q 306 235 303 190 q 319 308 310 279 q 388 370 364 319 q 411 543 411 421 l 411 643 l 367 643 q 363 435 379 538 q 260 420 308 424 q 157 420 211 417 q 31 435 103 424 q 18 555 22 483 q 14 706 14 626 q 17 861 14 786 q 25 994 19 936 q 38 1078 31 1051 q 285 1067 119 1078 q 706 1057 450 1057 q 1003 1063 879 1057 q 1212 1073 1126 1068 q 1353 1078 1297 1078 q 1365 987 1360 1047 q 1374 851 1371 926 q 1376 697 1376 775 q 1372 549 1376 618 q 1360 435 1368 481 q 1235 420 1288 424 q 1133 420 1182 417 q 1021 435 1083 424 q 1017 642 1004 536 l 972 642 l 972 543 q 987 413 972 461 q 1025 340 1001 364 q 1078 308 1049 317 q 1091 235 1088 279 q 1094 142 1094 190 q 1086 50 1093 94 q 1068 -24 1079 6 q 1030 -19 1051 -21 q 985 -17 1008 -18 q 904 -140 963 -85 q 760 -236 846 -194 z "},"U":{"ha":1494,"x_min":11,"x_max":1483,"o":"m 740 -49 q 445 -22 575 -49 q 233 72 315 4 q 129 261 151 139 q 121 415 115 342 q 126 571 126 489 q 113 675 126 639 q 79 726 100 711 q 35 740 58 740 q 17 808 22 765 q 12 901 11 851 q 19 997 13 950 q 40 1076 26 1043 q 137 1069 79 1074 q 262 1060 194 1064 q 394 1057 329 1057 q 569 1064 489 1057 q 708 1076 650 1071 q 727 920 725 1011 q 714 715 729 829 l 714 443 l 772 443 l 772 715 q 758 920 754 829 q 781 1076 763 1011 q 917 1064 839 1071 q 1100 1057 996 1057 q 1233 1060 1165 1057 q 1358 1069 1300 1064 q 1454 1076 1417 1074 q 1475 997 1468 1043 q 1483 901 1482 950 q 1478 808 1483 851 q 1460 740 1472 765 q 1397 710 1425 739 q 1368 599 1368 681 q 1374 431 1368 511 q 1364 281 1379 351 q 1260 81 1336 153 q 1057 -20 1185 8 q 740 -49 929 -49 z "},"Ú":{"ha":1494,"x_min":11,"x_max":1483,"o":"m 740 -49 q 445 -22 575 -49 q 233 72 315 4 q 129 261 151 139 q 121 415 115 342 q 126 571 126 489 q 113 675 126 639 q 79 726 100 711 q 35 740 58 740 q 17 808 22 765 q 12 901 11 851 q 19 997 13 950 q 40 1076 26 1043 q 137 1069 79 1074 q 262 1060 194 1064 q 394 1057 329 1057 q 436 1058 415 1057 q 476 1058 457 1058 q 463 962 465 1015 q 481 860 461 908 q 550 785 500 811 q 515 903 521 835 q 528 1045 508 971 q 596 1186 549 1119 q 685 1210 636 1203 q 785 1218 733 1218 q 926 1205 857 1218 q 1049 1169 996 1192 q 1126 1115 1103 1146 q 1111 1057 1122 1093 q 1240 1060 1175 1057 q 1361 1069 1306 1064 q 1454 1076 1417 1074 q 1475 997 1468 1043 q 1483 901 1482 950 q 1478 808 1483 851 q 1460 740 1472 765 q 1397 710 1425 739 q 1368 599 1368 681 q 1374 431 1368 511 q 1364 281 1379 351 q 1260 81 1336 153 q 1057 -20 1185 8 q 740 -49 929 -49 m 713 443 l 774 443 l 774 708 l 713 708 l 713 443 z "},"Ŭ":{"ha":1494,"x_min":11,"x_max":1483,"o":"m 740 -49 q 445 -22 575 -49 q 233 72 315 4 q 129 261 151 139 q 121 415 115 342 q 126 571 126 489 q 113 675 126 639 q 79 726 100 711 q 35 740 58 740 q 17 808 22 765 q 12 901 11 851 q 19 997 13 950 q 40 1076 26 1043 q 144 1067 81 1072 q 276 1060 207 1063 q 338 896 288 967 q 476 800 389 825 q 354 961 392 861 q 335 1176 317 1061 q 406 1197 360 1189 q 502 1210 453 1206 q 582 1215 551 1215 q 750 1153 626 1153 q 918 1215 876 1153 q 993 1210 947 1215 q 1083 1197 1039 1206 q 1151 1176 1128 1189 q 1157 1128 1156 1154 q 1160 1058 1158 1103 q 1326 1067 1246 1061 q 1454 1076 1406 1072 q 1475 997 1468 1043 q 1483 901 1482 950 q 1478 808 1483 851 q 1460 740 1472 765 q 1397 710 1425 739 q 1368 599 1368 681 q 1374 431 1368 511 q 1364 281 1379 351 q 1260 81 1336 153 q 1057 -20 1185 8 q 740 -49 929 -49 m 713 443 l 774 443 l 774 708 l 713 708 l 713 443 z "},"Û":{"ha":1494,"x_min":11,"x_max":1483,"o":"m 740 -49 q 445 -22 575 -49 q 233 72 315 4 q 129 261 151 139 q 121 415 115 342 q 126 571 126 489 q 113 675 126 639 q 79 726 100 711 q 35 740 58 740 q 17 808 22 765 q 12 901 11 851 q 19 997 13 950 q 40 1076 26 1043 q 184 1065 93 1071 q 368 1057 275 1058 q 339 917 343 992 q 361 790 335 843 q 384 954 356 872 q 460 1102 413 1036 q 561 1204 508 1168 q 659 1213 601 1211 q 775 1215 717 1215 q 895 1213 839 1215 q 981 1204 951 1210 q 1111 1057 1053 1154 q 1240 1061 1175 1058 q 1361 1069 1306 1064 q 1454 1076 1417 1074 q 1475 997 1468 1043 q 1483 901 1482 950 q 1478 808 1483 851 q 1460 740 1472 765 q 1397 710 1425 739 q 1368 599 1368 681 q 1374 431 1368 511 q 1364 281 1379 351 q 1260 81 1336 153 q 1057 -20 1185 8 q 740 -49 929 -49 m 715 443 l 771 443 l 771 800 l 715 800 l 715 443 z "},"Ȕ":{"ha":1494,"x_min":11,"x_max":1483,"o":"m 740 -49 q 445 -22 575 -49 q 233 72 315 4 q 129 261 151 139 q 121 415 115 342 q 126 571 126 489 q 113 675 126 639 q 79 726 100 711 q 35 740 58 740 q 17 808 22 765 q 12 901 11 851 q 19 997 13 950 q 40 1076 26 1043 q 110 1070 69 1074 q 199 1064 151 1067 q 313 869 240 940 q 465 774 385 799 q 368 869 415 814 q 288 989 321 925 q 244 1115 256 1053 q 322 1169 268 1146 q 444 1205 375 1192 q 586 1218 514 1218 q 636 1217 611 1218 q 685 1211 661 1215 q 639 1176 663 1203 q 606 1115 615 1149 q 683 1169 629 1146 q 806 1205 736 1192 q 947 1218 875 1218 q 1047 1210 999 1218 q 1136 1186 1096 1203 q 1197 1058 1172 1139 q 1342 1067 1272 1061 q 1454 1076 1411 1072 q 1475 997 1468 1043 q 1483 901 1482 950 q 1478 808 1483 851 q 1460 740 1472 765 q 1397 710 1425 739 q 1368 599 1368 681 q 1374 431 1368 511 q 1364 281 1379 351 q 1260 81 1336 153 q 1057 -20 1185 8 q 740 -49 929 -49 m 713 443 l 774 443 l 774 708 l 713 708 l 713 443 z "},"Ü":{"ha":1494,"x_min":11,"x_max":1483,"o":"m 740 -49 q 445 -22 575 -49 q 233 72 315 4 q 129 261 151 139 q 121 415 115 342 q 126 571 126 489 q 113 675 126 639 q 79 726 100 711 q 35 740 58 740 q 17 808 22 765 q 12 901 11 851 q 19 997 13 950 q 40 1076 26 1043 q 138 1068 79 1072 q 263 1061 196 1064 q 266 908 244 974 q 338 803 288 842 q 456 757 389 764 q 346 846 389 786 q 303 982 303 906 q 331 1091 303 1038 q 427 1181 360 1144 q 608 1217 494 1217 q 673 1213 643 1217 q 728 1203 703 1208 q 667 1132 682 1172 q 661 1056 653 1092 q 753 1169 683 1121 q 956 1217 822 1217 q 1147 1172 1079 1217 q 1240 1061 1215 1126 q 1360 1069 1304 1064 q 1454 1076 1417 1074 q 1475 997 1468 1043 q 1483 901 1482 950 q 1478 808 1483 851 q 1460 740 1472 765 q 1397 710 1425 739 q 1368 599 1368 681 q 1374 431 1368 511 q 1364 281 1379 351 q 1260 81 1336 153 q 1057 -20 1185 8 q 740 -49 929 -49 m 713 443 l 774 443 l 774 708 l 713 708 l 713 443 z "},"Ụ":{"ha":1494,"x_min":11,"x_max":1483,"o":"m 744 -240 q 515 -169 593 -240 q 436 7 436 -99 q 467 120 436 64 q 571 210 499 176 q 472 172 511 207 q 412 88 432 138 q 389 -10 392 39 q 216 88 283 22 q 129 261 149 153 q 121 415 115 342 q 126 571 126 489 q 113 675 126 639 q 79 726 100 711 q 35 740 58 740 q 17 808 22 765 q 12 901 11 851 q 19 997 13 950 q 40 1076 26 1043 q 137 1069 79 1074 q 262 1060 194 1064 q 394 1057 329 1057 q 569 1064 489 1057 q 708 1076 650 1071 q 727 920 725 1011 q 714 715 729 829 l 714 443 l 772 443 l 772 715 q 758 920 754 829 q 781 1076 763 1011 q 917 1064 839 1071 q 1100 1057 996 1057 q 1233 1060 1165 1057 q 1358 1069 1300 1064 q 1454 1076 1417 1074 q 1475 997 1468 1043 q 1483 901 1482 950 q 1478 808 1483 851 q 1460 740 1472 765 q 1397 710 1425 739 q 1368 599 1368 681 q 1374 431 1368 511 q 1364 281 1379 351 q 1257 77 1335 149 q 1043 -24 1179 6 q 1008 -128 1039 -79 q 914 -209 978 -178 q 744 -240 850 -240 z "},"Ù":{"ha":1494,"x_min":11,"x_max":1483,"o":"m 740 -49 q 445 -22 575 -49 q 233 72 315 4 q 129 261 151 139 q 121 415 115 342 q 126 571 126 489 q 113 675 126 639 q 79 726 100 711 q 35 740 58 740 q 17 808 22 765 q 12 901 11 851 q 19 997 13 950 q 40 1076 26 1043 q 110 1071 67 1074 q 205 1065 154 1068 q 303 1060 256 1063 q 405 885 343 950 q 543 793 467 821 q 417 942 474 856 q 346 1115 361 1028 q 423 1169 369 1146 q 546 1205 476 1192 q 688 1218 615 1218 q 788 1210 739 1218 q 876 1186 836 1203 q 936 1064 910 1142 q 1008 1059 968 1061 q 1100 1057 1049 1057 q 1233 1060 1165 1057 q 1358 1069 1300 1064 q 1454 1076 1417 1074 q 1475 997 1468 1043 q 1483 901 1482 950 q 1478 808 1483 851 q 1460 740 1472 765 q 1397 710 1425 739 q 1368 599 1368 681 q 1374 431 1368 511 q 1364 281 1379 351 q 1260 81 1336 153 q 1057 -20 1185 8 q 740 -49 929 -49 m 713 443 l 774 443 l 774 708 l 713 708 l 713 443 z "},"Ủ":{"ha":1494,"x_min":11,"x_max":1483,"o":"m 740 -49 q 445 -22 575 -49 q 233 72 315 4 q 129 261 151 139 q 121 415 115 342 q 126 571 126 489 q 113 675 126 639 q 79 726 100 711 q 35 740 58 740 q 17 808 22 765 q 12 901 11 851 q 19 997 13 950 q 40 1076 26 1043 q 186 1065 94 1071 q 371 1057 278 1058 q 381 927 369 985 q 411 846 393 869 q 488 843 454 851 q 546 817 521 835 q 499 877 531 861 q 432 888 468 893 q 417 957 422 915 q 413 1044 413 999 q 418 1128 413 1089 q 433 1189 424 1167 q 606 1206 521 1194 q 796 1217 690 1217 q 963 1174 901 1217 q 1038 1058 1024 1132 q 1068 1057 1053 1057 q 1100 1057 1083 1057 q 1233 1060 1165 1057 q 1358 1069 1300 1064 q 1454 1076 1417 1074 q 1475 997 1468 1043 q 1483 901 1482 950 q 1478 808 1483 851 q 1460 740 1472 765 q 1397 710 1425 739 q 1368 599 1368 681 q 1374 431 1368 511 q 1364 281 1379 351 q 1260 81 1336 153 q 1057 -20 1185 8 q 740 -49 929 -49 m 713 443 l 774 443 l 774 708 l 713 708 l 713 443 z "},"Ư":{"ha":1494,"x_min":11,"x_max":1483,"o":"m 740 -49 q 445 -22 575 -49 q 233 72 315 4 q 129 261 151 139 q 121 415 115 342 q 126 571 126 489 q 113 675 126 639 q 79 726 100 711 q 35 740 58 740 q 17 808 22 765 q 12 901 11 851 q 19 997 13 950 q 40 1076 26 1043 q 137 1069 79 1074 q 262 1060 194 1064 q 394 1057 329 1057 q 569 1064 489 1057 q 708 1076 650 1071 q 727 920 725 1011 q 714 715 729 829 l 714 443 l 772 443 l 772 715 q 758 920 754 829 q 781 1076 763 1011 q 845 1069 808 1075 q 921 1064 882 1064 q 1051 1089 1010 1064 q 1089 1174 1092 1114 q 1148 1183 1107 1179 q 1240 1188 1189 1186 q 1335 1190 1290 1190 q 1392 1190 1367 1190 q 1429 1186 1417 1189 q 1470 1073 1457 1135 q 1483 956 1483 1011 q 1472 863 1483 896 q 1443 808 1460 829 q 1409 763 1426 786 q 1380 703 1392 740 q 1368 599 1368 665 q 1374 431 1368 511 q 1364 281 1379 351 q 1260 81 1336 153 q 1057 -20 1185 8 q 740 -49 929 -49 z "},"Ứ":{"ha":1494,"x_min":11,"x_max":1483,"o":"m 740 -49 q 445 -22 575 -49 q 233 72 315 4 q 129 261 151 139 q 121 415 115 342 q 126 571 126 489 q 113 675 126 639 q 79 726 100 711 q 35 740 58 740 q 17 808 22 765 q 12 901 11 851 q 19 997 13 950 q 40 1076 26 1043 q 137 1069 79 1074 q 262 1060 194 1064 q 394 1057 329 1057 q 436 1058 415 1057 q 476 1058 457 1058 q 463 962 465 1015 q 481 860 461 908 q 550 785 500 811 q 515 903 521 835 q 528 1045 508 971 q 596 1186 549 1119 q 688 1210 638 1203 q 790 1218 738 1218 q 929 1206 861 1218 q 1049 1172 997 1193 q 1036 1125 1043 1151 q 1021 1076 1029 1099 l 1058 1063 q 1077 1120 1069 1092 q 1090 1174 1085 1149 q 1149 1183 1108 1179 q 1241 1188 1190 1186 q 1336 1190 1292 1190 q 1392 1190 1368 1190 q 1429 1186 1417 1189 q 1470 1073 1457 1135 q 1483 956 1483 1011 q 1472 863 1483 896 q 1443 808 1460 829 q 1409 763 1426 786 q 1380 703 1392 740 q 1368 599 1368 665 q 1374 431 1368 511 q 1364 281 1379 351 q 1260 81 1336 153 q 1057 -20 1185 8 q 740 -49 929 -49 m 713 443 l 774 443 l 774 708 l 713 708 l 713 443 z "},"Ự":{"ha":1494,"x_min":11,"x_max":1483,"o":"m 744 -240 q 515 -169 593 -240 q 436 7 436 -99 q 467 120 436 64 q 571 210 499 176 q 472 172 511 207 q 412 88 432 138 q 389 -10 392 39 q 216 88 283 22 q 129 261 149 153 q 121 415 115 342 q 126 571 126 489 q 113 675 126 639 q 79 726 100 711 q 35 740 58 740 q 17 808 22 765 q 12 901 11 851 q 19 997 13 950 q 40 1076 26 1043 q 137 1069 79 1074 q 262 1060 194 1064 q 394 1057 329 1057 q 569 1064 489 1057 q 708 1076 650 1071 q 727 920 725 1011 q 714 715 729 829 l 714 443 l 772 443 l 772 715 q 758 920 754 829 q 781 1076 763 1011 q 845 1069 808 1075 q 921 1064 882 1064 q 1051 1089 1010 1064 q 1089 1174 1092 1114 q 1148 1183 1107 1179 q 1240 1188 1189 1186 q 1335 1190 1290 1190 q 1392 1190 1367 1190 q 1429 1186 1417 1189 q 1470 1073 1457 1135 q 1483 956 1483 1011 q 1472 863 1483 896 q 1443 808 1460 829 q 1409 763 1426 786 q 1380 703 1392 740 q 1368 599 1368 665 q 1374 431 1368 511 q 1364 281 1379 351 q 1257 77 1335 149 q 1043 -24 1179 6 q 1008 -128 1039 -79 q 914 -209 978 -178 q 744 -240 850 -240 z "},"Ừ":{"ha":1494,"x_min":11,"x_max":1483,"o":"m 740 -49 q 445 -22 575 -49 q 233 72 315 4 q 129 261 151 139 q 121 415 115 342 q 126 571 126 489 q 113 675 126 639 q 79 726 100 711 q 35 740 58 740 q 17 808 22 765 q 12 901 11 851 q 19 997 13 950 q 40 1076 26 1043 q 110 1071 67 1074 q 205 1065 154 1068 q 303 1060 256 1063 q 405 885 343 950 q 543 793 467 821 q 417 942 474 856 q 346 1115 361 1028 q 423 1169 369 1146 q 546 1205 476 1192 q 688 1218 615 1218 q 788 1210 739 1218 q 876 1186 836 1203 q 936 1064 910 1142 q 1038 1079 1004 1063 q 1083 1122 1072 1096 q 1090 1174 1093 1147 q 1149 1183 1108 1179 q 1241 1188 1190 1186 q 1336 1190 1292 1190 q 1392 1190 1368 1190 q 1429 1186 1417 1189 q 1470 1073 1457 1135 q 1483 956 1483 1011 q 1472 863 1483 896 q 1443 808 1460 829 q 1409 763 1426 786 q 1380 703 1392 740 q 1368 599 1368 665 q 1374 431 1368 511 q 1364 281 1379 351 q 1260 81 1336 153 q 1057 -20 1185 8 q 740 -49 929 -49 m 713 443 l 774 443 l 774 708 l 713 708 l 713 443 z "},"Ử":{"ha":1494,"x_min":11,"x_max":1483,"o":"m 740 -49 q 445 -22 575 -49 q 233 72 315 4 q 129 261 151 139 q 121 415 115 342 q 126 571 126 489 q 113 675 126 639 q 79 726 100 711 q 35 740 58 740 q 17 808 22 765 q 12 901 11 851 q 19 997 13 950 q 40 1076 26 1043 q 186 1065 94 1071 q 371 1057 278 1058 q 381 927 369 985 q 411 846 393 869 q 488 843 454 851 q 546 817 521 835 q 499 877 531 861 q 432 888 468 893 q 417 957 422 915 q 413 1044 413 999 q 418 1128 413 1089 q 433 1189 424 1167 q 606 1206 521 1194 q 796 1217 690 1217 q 953 1181 893 1217 q 1032 1081 1014 1144 q 1089 1174 1090 1103 q 1148 1183 1107 1179 q 1240 1188 1189 1186 q 1335 1190 1290 1190 q 1392 1190 1367 1190 q 1429 1186 1417 1189 q 1470 1073 1457 1135 q 1483 956 1483 1011 q 1472 863 1483 896 q 1443 808 1460 829 q 1409 763 1426 786 q 1380 703 1392 740 q 1368 599 1368 665 q 1374 431 1368 511 q 1364 281 1379 351 q 1260 81 1336 153 q 1057 -20 1185 8 q 740 -49 929 -49 m 713 443 l 774 443 l 774 708 l 713 708 l 713 443 z "},"Ữ":{"ha":1494,"x_min":11,"x_max":1483,"o":"m 740 -49 q 445 -22 575 -49 q 233 72 315 4 q 129 261 151 139 q 121 415 115 342 q 126 571 126 489 q 113 675 126 639 q 79 726 100 711 q 35 740 58 740 q 17 808 22 765 q 12 901 11 851 q 19 997 13 950 q 40 1076 26 1043 q 158 1067 85 1072 q 313 1058 232 1061 q 302 911 296 982 q 329 807 308 840 q 358 1028 332 946 q 436 1146 385 1110 q 564 1182 488 1182 q 656 1172 614 1182 q 738 1151 699 1161 q 811 1140 776 1140 q 874 1153 849 1140 q 913 1188 899 1165 q 1001 1181 944 1186 q 1101 1164 1058 1175 q 1101 1111 1101 1136 q 1099 1063 1101 1086 l 1140 1060 q 1143 1117 1143 1088 q 1143 1179 1143 1147 q 1239 1188 1183 1185 q 1342 1190 1294 1190 q 1397 1190 1374 1190 q 1429 1186 1419 1189 q 1470 1073 1457 1135 q 1483 956 1483 1011 q 1472 863 1483 896 q 1443 808 1460 829 q 1409 763 1426 786 q 1380 703 1392 740 q 1368 599 1368 665 q 1374 431 1368 511 q 1364 281 1379 351 q 1260 81 1336 153 q 1057 -20 1185 8 q 740 -49 929 -49 m 713 443 l 774 443 l 774 718 l 713 718 l 713 443 z "},"Ű":{"ha":1494,"x_min":11,"x_max":1483,"o":"m 740 -49 q 445 -22 575 -49 q 233 72 315 4 q 129 261 151 139 q 121 415 115 342 q 126 571 126 489 q 113 675 126 639 q 79 726 100 711 q 35 740 58 740 q 17 808 22 765 q 12 901 11 851 q 19 997 13 950 q 40 1076 26 1043 q 146 1067 81 1072 q 281 1060 211 1063 q 283 885 258 958 q 371 772 308 811 q 322 879 332 821 q 322 996 313 938 q 353 1104 332 1054 q 399 1186 375 1154 q 492 1210 439 1203 q 600 1218 544 1218 q 718 1210 664 1218 q 679 1098 693 1169 q 679 951 665 1026 l 681 951 q 708 1085 683 1021 q 760 1186 732 1149 q 849 1210 800 1203 q 949 1218 897 1218 q 1090 1205 1021 1218 q 1213 1169 1160 1192 q 1290 1115 1267 1146 q 1278 1063 1286 1092 q 1377 1069 1331 1065 q 1454 1076 1424 1074 q 1475 997 1468 1043 q 1483 901 1482 950 q 1478 808 1483 851 q 1460 740 1472 765 q 1397 710 1425 739 q 1368 599 1368 681 q 1374 431 1368 511 q 1364 281 1379 351 q 1260 81 1336 153 q 1057 -20 1185 8 q 740 -49 929 -49 m 713 443 l 774 443 l 774 708 l 713 708 l 713 443 z "},"Ȗ":{"ha":1494,"x_min":11,"x_max":1483,"o":"m 740 -49 q 445 -22 575 -49 q 233 72 315 4 q 129 261 151 139 q 121 415 115 342 q 126 571 126 489 q 113 675 126 639 q 79 726 100 711 q 35 740 58 740 q 17 808 22 765 q 12 901 11 851 q 19 997 13 950 q 40 1076 26 1043 q 167 1067 89 1072 q 331 1058 246 1061 q 301 911 299 989 q 342 764 303 833 q 363 1001 321 900 q 508 1159 406 1103 q 767 1215 611 1215 q 963 1172 879 1215 q 1097 1057 1047 1129 l 1100 1057 q 1233 1060 1165 1057 q 1358 1069 1300 1064 q 1454 1076 1417 1074 q 1475 997 1468 1043 q 1483 901 1482 950 q 1478 808 1483 851 q 1460 740 1472 765 q 1397 710 1425 739 q 1368 599 1368 681 q 1374 431 1368 511 q 1364 281 1379 351 q 1260 81 1336 153 q 1057 -20 1185 8 q 740 -49 929 -49 m 715 443 l 771 443 l 771 800 l 715 800 l 715 443 z "},"Ū":{"ha":1494,"x_min":11,"x_max":1483,"o":"m 740 -49 q 445 -22 575 -49 q 233 72 315 4 q 129 261 151 139 q 121 415 115 342 q 126 571 126 489 q 113 675 126 639 q 79 726 100 711 q 35 740 58 740 q 17 808 22 765 q 12 901 11 851 q 19 997 13 950 q 40 1076 26 1043 q 165 1067 88 1072 q 325 1058 243 1061 q 331 970 326 1025 q 349 860 336 915 q 383 767 361 804 q 376 822 379 782 q 372 913 374 861 q 372 1019 371 965 q 375 1118 372 1074 q 383 1186 378 1163 q 549 1178 454 1181 q 746 1176 643 1176 q 944 1178 849 1176 q 1111 1186 1040 1181 q 1119 1131 1117 1168 q 1124 1057 1122 1094 q 1309 1065 1218 1058 q 1454 1076 1400 1071 q 1475 997 1468 1043 q 1483 901 1482 950 q 1478 808 1483 851 q 1460 740 1472 765 q 1397 710 1425 739 q 1368 599 1368 681 q 1374 431 1368 511 q 1364 281 1379 351 q 1260 81 1336 153 q 1057 -20 1185 8 q 740 -49 929 -49 m 713 443 l 774 443 l 774 708 l 713 708 l 713 443 z "},"Ų":{"ha":1494,"x_min":11,"x_max":1483,"o":"m 733 -235 q 549 -187 613 -235 q 486 -47 486 -140 q 506 47 486 -4 q 572 146 526 97 q 503 106 531 136 q 460 41 475 76 q 439 -21 446 6 q 233 74 313 7 q 129 261 153 140 q 121 415 115 342 q 126 571 126 489 q 113 675 126 639 q 79 726 100 711 q 35 740 58 740 q 17 808 22 765 q 12 901 11 851 q 19 997 13 950 q 40 1076 26 1043 q 137 1069 79 1074 q 262 1060 194 1064 q 394 1057 329 1057 q 569 1064 489 1057 q 708 1076 650 1071 q 727 920 725 1011 q 714 715 729 829 l 714 443 l 772 443 l 772 715 q 758 920 754 829 q 781 1076 763 1011 q 917 1064 839 1071 q 1100 1057 996 1057 q 1233 1060 1165 1057 q 1358 1069 1300 1064 q 1454 1076 1417 1074 q 1475 997 1468 1043 q 1483 901 1482 950 q 1478 808 1483 851 q 1460 740 1472 765 q 1397 710 1425 739 q 1368 599 1368 681 q 1374 431 1368 511 q 1364 281 1379 351 q 1277 99 1339 167 q 1111 -6 1215 31 q 1108 -124 1114 -64 q 1086 -221 1101 -185 q 974 -219 1025 -215 q 867 -229 922 -224 q 733 -235 811 -235 z "},"Ů":{"ha":1494,"x_min":11,"x_max":1483,"o":"m 740 -49 q 445 -22 575 -49 q 233 72 315 4 q 129 261 151 139 q 121 415 115 342 q 126 571 126 489 q 113 675 126 639 q 79 726 100 711 q 35 740 58 740 q 17 808 22 765 q 12 901 11 851 q 19 997 13 950 q 40 1076 26 1043 q 213 1064 121 1069 q 390 1057 306 1058 q 414 876 368 946 q 540 786 460 806 q 467 870 494 819 q 439 982 439 921 q 466 1092 439 1039 q 557 1181 493 1146 q 729 1217 621 1217 q 1032 1058 968 1217 q 1065 1057 1049 1057 q 1100 1057 1082 1057 q 1233 1060 1165 1057 q 1358 1069 1300 1064 q 1454 1076 1417 1074 q 1475 997 1468 1043 q 1483 901 1482 950 q 1478 808 1483 851 q 1460 740 1472 765 q 1397 710 1425 739 q 1368 599 1368 681 q 1374 431 1368 511 q 1364 281 1379 351 q 1260 81 1336 153 q 1057 -20 1185 8 q 740 -49 929 -49 m 719 928 l 764 928 l 764 1033 l 719 1033 l 719 928 m 713 443 l 774 443 l 774 708 l 713 708 l 713 443 z "},"Ũ":{"ha":1494,"x_min":11,"x_max":1483,"o":"m 740 -49 q 445 -22 575 -49 q 233 72 315 4 q 129 261 151 139 q 121 415 115 342 q 126 571 126 489 q 113 675 126 639 q 79 726 100 711 q 35 740 58 740 q 17 808 22 765 q 12 901 11 851 q 19 997 13 950 q 40 1076 26 1043 q 158 1067 85 1072 q 313 1058 232 1061 q 302 911 296 982 q 329 807 308 840 q 358 1028 332 946 q 436 1146 385 1110 q 564 1182 488 1182 q 656 1172 614 1182 q 738 1151 699 1161 q 811 1140 776 1140 q 874 1153 849 1140 q 913 1188 899 1165 q 988 1183 942 1188 q 1078 1169 1033 1178 q 1146 1149 1122 1161 q 1145 1102 1146 1125 q 1143 1057 1144 1079 q 1317 1066 1232 1060 q 1454 1076 1403 1072 q 1475 997 1468 1043 q 1483 901 1482 950 q 1478 808 1483 851 q 1460 740 1472 765 q 1397 710 1425 739 q 1368 599 1368 681 q 1374 431 1368 511 q 1364 281 1379 351 q 1260 81 1336 153 q 1057 -20 1185 8 q 740 -49 929 -49 m 713 443 l 774 443 l 774 718 l 713 718 l 713 443 z "},"V":{"ha":1522,"x_min":11,"x_max":1511,"o":"m 474 -26 q 354 9 397 -26 q 282 100 311 44 q 226 244 249 164 q 188 410 204 325 q 157 571 172 494 q 105 704 139 669 q 35 740 71 739 q 17 808 22 765 q 12 901 11 851 q 19 997 13 950 q 40 1076 26 1043 q 202 1064 97 1071 q 436 1057 307 1057 q 623 1064 531 1057 q 772 1076 715 1071 q 751 864 747 978 q 780 635 754 750 q 846 417 806 519 l 844 715 l 804 715 q 792 920 788 829 q 815 1076 797 1011 q 897 1067 854 1072 q 1005 1060 940 1063 q 1169 1057 1069 1057 q 1272 1060 1214 1057 q 1388 1069 1331 1064 q 1482 1076 1444 1074 q 1503 997 1496 1043 q 1510 901 1510 950 q 1506 808 1511 851 q 1488 740 1500 765 q 1426 709 1453 739 q 1382 599 1400 679 q 1330 358 1353 471 q 1276 158 1307 244 q 1197 24 1246 72 q 1069 -25 1149 -25 q 996 -22 1028 -25 q 933 -15 964 -19 q 860 -8 901 -11 q 760 -6 819 -6 q 635 -11 683 -6 q 550 -22 586 -17 q 474 -26 514 -26 z "},"W":{"ha":1856,"x_min":11,"x_max":1844,"o":"m 403 -26 q 276 22 324 -26 q 202 152 228 69 q 164 342 176 235 q 143 571 151 450 q 119 675 139 639 q 75 726 99 711 q 35 740 51 740 q 17 808 22 765 q 12 901 11 851 q 19 997 13 950 q 40 1076 26 1043 q 118 1070 69 1074 q 224 1064 167 1067 q 340 1059 282 1061 q 446 1057 399 1057 q 553 1060 496 1057 q 663 1069 610 1064 q 754 1076 717 1074 q 733 947 738 1018 q 735 803 728 876 q 763 664 743 729 q 817 553 783 599 l 817 715 l 785 715 q 773 919 768 826 q 796 1076 778 1011 q 866 1067 819 1071 q 972 1060 913 1063 q 1092 1058 1032 1058 q 1178 1060 1128 1058 q 1277 1067 1229 1063 q 1353 1076 1325 1071 q 1338 980 1344 1033 q 1335 870 1332 926 q 1359 761 1339 814 q 1424 667 1379 708 l 1453 694 q 1377 854 1385 756 q 1393 1076 1369 953 q 1498 1065 1444 1068 q 1603 1061 1551 1061 q 1719 1065 1664 1061 q 1815 1076 1775 1069 q 1836 997 1829 1043 q 1844 901 1843 950 q 1839 808 1844 851 q 1821 740 1833 765 q 1765 710 1794 739 q 1726 599 1735 681 q 1700 359 1714 472 q 1662 160 1686 246 q 1591 24 1638 74 q 1465 -25 1544 -25 q 1367 -22 1425 -25 q 1241 -12 1308 -18 q 1104 -3 1174 -7 q 974 0 1035 0 q 956 76 964 31 q 945 174 949 122 q 942 272 942 226 q 915 174 922 225 q 909 76 907 122 q 921 -1 911 31 q 572 -16 707 -6 q 403 -26 438 -26 z "},"Ẃ":{"ha":1856,"x_min":11,"x_max":1844,"o":"m 403 -26 q 276 22 324 -26 q 202 152 228 69 q 164 342 176 235 q 143 571 151 450 q 119 675 139 639 q 75 726 99 711 q 35 740 51 740 q 17 808 22 765 q 12 901 11 851 q 19 997 13 950 q 40 1076 26 1043 q 118 1070 69 1074 q 224 1064 167 1067 q 340 1059 282 1061 q 446 1057 399 1057 q 553 1060 496 1057 q 663 1069 610 1064 q 754 1076 717 1074 q 733 947 738 1018 q 735 803 728 876 q 763 664 743 729 q 817 553 783 599 l 817 715 l 785 715 q 778 978 765 854 q 853 1186 792 1101 q 942 1210 893 1203 q 1042 1218 990 1218 q 1183 1205 1114 1218 q 1306 1169 1253 1192 q 1383 1115 1360 1146 q 1367 1051 1375 1090 q 1353 972 1358 1013 q 1349 900 1349 931 q 1368 769 1349 829 q 1442 664 1388 708 l 1474 694 q 1398 854 1406 756 q 1414 1076 1390 953 q 1516 1065 1465 1068 q 1603 1061 1567 1061 q 1719 1065 1664 1061 q 1815 1076 1775 1069 q 1836 997 1829 1043 q 1844 901 1843 950 q 1839 808 1844 851 q 1821 740 1833 765 q 1765 710 1794 739 q 1726 599 1735 681 q 1700 359 1714 472 q 1662 160 1686 246 q 1591 24 1638 74 q 1465 -25 1544 -25 q 1367 -22 1425 -25 q 1241 -12 1308 -18 q 1104 -3 1174 -7 q 974 0 1035 0 q 956 76 964 31 q 945 174 949 122 q 942 272 942 226 q 915 174 922 225 q 909 76 907 122 q 921 -1 911 31 q 572 -16 707 -6 q 403 -26 438 -26 z "},"Ŵ":{"ha":1856,"x_min":11,"x_max":1844,"o":"m 403 -26 q 276 22 324 -26 q 202 152 228 69 q 164 342 176 235 q 143 571 151 450 q 119 675 139 639 q 75 726 99 711 q 35 740 51 740 q 17 808 22 765 q 12 901 11 851 q 19 997 13 950 q 40 1076 26 1043 q 118 1070 69 1074 q 224 1064 167 1067 q 340 1059 282 1061 q 446 1057 399 1057 q 528 1059 485 1057 q 615 1065 572 1061 q 586 922 589 999 q 611 790 583 844 q 634 954 606 872 q 710 1102 663 1036 q 811 1204 758 1168 q 909 1213 851 1211 q 1025 1215 967 1215 q 1145 1213 1089 1215 q 1231 1204 1201 1210 q 1293 1149 1261 1183 q 1351 1074 1325 1115 q 1434 1067 1388 1069 q 1526 1063 1481 1064 q 1603 1061 1572 1061 q 1719 1065 1664 1061 q 1815 1076 1775 1069 q 1836 997 1829 1043 q 1844 901 1843 950 q 1839 808 1844 851 q 1821 740 1833 765 q 1765 710 1794 739 q 1726 599 1735 681 q 1700 359 1714 472 q 1662 160 1686 246 q 1591 24 1638 74 q 1465 -25 1544 -25 q 1367 -22 1425 -25 q 1241 -12 1308 -18 q 1104 -3 1174 -7 q 974 0 1035 0 q 956 76 964 31 q 945 174 949 122 q 942 272 942 226 q 915 174 922 225 q 909 76 907 122 q 921 -1 911 31 q 572 -16 707 -6 q 403 -26 438 -26 m 1376 642 l 1422 642 l 1422 722 l 1376 722 l 1376 642 m 765 557 l 814 557 l 814 713 l 765 713 l 765 557 z "},"Ẅ":{"ha":1856,"x_min":11,"x_max":1844,"o":"m 403 -26 q 276 22 324 -26 q 202 152 228 69 q 164 342 176 235 q 143 571 151 450 q 119 675 139 639 q 75 726 99 711 q 35 740 51 740 q 17 808 22 765 q 12 901 11 851 q 19 997 13 950 q 40 1076 26 1043 q 125 1070 74 1074 q 234 1064 176 1067 q 346 1059 292 1061 q 440 1057 400 1057 q 446 906 424 971 q 519 802 468 840 q 638 758 571 764 q 529 846 572 786 q 486 982 486 906 q 515 1091 486 1038 q 610 1181 543 1144 q 792 1217 678 1217 q 856 1213 826 1217 q 911 1203 886 1208 q 851 1132 865 1172 q 844 1056 836 1092 q 936 1169 867 1121 q 1139 1217 1006 1217 q 1325 1175 1258 1217 q 1418 1072 1392 1133 q 1510 1064 1464 1067 q 1603 1061 1557 1061 q 1719 1065 1664 1061 q 1815 1076 1775 1069 q 1836 997 1829 1043 q 1844 901 1843 950 q 1839 808 1844 851 q 1821 740 1833 765 q 1765 710 1794 739 q 1726 599 1735 681 q 1700 359 1714 472 q 1662 160 1686 246 q 1591 24 1638 74 q 1465 -25 1544 -25 q 1367 -22 1425 -25 q 1241 -12 1308 -18 q 1104 -3 1174 -7 q 974 0 1035 0 q 956 76 964 31 q 945 174 949 122 q 942 272 942 226 q 915 174 922 225 q 909 76 907 122 q 921 -1 911 31 q 572 -16 707 -6 q 403 -26 438 -26 m 1376 642 l 1422 642 l 1422 739 l 1376 739 l 1376 642 m 765 557 l 814 557 l 814 724 l 765 724 l 765 557 z "},"Ẁ":{"ha":1856,"x_min":11,"x_max":1844,"o":"m 403 -26 q 276 22 324 -26 q 202 152 228 69 q 164 342 176 235 q 143 571 151 450 q 119 675 139 639 q 75 726 99 711 q 35 740 51 740 q 17 808 22 765 q 12 901 11 851 q 19 997 13 950 q 40 1076 26 1043 q 206 1065 133 1068 q 349 1060 279 1061 q 497 1058 418 1058 q 594 897 536 956 q 722 810 651 838 q 608 953 658 871 q 543 1115 557 1035 q 620 1169 567 1146 q 743 1205 674 1192 q 885 1218 813 1218 q 985 1210 936 1218 q 1074 1186 1033 1203 q 1135 1058 1110 1139 q 1254 1065 1190 1061 q 1353 1076 1318 1069 q 1338 980 1344 1033 q 1335 870 1332 926 q 1359 761 1339 814 q 1424 667 1379 708 l 1453 694 q 1377 854 1385 756 q 1393 1076 1369 953 q 1498 1065 1444 1068 q 1603 1061 1551 1061 q 1719 1065 1664 1061 q 1815 1076 1775 1069 q 1836 997 1829 1043 q 1844 901 1843 950 q 1839 808 1844 851 q 1821 740 1833 765 q 1765 710 1794 739 q 1726 599 1735 681 q 1700 359 1714 472 q 1662 160 1686 246 q 1591 24 1638 74 q 1465 -25 1544 -25 q 1367 -22 1425 -25 q 1241 -12 1308 -18 q 1104 -3 1174 -7 q 974 0 1035 0 q 956 76 964 31 q 945 174 949 122 q 942 272 942 226 q 915 174 922 225 q 909 76 907 122 q 921 -1 911 31 q 572 -16 707 -6 q 403 -26 438 -26 m 765 557 l 814 557 l 814 700 l 765 700 l 765 557 z "},"X":{"ha":1508,"x_min":11,"x_max":1497,"o":"m 40 -21 q 19 59 26 13 q 12 155 13 106 q 17 247 11 204 q 35 315 22 290 q 160 354 100 313 q 281 485 219 396 q 164 660 226 588 q 35 740 101 733 q 17 808 22 765 q 12 901 11 851 q 19 997 13 950 q 40 1076 26 1043 q 202 1064 97 1071 q 436 1057 307 1057 q 556 1060 493 1057 q 678 1069 619 1064 q 775 1076 736 1074 q 791 956 779 1021 q 835 833 803 890 q 931 738 867 775 l 953 774 q 872 853 899 806 q 834 958 844 900 q 818 1078 824 1015 q 900 1067 858 1072 q 1002 1060 942 1063 q 1156 1057 1063 1057 q 1258 1060 1200 1057 q 1374 1069 1317 1064 q 1468 1076 1431 1074 q 1489 997 1482 1043 q 1497 901 1496 950 q 1492 808 1497 851 q 1474 740 1486 765 q 1407 731 1444 738 q 1324 692 1369 724 q 1224 581 1279 660 q 1342 386 1285 454 q 1474 315 1399 318 q 1492 247 1486 290 q 1497 155 1497 204 q 1489 59 1496 106 q 1468 -21 1482 13 q 1306 -8 1411 -15 q 1072 -1 1201 -1 q 885 -8 978 -1 q 733 -21 793 -15 q 718 92 731 29 q 672 213 706 154 q 571 307 639 271 l 550 271 q 637 192 608 239 q 676 91 665 146 q 692 -21 688 36 q 610 -11 653 -15 q 506 -4 567 -7 q 353 -1 446 -1 q 250 -5 308 -1 q 135 -12 192 -8 q 40 -21 79 -17 z "},"Y":{"ha":1522,"x_min":11,"x_max":1511,"o":"m 392 -24 q 370 76 376 17 q 367 195 364 136 q 382 292 369 254 q 446 281 414 285 q 511 274 478 276 l 515 313 q 353 344 429 318 q 225 429 278 369 q 151 597 172 489 q 110 699 140 658 q 35 740 81 739 q 17 808 22 765 q 12 901 11 851 q 19 997 13 950 q 40 1076 26 1043 q 202 1064 97 1071 q 436 1057 307 1057 q 609 1064 531 1057 q 744 1076 688 1071 q 730 976 736 1033 q 730 858 724 918 q 764 742 736 797 q 850 649 792 688 l 874 682 q 791 781 815 721 q 768 917 767 842 q 788 1076 769 993 q 938 1063 844 1069 q 1169 1057 1031 1057 q 1272 1060 1214 1057 q 1388 1069 1331 1064 q 1482 1076 1444 1074 q 1503 997 1496 1043 q 1510 901 1510 950 q 1506 808 1511 851 q 1488 740 1500 765 q 1430 720 1453 744 q 1394 663 1407 696 q 1376 606 1382 629 q 1263 402 1344 468 q 1069 313 1182 336 l 1081 275 q 1143 292 1114 282 q 1156 228 1153 268 q 1159 140 1160 188 q 1151 49 1158 93 q 1133 -24 1144 6 q 978 -9 1072 -17 q 750 -1 885 -1 q 592 -5 657 -1 q 481 -14 528 -8 q 392 -24 433 -19 z "},"Ý":{"ha":1522,"x_min":11,"x_max":1511,"o":"m 392 -24 q 370 76 376 17 q 367 195 364 136 q 382 292 369 254 q 446 281 414 285 q 511 274 478 276 l 515 313 q 353 344 429 318 q 225 429 278 369 q 151 597 172 489 q 110 699 140 658 q 35 740 81 739 q 17 808 22 765 q 12 901 11 851 q 19 997 13 950 q 40 1076 26 1043 q 257 1062 143 1067 q 476 1057 371 1057 q 463 960 465 1014 q 478 859 460 907 q 547 783 497 811 q 512 903 518 835 q 526 1045 506 971 q 593 1186 546 1119 q 682 1210 633 1203 q 782 1218 731 1218 q 924 1205 854 1218 q 1047 1169 993 1192 q 1124 1115 1100 1146 q 1108 1057 1119 1093 q 1300 1064 1203 1057 q 1482 1076 1397 1071 q 1503 997 1496 1043 q 1510 901 1510 950 q 1506 808 1511 851 q 1488 740 1500 765 q 1430 720 1453 744 q 1394 663 1407 696 q 1376 606 1382 629 q 1263 402 1344 468 q 1069 313 1182 336 l 1081 275 q 1143 292 1114 282 q 1156 228 1153 268 q 1159 140 1160 188 q 1151 49 1158 93 q 1133 -24 1144 6 q 978 -9 1072 -17 q 750 -1 885 -1 q 592 -5 657 -1 q 481 -14 528 -8 q 392 -24 433 -19 m 765 593 l 814 593 l 814 708 l 765 708 l 765 593 z "},"Ŷ":{"ha":1522,"x_min":11,"x_max":1511,"o":"m 392 -24 q 370 76 376 17 q 367 195 364 136 q 382 292 369 254 q 446 281 414 285 q 511 274 478 276 l 515 313 q 353 344 429 318 q 225 429 278 369 q 151 597 172 489 q 110 699 140 658 q 35 740 81 739 q 17 808 22 765 q 12 901 11 851 q 19 997 13 950 q 40 1076 26 1043 q 184 1065 90 1071 q 388 1057 278 1060 q 359 918 363 993 q 382 790 356 843 q 405 954 376 872 q 481 1102 433 1036 q 582 1204 529 1168 q 680 1213 622 1211 q 796 1215 738 1215 q 916 1213 860 1215 q 1001 1204 972 1210 q 1132 1057 1074 1154 q 1303 1064 1210 1057 q 1482 1076 1397 1071 q 1503 997 1496 1043 q 1510 901 1510 950 q 1506 808 1511 851 q 1488 740 1500 765 q 1430 720 1453 744 q 1394 663 1407 696 q 1376 606 1382 629 q 1263 402 1344 468 q 1069 313 1182 336 l 1081 275 q 1143 292 1114 282 q 1156 228 1153 268 q 1159 140 1160 188 q 1151 49 1158 93 q 1133 -24 1144 6 q 978 -9 1072 -17 q 750 -1 885 -1 q 592 -5 657 -1 q 481 -14 528 -8 q 392 -24 433 -19 m 765 635 l 814 635 l 814 799 l 765 799 l 765 635 z "},"Ÿ":{"ha":1522,"x_min":11,"x_max":1511,"o":"m 392 -24 q 370 76 376 17 q 367 195 364 136 q 382 292 369 254 q 446 281 414 285 q 511 274 478 276 l 515 313 q 353 344 429 318 q 225 429 278 369 q 151 597 172 489 q 110 699 140 658 q 35 740 81 739 q 17 808 22 765 q 12 901 11 851 q 19 997 13 950 q 40 1076 26 1043 q 137 1069 76 1074 q 267 1061 197 1064 q 267 920 250 981 q 327 822 285 860 q 428 774 369 785 q 340 860 374 806 q 307 982 307 914 q 335 1091 307 1038 q 431 1181 364 1144 q 613 1217 499 1217 q 677 1213 647 1217 q 732 1203 707 1208 q 672 1132 686 1172 q 665 1056 657 1092 q 757 1169 688 1121 q 960 1217 826 1217 q 1151 1172 1083 1217 q 1244 1061 1219 1126 q 1362 1069 1300 1064 q 1482 1076 1424 1074 q 1503 997 1496 1043 q 1510 901 1510 950 q 1506 808 1511 851 q 1488 740 1500 765 q 1430 720 1453 744 q 1394 663 1407 696 q 1376 606 1382 629 q 1263 402 1344 468 q 1069 313 1182 336 l 1081 275 q 1143 292 1114 282 q 1156 228 1153 268 q 1159 140 1160 188 q 1151 49 1158 93 q 1133 -24 1144 6 q 978 -9 1072 -17 q 750 -1 885 -1 q 592 -5 657 -1 q 481 -14 528 -8 q 392 -24 433 -19 m 765 593 l 814 593 l 814 708 l 765 708 l 765 593 z "},"Ỵ":{"ha":1522,"x_min":11,"x_max":1511,"o":"m 779 -240 q 549 -169 628 -240 q 471 7 471 -99 q 502 120 471 64 q 606 210 533 176 q 503 170 543 207 q 443 82 463 133 q 424 -19 424 31 l 392 -24 q 370 76 376 17 q 367 195 364 136 q 382 292 369 254 q 446 281 414 285 q 511 274 478 276 l 515 313 q 353 344 429 318 q 225 429 278 369 q 151 597 172 489 q 110 699 140 658 q 35 740 81 739 q 17 808 22 765 q 12 901 11 851 q 19 997 13 950 q 40 1076 26 1043 q 202 1064 97 1071 q 436 1057 307 1057 q 609 1064 531 1057 q 744 1076 688 1071 q 730 976 736 1033 q 730 858 724 918 q 764 742 736 797 q 850 649 792 688 l 874 682 q 791 781 815 721 q 768 917 767 842 q 788 1076 769 993 q 938 1063 844 1069 q 1169 1057 1031 1057 q 1272 1060 1214 1057 q 1388 1069 1331 1064 q 1482 1076 1444 1074 q 1503 997 1496 1043 q 1510 901 1510 950 q 1506 808 1511 851 q 1488 740 1500 765 q 1430 720 1453 744 q 1394 663 1407 696 q 1376 606 1382 629 q 1263 402 1344 468 q 1069 313 1182 336 l 1081 275 q 1143 292 1114 282 q 1156 228 1153 268 q 1159 140 1160 188 q 1151 49 1158 93 q 1133 -24 1144 6 q 1107 -21 1121 -22 q 1078 -18 1093 -19 q 1045 -126 1075 -75 q 951 -208 1015 -176 q 779 -240 886 -240 z "}}}
